<svg xmlns="http://www.w3.org/2000/svg" xmlns:xlink="http://www.w3.org/1999/xlink" viewBox="0 0 31.88 42.03"><defs><style>.cls-1{fill:#fff;}.cls-1,.cls-3{fill-rule:evenodd;}.cls-2{mask:url(#mask);}.cls-3{fill-opacity:0.1;}.cls-4{mask:url(#mask-2);}.cls-5{mask:url(#mask-3);}</style><mask id="mask" x="6.41" y="16.23" width="24.33" height="19.74" maskUnits="userSpaceOnUse"><g id="mask-11"><path id="path-10" class="cls-1" d="M23.87,16.24h-.05c-.4,0-.8,0-1.21,0h0A17.89,17.89,0,0,0,7,27.26H7l0,0H7a6,6,0,0,0-.53,2.82h0A5.81,5.81,0,0,0,6.85,32h0l0,.06h0l.09.2H7l0,.1H7a.54.54,0,0,0,0,.11h0a6.22,6.22,0,0,0,4.63,3.3h0a18.05,18.05,0,0,0,4,.19h0A18,18,0,0,0,30.39,27h0l.05-.09h0l.07-.13h0a1.86,1.86,0,0,0,.22-.81h0a1.82,1.82,0,0,0,0-.33h0a2.44,2.44,0,0,0-2.35-2.24h0a1.25,1.25,0,0,1-1.16-1.14h0a1.31,1.31,0,0,1,.18-.7h0a3.4,3.4,0,0,0,.47-1.94h0a3.69,3.69,0,0,0-3.75-3.38h-.24M22.15,26.42a1.66,1.66,0,0,1,1.59-1.71h0a1.67,1.67,0,0,1,1.79,1.51h0a1.65,1.65,0,0,1-1.6,1.71h-.1a1.65,1.65,0,0,1-1.68-1.52"/></g></mask><mask id="mask-2" x="0" y="0" width="31.88" height="28.58" maskUnits="userSpaceOnUse"><g id="mask-13"><path id="path-12" class="cls-1" d="M17.26,0a1.33,1.33,0,0,0-.66.22h0L.47,8.66A1,1,0,0,0,0,9.53H0v0a1.44,1.44,0,0,0,.18.68h0L6,21.47,1.2,24A1.19,1.19,0,0,0,.68,25.6h0l1.14,2.32a1.13,1.13,0,0,0,1.55.53h0L31.24,14.1a1.19,1.19,0,0,0,.48-1.64h0l-1.27-2.21a1.15,1.15,0,0,0-1.51-.47h0L24.42,12S19.48,2.72,18.22.61h0A1.09,1.09,0,0,0,17.3,0h0Z"/></g></mask><mask id="mask-3" x="7.99" y="30.33" width="22.32" height="11.7" maskUnits="userSpaceOnUse"><g id="mask-15"><path id="path-14" class="cls-1" d="M29.26,31.4,16.84,38.6a.81.81,0,0,1-.61,0h0L9,35.92a.75.75,0,0,0-1,.7H8l.67,4.64a.77.77,0,0,0,.75.77H27.84a.77.77,0,0,0,.75-.77h0l1.72-9.16a.76.76,0,0,0-.75-.77h0a.66.66,0,0,0-.3.07"/></g></mask></defs><title>资源 1</title><g id="图层_2" data-name="图层 2"><g id="图层_1-2" data-name="图层 1"><g class="cls-2"><path class="cls-1" d="M23.87,16.24h-.05c-.4,0-.8,0-1.21,0h0A17.89,17.89,0,0,0,7,27.26H7l0,0H7a6,6,0,0,0-.53,2.82h0A5.81,5.81,0,0,0,6.85,32h0l0,.06h0l.09.2H7l0,.1H7a.54.54,0,0,0,0,.11h0a6.22,6.22,0,0,0,4.63,3.3h0a18.05,18.05,0,0,0,4,.19h0A18,18,0,0,0,30.39,27h0l.05-.09h0l.07-.13h0a1.86,1.86,0,0,0,.22-.81h0a1.82,1.82,0,0,0,0-.33h0a2.44,2.44,0,0,0-2.35-2.24h0a1.25,1.25,0,0,1-1.16-1.14h0a1.31,1.31,0,0,1,.18-.7h0a3.4,3.4,0,0,0,.47-1.94h0a3.69,3.69,0,0,0-3.75-3.38h-.24M22.15,26.42a1.66,1.66,0,0,1,1.59-1.71h0a1.67,1.67,0,0,1,1.79,1.51h0a1.65,1.65,0,0,1-1.6,1.71h-.1a1.65,1.65,0,0,1-1.68-1.52"/></g><path class="cls-3" d="M15.59,18.41c-5,2.69-9.36,6.71-9.19,11.89L26.55,17.24c-1.78-1.82-6.21-1.41-11,1.17"/><g class="cls-4"><path class="cls-1" d="M17.26,0a1.33,1.33,0,0,0-.66.22h0L.47,8.66A1,1,0,0,0,0,9.53H0v0a1.44,1.44,0,0,0,.18.68h0L6,21.47,1.2,24A1.19,1.19,0,0,0,.68,25.6h0l1.14,2.32a1.13,1.13,0,0,0,1.55.53h0L31.24,14.1a1.19,1.19,0,0,0,.48-1.64h0l-1.27-2.21a1.15,1.15,0,0,0-1.51-.47h0L24.42,12S19.48,2.72,18.22.61h0A1.09,1.09,0,0,0,17.3,0h0Z"/></g><g class="cls-5"><path class="cls-1" d="M29.26,30.4,16.84,38.28a.69.69,0,0,1-.61,0h0L9,35.35a.76.76,0,0,0-1,.76H8l.67,5.08a.8.8,0,0,0,.75.84H27.84a.8.8,0,0,0,.75-.84h0l1.72-10a.79.79,0,0,0-.75-.84h0a.66.66,0,0,0-.3.07"/></g></g></g></svg>