<?xml version="1.0" encoding="utf-8"?>
<!-- Generator: Adobe Illustrator 23.0.1, SVG Export Plug-In . SVG Version: 6.00 Build 0)  -->
<svg version="1.1" id="图层_1" xmlns="http://www.w3.org/2000/svg" xmlns:xlink="http://www.w3.org/1999/xlink" x="0px" y="0px"
	 viewBox="0 0 200 200" style="enable-background:new 0 0 200 200;" xml:space="preserve">
<style type="text/css">
	.st0{fill:#D92916;}
	.st1{fill:#FFFFFF;}
</style>
<path class="st0" d="M100,200L100,200C44.8,200,0,155.2,0,100l0,0C0,44.8,44.8,0,100,0h0c55.2,0,100,44.8,100,100v0
	C200,155.2,155.2,200,100,200z"/>
<path class="st1" d="M161.3,98.8c-1.6-5.7-4.3-11.1-8-15.8c-4.3-5.5-9.5-10.1-15.3-13.7c-6-3.5-12.8-5.6-19.9-5.8l-3-11
	c-0.4-1.8,0.2-3.7,1.5-5.1c1.3-1.4,3.2-2.4,5.1-2.6c2.9,0,5.7,1,8,2.6c0.9,0.5,1.5,1.2,2.4,1.8c3.6,2.3,8.5,1.1,10.8-2.5
	c1.4-2.2,1.6-5,0.7-7.4c-0.7-1.5-1.7-2.9-3.2-3.8c-3.7-2.9-8-5-12.5-6c-4-1.1-8.3-1-12.3,0.3c-3.2,1.1-6,3-8.4,5.3
	c-2.4,2-4.3,4.4-5.7,7.2c-2.3,4.9-2.8,10.5-1.1,15.8l1.9,7.4c-8.9,2.4-16.7,7.8-22,15.2c-4.3,6.4-6.4,14.1-6,21.8
	c0.1,3.5,0.8,7,1.9,10.3c2,5.9,5.9,11.1,11.2,14.6c5.7,3.5,12.6,4.9,19.1,3.5c12.9-2.6,22.2-14.2,21.8-27.4l-0.8-4.6
	c-1.6-6.4-3.4-12.7-5-19.1c2.3,0.5,4.5,1.3,6.6,2.5c2.3,1.4,4.5,3.1,6.6,4.9c4.7,4.1,8.2,9.4,10.1,15.4c2.1,7.2,2.1,14.9,0,22
	c-0.7,2.4-1.7,4.9-3,7.1c-5.1,9.4-13.4,16.6-23.5,20.1c-5.7,2.1-11.9,3.3-18.1,3.3c-7.6,0-14.9-1.8-21.7-5.3
	c-11-5.9-19.5-15.7-23.8-27.4c-3.1-8-4-16.7-2.9-25.2c2.5-18.6,14.9-34.3,32.5-40.9c2.8-1.1,4.7-3.5,5.1-6.5
	c0.4-2.9-0.9-5.7-3.3-7.5c-2.8-1.4-6-1.6-8.9-0.5c-20.3,8.2-35.4,26.1-40.1,47.5c-5.1,22.7,1.7,46.4,18,62.9
	c9.3,9.7,21.5,16.1,34.7,18.4c6.4,1,12.8,1,19.3,0c9.3-1.1,18.3-4.2,26.3-9.2c10.8-6.9,19.2-17.1,23.8-29.1
	c1.7-4.9,2.8-10.1,3.2-15.2C163.7,110.9,163.1,104.7,161.3,98.8z M104.4,110.9c-2.2,0.5-4.5,0-6.4-1.2c-2.3-1.7-3.8-4.2-4.3-7
	c-0.5-2.5-0.5-5,0-7.5c0.6-2.8,1.9-5.3,3.8-7.3c2.6-2.6,5.7-4.4,9.2-5.3l4.4,16.9c0.3,1,0.5,1.9,0.6,3
	C111.5,106.7,108.5,110.2,104.4,110.9z"/>
</svg>
