<?xml version="1.0" encoding="utf-8"?>
<!-- Generator: Adobe Illustrator 23.0.1, SVG Export Plug-In . SVG Version: 6.00 Build 0)  -->
<svg version="1.1" id="图层_1" xmlns="http://www.w3.org/2000/svg" xmlns:xlink="http://www.w3.org/1999/xlink" x="0px" y="0px"
	 viewBox="0 0 200 200" style="enable-background:new 0 0 200 200;" xml:space="preserve">
<style type="text/css">
	.st0{fill:#41AADE;}
	.st1{fill:#FFFFFF;}
	.st2{fill:#C8DAEA;}
</style>
<path class="st0" d="M148.6,68c0.8-3.3,0-5.8-0.8-6.6c-1.7-1.7-3.3-1.7-5.8-0.8L45.7,97.1c-2.5,0.8-3.3,2.5-4.1,3.3s-0.8,1.7,0,3.3
	c0.8,0.8,1.7,1.7,3.3,2.5l24.9,7.5L127,78c1.1-0.6,2.1-1.2,2.9-1.9h0.3l-47.1,44.3l-1.7,25.7c1.7,0,3.3-0.8,5-2.5L98,131.9
	l24.9,18.3c5,1.7,8.3,0.8,9.1-5L148.6,68L148.6,68z M199.2,99.6c0,13.3-2.5,26.6-8.3,39c-5,12.4-12.4,23.2-21.6,31.5
	c-9.1,8.3-19.1,15.8-31.5,21.6c-12.4,5-24.9,8.3-39,8.3s-26.6-2.5-39-8.3c-12.4-5-23.2-12.4-31.5-21.6C20,161,13.4,150.2,8.4,138.6
	c-5-12.4-8.3-24.9-8.3-39s2.5-26.6,8.3-39S20.8,37.3,30,29c9.1-8.3,19-15.7,30.7-20.7c11.6-5,24.9-8.3,39-8.3s26.6,2.5,39,8.3
	c12.4,5,23.2,12.4,31.5,21.6C178.5,39,186,49,191.8,61.4C196.8,73,199.2,86.3,199.2,99.6z"/>
<path class="st1" d="M81.4,146.1c1.7,0,3.3-0.8,5-2.5L98,131.9l24.9,18.3c5,1.7,8.3,0.8,9.1-5L148.6,68c0.8-3.3,0-5.8-0.8-6.6
	c-1.7-1.7-3.3-1.7-5.8-0.8L45.7,97.1c-2.5,0.8-3.3,2.5-4.1,3.3c-0.8,0.8-0.8,1.7,0,3.3c0.8,0.8,1.7,1.7,3.3,2.5l24.9,7.5L127,78
	c1.1-0.6,2.1-1.2,2.9-1.9h0.3l-47.1,44.3L81.4,146.1z"/>
<path class="st2" d="M81.4,145.2c-3.3,0-2.5-0.8-4.1-3.3L69,113.7L132.9,73"/>
</svg>
