<svg xmlns="http://www.w3.org/2000/svg" viewBox="0 0 122.52 99.65"><defs><style>.cls-1{fill:#2fb0ec;}</style></defs><title>twitter</title><g id="图层_2" data-name="图层 2"><g id="图层_1-2" data-name="图层 1"><path class="cls-1" d="M83.31.14l-3.1.4a36.18,36.18,0,0,0-5.6,1.7,24.82,24.82,0,0,0-14.2,16.9,23.58,23.58,0,0,0,0,11.8,42,42,0,0,1-11.2-1.5A73.65,73.65,0,0,1,18.6,14.54a46.52,46.52,0,0,1-7.41-7.3,21.88,21.88,0,0,1-2.3-2.7A27.64,27.64,0,0,0,6.19,11a26.07,26.07,0,0,0,5.6,22.9c1.3,1.6,3.3,2.6,4.6,4a6.78,6.78,0,0,1-3.4-.3,25.64,25.64,0,0,1-5.3-1.5l-2.7-1a24.16,24.16,0,0,0,11.8,21.6A17.49,17.49,0,0,0,25,60c-1.6,1.39-8.7.8-11.2.5A25.46,25.46,0,0,0,29.7,76.63a21,21,0,0,0,7.4,1.3,32.56,32.56,0,0,1-6.8,4.4,54,54,0,0,1-15,5.5c-2.3.5-4.7.4-7.3.8a35.7,35.7,0,0,1-8-.3l2.2,1.3a47.32,47.32,0,0,0,7.1,3.6A97.06,97.06,0,0,0,24,98a74.41,74.41,0,0,0,35.71-1.2c26.21-8.2,42.81-27.39,49.11-55.69a73.28,73.28,0,0,0,1.2-16.2l4-3.3a41.86,41.86,0,0,0,8.5-9.8,50.34,50.34,0,0,1-14.2,3.9,13.11,13.11,0,0,0,2.8-2,25.39,25.39,0,0,0,8.1-11.8l-3.1,1.7a40.79,40.79,0,0,1-13,4.3A25.16,25.16,0,0,0,83.42,0v.1Z"/></g></g></svg>