<svg xmlns="http://www.w3.org/2000/svg" viewBox="0 0 24.88 18"><defs><style>.cls-1{fill:#00a3ff;}.cls-2{fill:#00c8dc;}.cls-3{fill:#006eff;}</style></defs><title>资源 1</title><g id="图层_2" data-name="图层 2"><g id="图层_1-2" data-name="图层 1"><path class="cls-1" d="M21.54,14.7a3.52,3.52,0,0,1-2.6,1h-8.6l5-4.8a15.56,15.56,0,0,1,1.2-1.1,3.38,3.38,0,0,1,2.5-1,3.74,3.74,0,0,1,2.5,1,3.38,3.38,0,0,1,0,4.9m1.7-6.5a5.59,5.59,0,0,0-4.1-1.8,6.16,6.16,0,0,0-3.7,1.3,17.91,17.91,0,0,0-1.5,1.4l-9,8.8a8.6,8.6,0,0,0,1.6.1h10.9a12.12,12.12,0,0,0,2-.1,6.15,6.15,0,0,0,3.7-1.6A5.7,5.7,0,0,0,23.24,8.2Z"/><path class="cls-2" d="M9.24,7.6a5.71,5.71,0,0,0-3.5-1.2,5.59,5.59,0,0,0-4.1,1.8,5.83,5.83,0,0,0,.1,8.2,5.29,5.29,0,0,0,3.2,1.5l2.3-2.2H5.94a3.94,3.94,0,0,1-2.6-1,3.59,3.59,0,0,1-.1-5,3.32,3.32,0,0,1,2.5-1,3.19,3.19,0,0,1,2.4,1c.4.4,1.5,1.2,1.9,1.6h.1l1.5-1.5V9.7c-.7-.7-1.8-1.6-2.4-2.1"/><path class="cls-3" d="M19.74,5.1A7.73,7.73,0,0,0,4.84,6.5c.3,0,.6-.1,1-.1s.9.1,1.3.1h0a5.37,5.37,0,0,1,5.3-4.3,5.54,5.54,0,0,1,5,3.2s.1.1.1,0a16.6,16.6,0,0,1,2.2-.3h0"/></g></g></svg>