<svg xmlns="http://www.w3.org/2000/svg" viewBox="0 0 28.39 28.39"><defs><style>.cls-1{fill:#fff;}</style></defs><title>资源 11</title><g id="图层_2" data-name="图层 2"><g id="图层_1-2" data-name="图层 1"><path class="cls-1" d="M21.07,28.39H7.37l-.43,0L6,28.29a6.45,6.45,0,0,1-1.75-.39A6.21,6.21,0,0,1,.36,23.78,8.85,8.85,0,0,1,0,21.08c0-3.43,0-6.92,0-10.29V7.61a4.26,4.26,0,0,1,0-.5V6.87c0-.33.05-.68.09-1A6.12,6.12,0,0,1,.46,4.33a6.21,6.21,0,0,1,4.31-4A9.48,9.48,0,0,1,7.42,0H20.29l.9,0A11.86,11.86,0,0,1,23,.18a6.37,6.37,0,0,1,2.54,1A6.17,6.17,0,0,1,28,4.6a9.53,9.53,0,0,1,.34,2.06c0,.11,0,.21,0,.32V21.44c0,.13,0,.27,0,.4a8.21,8.21,0,0,1-.3,1.87,6.17,6.17,0,0,1-4,4.23,8.06,8.06,0,0,1-2.42.42l-.36,0Zm-13.7,0h0Zm.16-1.12H21.18l.35,0a7.6,7.6,0,0,0,2.11-.36A5,5,0,0,0,27,23.39a6.69,6.69,0,0,0,.26-1.62c0-.13,0-.26,0-.39v-.21a.28.28,0,0,0,0-.09v-14c0-.1,0-.21,0-.32a9.34,9.34,0,0,0-.3-1.82,5,5,0,0,0-2.09-2.8,5.16,5.16,0,0,0-2.08-.82,11.36,11.36,0,0,0-1.61-.14l-.87,0H7.42a8.39,8.39,0,0,0-2.33.27A5.07,5.07,0,0,0,1.52,4.72,5.4,5.4,0,0,0,1.24,6c0,.32-.06.66-.08,1l0,.24c0,.14,0,.28,0,.42v3.18c0,3.37,0,6.86,0,10.29a7.93,7.93,0,0,0,.3,2.36,5,5,0,0,0,3.21,3.4,5.8,5.8,0,0,0,1.44.33l.92.06.44,0Z"/><path class="cls-1" d="M20.53,12.16v6.45a2.92,2.92,0,0,1-.27,1.3,2.41,2.41,0,0,1-1.64,1.31,5.37,5.37,0,0,1-1.19.19,2.13,2.13,0,0,1-.91-4.09A5.76,5.76,0,0,1,17.73,17l1.13-.24a.74.74,0,0,0,.62-.75V9.77a1.07,1.07,0,0,0,0-.25.32.32,0,0,0-.38-.26l-.94.16-3.55.72-2.77.55-.13,0a.51.51,0,0,0-.41.53v9a3.64,3.64,0,0,1-.21,1.31A2.4,2.4,0,0,1,9.4,23.08a4.87,4.87,0,0,1-1.25.2,2.13,2.13,0,0,1-.85-4.11,5.65,5.65,0,0,1,1.2-.34l1.08-.23a.77.77,0,0,0,.64-.79V7.6a1.75,1.75,0,0,1,0-.4.73.73,0,0,1,.6-.65c.35-.09.7-.16,1.05-.23l3.64-.73,3.82-.77a2.65,2.65,0,0,1,.48-.07.56.56,0,0,1,.67.55c0,.11,0,.23,0,.34v6.52Z"/></g></g></svg>