<?xml version="1.0" encoding="utf-8"?>
<!-- Generator: Adobe Illustrator 23.0.6, SVG Export Plug-In . SVG Version: 6.00 Build 0)  -->
<svg version="1.1" id="图层_1" xmlns="http://www.w3.org/2000/svg" xmlns:xlink="http://www.w3.org/1999/xlink" x="0px" y="0px"
	 viewBox="0 0 200 200" style="enable-background:new 0 0 200 200;" xml:space="preserve">
<style type="text/css">
	.st0{fill:#2963E2;}
</style>
<g>
	<path class="st0" d="M77.1,69.9c2.1,1.8,5,2.8,7.5,2.5c2.8,0,5.3-1.4,7.5-3.2c2.5-2.1,4.3-5,5.7-8.2c2.5-6.1,2.5-13.5,0.4-19.9
		c-1.4-4.3-3.9-8.2-7.5-10.7c-2.1-1.4-5.3-2.1-8.2-1.8c-1.8,0.4-3.6,1.1-5.3,2.1c-3.2,2.1-5.3,5.7-6.8,9.3
		c-1.8,6.4-2.1,12.8-0.4,19.2C71.4,63.2,73.6,67.1,77.1,69.9L77.1,69.9z"/>
	<path class="st0" d="M112.7,70.3c2.5,2.1,5.7,3.6,8.9,3.6c2.8,0.4,5.3-0.4,7.8-1.8c2.5-1.4,4.6-3.6,6.1-6.1
		c1.8-2.8,3.2-5.7,4.3-8.9c0.7-2.5,1.1-5.3,0.7-8.2c-0.4-3.9-2.1-7.5-4.6-10.7c-1.8-2.1-3.9-4.3-6.4-5.3c-1.8-0.7-3.9-1.4-5.7-1.1
		c-2.5,0.4-4.6,1.8-6.4,3.2c-2.5,2.1-4.6,4.6-6.1,7.5c-1.4,2.5-2.8,5.3-3.2,8.5c-0.4,3.6-0.4,7.1,0.4,10.3
		C109.2,64.6,110.2,67.8,112.7,70.3L112.7,70.3z"/>
	<path class="st0" d="M63.2,99.5c2.5-2.1,3.9-5,5-7.8c1.4-4.6,1.4-9.3,1.1-13.9c0-1.8-0.7-3.6-1.4-5.3c-1.8-3.9-5-7.5-8.9-9.6
		c-3.2-1.4-6.4-2.1-9.3-1.4c-3.6,0.4-6.4,2.8-8.5,5.7c-2.8,3.9-4.3,8.9-5,13.5c-0.4,2.8,0,5.7,0.7,8.5c1.1,4.3,3.2,8.2,6.4,11
		c2.5,2.1,5.7,3.2,8.9,3.2C56.1,103.4,60,102.3,63.2,99.5L63.2,99.5z"/>
	<path class="st0" d="M165.8,88.8c-0.4-2.8-1.1-5.3-2.5-7.8c-1.4-2.8-3.9-5.7-6.8-7.1c-3.2-1.8-7.1-2.1-10.7-1.8
		c-1.8,0.4-3.9,0.7-5.7,1.8c-2.5,1.4-4.3,3.9-5.7,6.8c-1.4,3.6-2.1,7.5-2.1,11.4c0,3.6,0,7.5,1.1,11c0.7,2.5,2.1,5.3,4.6,6.8
		c2.5,2.1,5.7,2.8,8.9,3.2c2.5,0.4,5.3,0.4,7.8-0.4c2.5-0.7,5-2.1,6.4-4.3c1.8-2.1,2.8-5,3.2-7.5C166.2,96.6,165.8,92.7,165.8,88.8
		L165.8,88.8z"/>
</g>
<path class="st0" d="M155.8,142.6c-0.4-5-2.8-10-6.4-13.9c-0.7-0.7-1.4-1.4-2.5-2.1c-4.6-3.9-9.3-8.2-13.9-12.5
	c-4.6-4.6-8.9-9.6-12.8-15c-2.8-4.6-6.8-8.9-12.1-11.4c-3.2-1.4-7.1-2.1-10.7-1.8c-6.4,0.7-12.1,4.3-16,9.3
	c-1.1,1.1-1.8,2.5-2.5,3.9c-2.8,4.3-6.4,8.5-10.3,12.1c-2.1,2.1-4.3,3.9-6.4,5.7c-1.1,1.1-2.5,2.1-3.6,3.2c-4.3,3.2-8.5,7.5-11,12.1
	c-1.8,3.2-2.8,6.8-3.2,10.7c0,3.2,0.4,6.4,1.4,9.3c1.1,3.2,2.5,6.4,4.6,8.9c3.6,4.3,8.9,7.1,14.2,7.5c6.8,0.4,13.5,0,19.9-1.1
	c2.8-0.4,5.7-1.4,8.9-1.8c6.4-0.7,12.8-0.4,18.9,1.4c5,1.8,10.3,2.5,15.7,2.8c5.3,0.4,11-0.4,16-3.2c3.6-1.8,6.4-5,8.2-8.5
	C155.1,153.6,156.5,148.3,155.8,142.6z M86.9,143.1c0.8,0.4,1.2,1,1.2,1.9c0,1-0.3,1.8-1,2.4c-0.4,0.4-0.9,0.6-1.3,0.6
	c-0.5,0-0.9-0.1-1.4-0.4l-19.7-9.4c-1.3-0.7-2-1.5-2-2.6c0-0.6,0.2-1.1,0.5-1.8c0.2-0.4,0.8-0.8,1.8-1.4l18.5-9.7
	c1.1-0.6,1.8-0.8,2.3-0.8c0.6,0,1.1,0.3,1.6,0.9c0.6,0.7,0.8,1.4,0.8,2.2c0,1-0.6,1.7-1.9,2.3l-16.9,7.9L86.9,143.1z M107.4,119.8
	l-9.7,30.3c-0.4,1.3-1.2,1.9-2.4,1.9c-0.9,0-1.5-0.3-2-0.8c-0.4-0.4-0.5-0.9-0.5-1.4c0-0.2,0-0.5,0.1-0.7l9.6-30.7
	c0.3-1,1.1-1.5,2.4-1.5c0.9,0,1.6,0.3,2.1,0.9c0.4,0.4,0.6,0.9,0.6,1.5C107.5,119.4,107.5,119.6,107.4,119.8z M134.4,138.2
	l-19.7,9.4c-0.5,0.2-1,0.4-1.4,0.4c-0.6,0-1.1-0.3-1.5-0.8c-0.5-0.6-0.8-1.3-0.8-2.2c0-0.9,0.4-1.5,1.2-1.9l17.4-7.8l-16.9-7.9
	c-1.2-0.6-1.9-1.4-1.9-2.3c0-1,0.4-1.8,1.1-2.4c0.5-0.4,0.9-0.6,1.4-0.6c0.4,0,1.2,0.3,2.3,0.8l18.5,9.7c1.1,0.6,1.8,1.1,2,1.5
	c0.2,0.4,0.3,0.9,0.3,1.4C136.4,136.6,135.7,137.6,134.4,138.2z"/>
</svg>
