<?xml version="1.0" encoding="utf-8"?>
<!-- Generator: Adobe Illustrator 23.0.6, SVG Export Plug-In . SVG Version: 6.00 Build 0)  -->
<svg version="1.1" id="图层_1" xmlns="http://www.w3.org/2000/svg" xmlns:xlink="http://www.w3.org/1999/xlink" x="0px" y="0px"
	 viewBox="0 0 200 200" style="enable-background:new 0 0 200 200;" xml:space="preserve">
<style type="text/css">
	.st0{fill:#3BB8F5;}
	.st1{fill:#3CD6DD;}
	.st2{fill:#2F69EB;}
</style>
<g>
	<path class="st0" d="M89.4,120.8c0-9.1,0-18.2,0-27.3c0-0.2,0-0.4,0-0.5c0-14,0.1-27.9,0-41.9c0-6.4-2.9-11.6-8.2-15.2
		c-6.3-4.3-12.7-8.3-19-12.5C60,22,57.7,21.7,55.4,23c-2.3,1.3-3.3,3.4-3.3,6c0,21.1,0,42.3,0,63.4c0,0.4,0,0.8,0,1.2
		c0,0.1,0,0.2,0,0.3c0,15,0,30,0,44.9c0,1.4,0.3,2.7,0.6,4c0.9,2.3,1.9,4.5,3.4,6.4c2.9,3.6,6.6,5.9,11.1,6.7c5,0.9,9.7,0,13.9-2.9
		c2.3-1.6,4.9-2.8,7.3-4.2c0.3-0.2,0.8-0.3,0.9-0.7C89.5,139,89.5,129.9,89.4,120.8z"/>
	<path class="st1" d="M137.1,119.9c0-0.4-0.4-0.4-0.6-0.5c-5.7-2-11.5-3.9-17.2-5.9c-3.4-1.2-5.9-3.4-7.2-6.9
		c-3.6-9.2-7.2-18.4-10.8-27.6c-0.9-2.3-0.4-4.8,1.5-6.6c1.8-1.7,4.4-2.1,6.6-1c7,3.5,13.9,7.1,20.8,10.7c1.9,1,3.8,1.9,5.7,2.9
		c3.4,1.7,6.4,4,9.2,6.6c5.3,5,9.1,10.8,11.2,17.7c4.1,13.6,2.1,26.2-6.1,37.8c-0.1,0.2-0.3,0.4-0.5,0.5c0-0.2,0.1-0.4,0.1-0.6
		c1.6-3.7,2.6-7.4,1.9-11.4c-0.7-3.8-2-7.1-4.6-10c-2-2.3-4.6-3.7-7.3-5C139,120.2,138.1,119.7,137.1,119.9z"/>
	<path class="st2" d="M151.7,135.6c-0.7-3.8-2-7.1-4.6-10c-2-2.3-4.6-3.7-7.3-5c-0.9-0.4-1.8-0.8-2.8-0.6c-5.1,3-10.1,6-15.2,9
		c-2.4,1.4-4.8,2.9-7.1,4.3c-3.2,1.8-6.3,3.7-9.5,5.5c-5.3,3.1-10.5,6.2-15.8,9.3c-0.2,0.4-0.6,0.5-0.9,0.7c-2.4,1.4-5,2.7-7.3,4.2
		c-4.3,2.9-8.9,3.8-13.9,2.9c-4.5-0.8-8.2-3.1-11.1-6.7c-1.5-1.9-2.5-4.1-3.4-6.4c0.3,2.7,1,5.3,2,7.8c2.5,6.8,6.5,12.5,12,17.2
		c7.2,6.2,15.6,9.6,25.1,10.1c5,0.3,9.9-0.3,14.6-2c4.3-1.5,8.3-3.7,12.1-6.2c3-1.8,5.9-3.5,8.9-5.4c5.5-3.4,11.1-6.7,16.3-10.6
		c2.3-1.7,4.3-3.6,5.7-6c0.1-0.1,0.1-0.1,0.2-0.2c0,0,0,0,0,0c0-0.2,0.1-0.4,0.1-0.6C151.4,143.4,152.4,139.7,151.7,135.6z"/>
	<path class="st0" d="M149.4,147.9c0.1-0.1,0.1-0.1,0.2-0.2C149.6,147.8,149.6,147.9,149.4,147.9z"/>
</g>
</svg>
