<?xml version="1.0" encoding="utf-8"?>
<!-- Generator: Adobe Illustrator 23.0.6, SVG Export Plug-In . SVG Version: 6.00 Build 0)  -->
<svg version="1.1" id="图层_1" xmlns="http://www.w3.org/2000/svg" xmlns:xlink="http://www.w3.org/1999/xlink" x="0px" y="0px"
	 viewBox="0 0 200 200" style="enable-background:new 0 0 200 200;" xml:space="preserve">
<style type="text/css">
	.st0{fill:#FFFFFF;}
</style>
<path class="st0" d="M118.1,19.6c4.3-1.3,9-1.2,13.4-0.2c5,1.2,9.8,3.5,13.9,6.7c1.5,1.1,2.9,2.6,3.5,4.3c1.1,2.6,0.8,5.8-0.8,8.2
	c-1.4,2.1-3.7,3.6-6.2,3.9c-2,0.3-4.1-0.2-5.8-1.2c-1-0.6-1.7-1.5-2.7-2c-2.6-1.7-5.6-3-8.8-2.9c-2.2,0-4.2,1.3-5.7,2.9
	c-1.4,1.5-2.1,3.6-1.7,5.6c1.1,4.1,2.2,8.2,3.2,12.2c7.8,0.4,15.5,2.5,22.2,6.5c6.5,4,12.4,9.1,17,15.2c3.9,5.1,6.9,11,8.8,17.3
	c2,6.7,2.6,13.8,2.1,20.7c-0.4,5.7-1.6,11.5-3.5,16.9c-5,13.2-14.4,24.8-26.4,32.3c-8.8,5.6-18.9,8.9-29.3,10.2
	c-7.1,0.9-14.4,0.9-21.5-0.3c-14.6-2.4-28.2-9.7-38.6-20.2c-10.3-10.3-17.5-23.7-20.4-38c-2.1-10.4-2-21.3,0.3-31.7
	c2.9-12.8,9.3-24.8,18.3-34.3c7.3-7.8,16.4-14,26.4-18c1-0.4,2-0.9,3.1-1c2.3-0.4,4.8,0.1,6.7,1.6c2.6,1.8,4,5.1,3.6,8.3
	c-0.4,3.2-2.6,6.1-5.7,7.2c-10.1,3.8-19,10.5-25.4,19.1c-5.7,7.6-9.5,16.8-10.7,26.2c-1.3,9.4-0.1,19.1,3.2,27.9
	c4.9,12.9,14.5,24.1,26.8,30.4c7.4,3.8,15.8,5.8,24.1,5.8c6.9-0.1,13.8-1.2,20.2-3.6c5.7-2.1,11-5.2,15.5-9.3
	c4.2-3.7,7.7-8.2,10.4-13.2c1.3-2.5,2.6-5.1,3.3-7.9c2.2-7.9,2.6-16.5,0.2-24.4c-2-6.6-6-12.6-11.2-17.1c-2.3-2-4.8-3.9-7.4-5.4
	c-2.3-1.3-4.9-2.2-7.5-2.8c1.8,7.1,3.7,14.1,5.6,21.1c0.3,1.7,0.6,3.4,0.9,5.1c0.3,7.3-2.3,14.6-7,20.2c-4.4,5.2-10.6,8.9-17.3,10.2
	c-7.2,1.4-15,0.1-21.2-3.9c-5.9-3.8-10.3-9.7-12.6-16.3c-1.3-3.7-2-7.6-2.1-11.5c-0.4-8.5,1.8-17.2,6.7-24.2
	c5.7-8.4,14.7-14.2,24.4-17c-0.7-2.7-1.4-5.4-2.2-8.2c-1.9-5.9-1.5-12.5,1.3-18c1.5-3.1,3.7-5.8,6.3-8
	C111.1,22.6,114.4,20.7,118.1,19.6 M95,83.6c-2.6,2.7-4.4,6.2-5.2,9.8c-0.7,3.3-0.7,6.8-0.1,10.2c0.8,3.7,2.7,7.3,5.8,9.5
	c2.5,1.7,5.6,2.3,8.6,1.7c5.4-1,9.8-5.9,10-11.5c-0.2-1.4-0.4-2.7-0.8-4.1c-2-7.7-4.1-15.3-6.1-23C102.7,77.7,98.3,80.1,95,83.6
	L95,83.6z"/>
</svg>
