<?xml version="1.0" encoding="utf-8"?>
<!-- Generator: Adobe Illustrator 23.0.6, SVG Export Plug-In . SVG Version: 6.00 Build 0)  -->
<svg version="1.1" id="图层_1" xmlns="http://www.w3.org/2000/svg" xmlns:xlink="http://www.w3.org/1999/xlink" x="0px" y="0px"
	 viewBox="0 0 200 200" style="enable-background:new 0 0 200 200;" xml:space="preserve">
<style type="text/css">
	.st0{fill:#1296DB;}
</style>
<path class="st0" d="M159.6,40.1c-33.1-33.1-86.7-33.1-119.7,0s-33.1,86.7,0,119.7s86.7,33.1,119.7,0S192.7,73.2,159.6,40.1z
	 M77.7,138.1c-3.2,3.3-8.4,3.5-11.7,0.3c-3.3-3.2-3.5-8.4-0.3-11.7c0.1-0.1,0.2-0.2,0.3-0.3c3.3-3.2,8.6-3,11.7,0.3
	C80.8,129.9,80.8,134.9,77.7,138.1z M114,138.4c-0.6,3.7-4.2,6.2-7.9,5.6c-3.6-0.6-6.1-4-5.6-7.6h0c0,0,0,0,0,0.1v-0.1
	c0.1-0.5,0.4-3.7-0.5-7.9c-1.2-6-4.2-11.5-8.6-15.7c-4.3-4.3-9.7-7.3-15.7-8.5c-2.5-0.5-5-0.7-7.5-0.5c-3.7,0.8-7.3-1.5-8.1-5.2
	c-0.5-2.3,0.2-4.7,1.9-6.3c1-1,2.3-1.7,3.7-1.9v0C66.5,90,85.3,87.2,101,103C116.7,118.7,114.1,137.6,114,138.4L114,138.4z
	 M144.9,139.7c-0.6,3.7-4.1,6.3-7.8,5.7c-1.4-0.2-2.7-0.9-3.8-1.9c-1.6-1.5-2.4-3.8-2.1-5.9c0-0.1,0.9-6.6-0.9-15.7
	c-2.3-11.9-8-22.4-16.7-31.2c-8.8-8.8-19.3-14.4-31.2-16.7C73.3,72.1,66.8,73,66.7,73h0h0c-3.8,0.5-7.2-2.1-7.9-5.8
	c-0.6-3.7,2-7.2,5.7-7.8c0.3-0.1,8.4-1.3,19.6,0.8c6.5,1.2,12.8,3.3,18.7,6.2c7.5,3.7,14.3,8.6,20.2,14.5l0.2,0.2l0.2,0.2
	c5.9,5.9,10.8,12.7,14.5,20.2c2.9,5.9,5,12.2,6.2,18.7C146.2,131.3,145,139.4,144.9,139.7z"/>
</svg>
