<?xml version="1.0" encoding="utf-8"?>
<!-- Generator: Adobe Illustrator 23.0.6, SVG Export Plug-In . SVG Version: 6.00 Build 0)  -->
<svg version="1.1" id="图层_1" xmlns="http://www.w3.org/2000/svg" xmlns:xlink="http://www.w3.org/1999/xlink" x="0px" y="0px"
	 viewBox="0 0 200 200" style="enable-background:new 0 0 200 200;" xml:space="preserve">
<style type="text/css">
	.st0{fill:#271C19;}
	.st1{fill:#FFFFFF;}
	.st2{fill:#FCFDFD;}
</style>
<title>cnki</title>
<path class="st0" d="M17.2,91L17,90.9l0.1-0.1L17.2,91L17.2,91z"/>
<g>
	<g>
		<path class="st1" d="M90.8,145.7c-0.5,4.9-0.8,9.4-1.4,13.8c0,2.5-2,4.6-4.5,4.6c-0.8,0-1.7-0.2-2.4-0.6c-1.5-0.8-3-1.7-4.4-2.8
			c-0.7-0.4-1.6-1.1-2.3-1c-2.6,0.4-5.3,1-7.8,1.8c-1.9,0.6-2.4-0.5-2.7-1.7c-0.7-2.9-1.2-6-1.7-8.9c-1.1-5.9-0.9-11.9,0.4-17.7
			c0.2-0.9,1.2-1.6,1.9-2.3c0.7-0.6,1.4-1.3,2-2c2.4-3.5,5.1-6.5,9.8-6.6c5.9-0.3,11,4,11.6,9.8C90.2,136.7,90.4,141.4,90.8,145.7z
			 M68.8,159.2c2.6-0.8,4.8-1.6,7.1-2.2c1.7-0.5,3-0.3,3.1,2c0,0.5,0.3,1.2,0.7,1.4c1.9,0.9,3.9,1.5,6,1.6c0.8,0,1.4-3,2-4.6
			c0-0.2,0-0.3,0-0.5c0-5.8,0.3-11.6-0.1-17.4c-0.3-4.1-1.3-8.1-2.8-12c-1.3-3.3-5-4.9-8.3-3.6c-0.6,0.2-1.2,0.6-1.7,1
			c-2.5,1.9-4.5,4.2-6,7c-3,5.6-2.4,12-2,17.9c0.2,0.6,0.5,1.2,0.9,1.8l7.7-6l-0.4-0.7l-5.6,2.3c0.1-1.8,0.8-3.4,0.2-4.3
			c-1.8-2.8-0.2-4,1.8-5.3c1-0.7,1.9-1.5,2.9-2.1c1-0.6,1.2-1.5,0.6-2.6c-0.5-1.1-1-2.2-1.4-3.4c0.8-0.1,1.2,0,1.3,0.2
			c1.4,1.8,1.2,4.7,3.9,5.7c0.1,0.4,0.1,0.7-0.1,1.1c-1.6,2.9,0.8,4.8,1.5,7.1h0.7v-5.6h0.7c0.2,2.9,0.5,5.8,1.2,8.7
			c1,2.7,2.2,5.3,3.7,7.8l-0.7,0.5l-4.5-6.2c-1.1,5.5-1.3,6-3.1,6.9l1.6-5l-12,3.9C68.1,155.9,68.4,157.3,68.8,159.2z M70.5,150.8
			l0.5,0.6c2.9-1.2,5.8-2.4,8.6-3.7c0.3-0.1,0.4-1.3,0.2-2c-0.2-0.7-1.1-0.6-1.5-0.5C75.3,146.4,72.6,148.4,70.5,150.8z M76.5,138
			l-0.7-0.4c-1.4,0.9-2.9,1.7-4.3,2.8c-1.3,1-1,2.1,0.3,3.6L76.5,138z M78.4,141.8l-1.4-2.7l-2.4,3.6L78.4,141.8z"/>
		<path class="st1" d="M35.8,169.2c-0.5-1.1-0.8-2.3-1-3.5c-0.1-6.2,0-12.4,0-18.6c0-0.6,0.3-1.4,0-1.6c-2.2-1.9-1.4-3.6-0.6-6
			c0.8-2.4,0.2-5.4,0.2-8.4l-7.5,3.8c1.2,1.1,2.2,1.9,3.2,2.8c1,0.9,1.8,2.4,0.6,3.5c-1,0.5-2.1,0.5-3,0c-1.4-0.9-2.7-2-3.8-3.1
			c-0.7-0.6-1.4-1.1-2-1.7c-0.6-0.7-1.2-1.5-1.8-2.3c1.3-0.8,2.8-2.6,3.7-2.3c2.2,0.4,4.5-0.2,6.2-1.6c5.2-3.2,5.5-4.3,3.9-10.3
			c-0.1-1.1,0.3-2.3,1.2-3c1.1-0.7,3.6,1.3,3.8,2.9c0,0.9-0.1,1.9-0.3,2.8c0,0.9-0.1,1.8-0.2,2.7c3.2-0.6,6.4-1,9.6-1.2
			c1.5,0.2,2.9,0.9,3.8,2.2c1.7,2.3,1.1,3.2-1.7,3.9c-0.9,0.3-1.8,0.7-2.5,1.3c-2.2,1.8-4.3,3.7-6.6,5.7c1.1,0.8,2,1.4,2.8,2.1
			c0.8,0.7,1.5,1.5,1.4,2c-0.4,0.9-1.1,1.7-2,2.1c-4.5,1.8-4.9,2.7-4.6,7.6c0.2,5,0,10-0.1,15c-0.3,1.3-0.7,2.5-1.4,3.6L35.8,169.2z
			 M46.4,127.1c-1.5-0.7-6.8,0.6-7.6,1.5c-1,2-1,4.3,0,6.3L46.4,127.1z"/>
		<path class="st1" d="M112,136.6c1.2-0.7,2.5-1.3,3.8-1.8c1-0.2,2-0.2,3-0.1c0,1.3-0.3,2.5-0.7,3.7c-0.6,0.9-2,1.3-2.8,2.1
			c-0.8,0.9-1.4,1.8-2.1,2.7c0.5,0.5,0.6,0.6,0.7,0.7l3.3,1.7c-1,0.6-2,1.3-2.9,2c-0.8,0.7-1.4,1.5-1.9,2.5c-0.5,2.1-1.2,4.2-2,6.3
			c-1,1.6-2.4,2.9-4,3.9c-1.4,1-2.7,0.5-3.6-1.4c4-2,7-4.6,7.6-9.8l-2.8,1.3l-2.8,1.3c-1.2,0.6-2.4,1-3.1-0.7
			c-0.7-1.3-0.1-2.9,1.1-3.5c0.2-0.1,0.4-0.2,0.7-0.2c2.9-0.8,5.4-2.5,7.4-4.7c-1.5-0.4-2.5-0.7-3.5-1c-2-0.6-2.5-1.6-1.4-3.3
			c2.2-2.9,3.4-6.4,3.5-10c0-0.5,0.8-1.5,1.2-1.5c1.2,0,2.4,0.4,3.4,1c0.6,0.7,0.8,1.7,0.6,2.7c-0.5,1.1-1.1,2.1-1.8,3.1
			c-0.5,0.8-0.9,1.7-1.4,2.6L112,136.6z"/>
		<path class="st1" d="M148.4,138.6c1.6,0.7,3.2,1.6,4.7,2.6c0.6,0.5,1.2,2.2,0.8,2.7c-1.7,2.7,0.3,4.4,1.3,6.9l2.4-3.6
			c-2.3,5.2-3.1,11.1-8,15c-2-1.1-1.5-2.7-0.8-4.1c0.9-2,2.1-3.8,2.9-5.8c0.5-1.4,1.6-3.4-1.5-3.5c-0.4,0-0.9-1.7-0.9-2.6
			c-0.1-0.9,0.6-1.5,0.7-2.2c0.2-1.2-0.1-2-1.5-1.5c-0.8,0.4-1.6,0.7-2.4,0.9c-1.1,0-2.2-0.3-3.2-1c-0.5-0.8-0.6-1.8-0.3-2.7
			c1.6-3.6,3.5-7.1,5.2-10.7c0.4-0.9,0.7-1.8,0.9-2.7c0.6-2.2,1.6-2.9,3.6-2c1.4,0.6,2.6,1.5,3.6,2.6c1.4,1.7,0.8,3.2-0.8,4.7
			C152.6,133.9,150.4,136.5,148.4,138.6z"/>
		<path class="st1" d="M172.5,156.9l5.1,2.1c0-3,0-5.6,0-8.3c0-6.4,0-12.9,0.2-19.3c0-3.1-0.4-4-3.5-4c-1.9,0.1-3.8,0.4-5.6,0.8
			c2.7-2.1,6.3-2.5,9.5-1.2c2,0.8,3,3,2.6,5c-0.6,4.6-0.8,9.3-0.8,14c0.1,4.7,0.9,9.4,1.3,14.1c-0.1,0.9-0.6,1.8-1.3,2.3
			c-0.6,0.3-1.4,0.3-2,0c-1.7-2-3.2-4.1-4.7-6.1L172.5,156.9z"/>
		<path class="st1" d="M119.9,141.9c0.8-0.1,1.7-0.3,2.5-0.5c2.7-1,5.3-2.2,8-3.1c0.9-0.1,1.8,0.2,2.4,0.9c0.4,1,0.5,2,0.2,3.1
			c-0.3,1-1.4,1.8-1.8,2.8c-0.3,1.2-0.5,2.4-0.6,3.6l0.9,0.5c-0.8,0.6-1.6,1.1-2.5,1.5c-1.5,0.6-3.2,0.9-4.7,1.4
			c-1.1,0.6-2.5,0.3-3.1-0.8c-0.1-0.2-0.2-0.4-0.3-0.7c-1.3-2.8-1.8-6-1.6-9.1L119.9,141.9z M123.7,148.5c3.3-0.6,5-2.8,5.4-6.9
			c-2.2,0-4.7,0-5.8,2C122.7,144.7,123.5,146.8,123.7,148.5z"/>
		<path class="st1" d="M170.5,132.1c0.8,0.2,1.9,0.1,2.2,0.6c0.5,0.7,0.6,1.6,0.3,2.5c-1.3,1.8-2.6,3.4-4.1,5l3.1,1.3
			c-1,0.7-1.6,1.3-2.3,1.7c-2.1,1.3-2.2,2.1-0.4,3.8c0.7,0.6,1.2,1.3,2,2.1l-1.6,0.7c-0.4,0.2-0.8,0.3-1.7,0.6
			c1.4,1,2.5,1.7,3.5,2.5c0.4,0.3,0.5,1.1,0.7,1.6c-0.6,0.2-1.3,0.7-1.9,0.6c-2.7-0.3-3.5-2.4-3.7-4.7c-0.2-2,0-4,0-6.1
			c-0.7,0.4-1.4,0.7-2.2,0.8c-0.7,0-1.5-0.1-2.2-0.3c0.3-0.8,0.5-1.9,1.1-2.4c0.8-0.5,1.7-1,2.7-1.2l-1.3-5.3l0.7-0.4l3,2.9
			c2.6-2,3.1-3.3,1.8-5.5L170.5,132.1z"/>
		<path class="st1" d="M163.2,134.7c-2.4,6.1-2.2,12.2-1.9,18.4c0,0.6,0.6,1.2,0.5,1.8c-0.2,0.8-0.5,1.6-0.9,2.3
			c-0.5-0.5-1.5-1.1-1.6-1.6c-0.1-4.4-0.1-8.9,0-13.3c0-1.5,0.4-3,1-4.4C161.2,136.8,162.2,135.7,163.2,134.7z"/>
		<path class="st1" d="M113.5,152c1.5,0.8,3,1.7,4.3,2.8c0.9,0.7,1,1.9,0.4,2.8c-0.2,0.3-0.5,0.5-0.9,0.7c-1.5,1-2.2,0-2.8-1.1
			c-0.7-1.4-1.3-2.8-1.9-4.2L113.5,152z"/>
		<path class="st1" d="M77.1,131.1c1.3-0.9,2.4-2.2,3.5-2.2c0.8,0,1.8,1.6,2.4,2.6c0.3,0.5-0.3,1.6-0.7,2.3
			c-0.1,0.2-1.3-0.1-1.8-0.4C79.4,132.8,78.5,132.1,77.1,131.1z"/>
	</g>
	<g>
		<path class="st1" d="M87.2,56.9h11.9l0.3,2.4c6.7-4.4,13.9-4.3,21.2-3c7.3,1.3,11.1,5.6,11.4,12.7c0.4,11.7,0.1,23.4,0.1,35.2
			h-12.8v-2.1c0-7.9,0-15.7,0-23.6c0-2.3-0.2-4.6-0.5-6.9c-0.3-3.3-3-6-6.3-6.2c-2.1-0.2-4.3-0.2-6.4,0c-3.5,0.5-5.2,2.1-5.6,5.7
			c-0.2,1.4-0.3,2.9-0.3,4.4c0,8.7,0,17.5,0,26.3v2.4h-13V56.9z"/>
		<path class="st1" d="M78.2,92.3c-4.6,10-16.4,17.4-30.2,16.9c-15.4-0.6-26.7-8.5-30.8-22c-4-13.1,0.5-29.3,10-36.1
			c0,0.2,0,0.4,0,0.6c-6.5,10.8-6.6,22-2.1,33.3c5.9,14.5,22.6,21.3,38.3,16c4.7-1.7,9.2-4.1,13-7.3L78.2,92.3z"/>
		<path class="st1" d="M164.7,56.2l-18.5,21.7l20.1,26.6c-4.5,0-8.7,0-12.8,0c-0.5,0-1-0.7-1.3-1.2c-5.3-7.3-10.6-14.7-15.8-22
			c-1.2-1.7-1.2-3.9,0.1-5.5c4.9-6.1,9.7-12.2,14.7-18.2c0.7-0.8,1.7-1.3,2.7-1.4C157.3,56.1,160.8,56.2,164.7,56.2z"/>
		<path class="st1" d="M184.2,104.8h-12V75.1h12V104.8z"/>
		<path class="st1" d="M29.1,54.9C34.3,45,42.5,38.8,53.6,38c10-0.7,18.3,3.7,24.6,11.8l-4.2,4C58.7,41,45.1,41.4,29.1,54.9z"/>
		<path class="st1" d="M183.9,61.9c0.2,3.6-2.5,6.6-6.1,6.8c-3.6-0.1-6.5-3.1-6.6-6.7c-0.1-3.6,2.7-6.6,6.2-6.7
			c3.4-0.2,6.3,2.5,6.4,5.9C183.9,61.4,183.9,61.7,183.9,61.9z"/>
		<path class="st1" d="M76.3,74.8c-0.1,13-10.7,23.5-23.8,23.4c-13-0.1-23.5-10.7-23.4-23.8C29.1,61.5,39.7,51,52.7,51
			c13,0,23.6,10.5,23.6,23.5C76.3,74.6,76.3,74.7,76.3,74.8z M70.5,68c0.1,0,0.3,0.3,0.3,0l-0.3,0.1c-0.1-0.1,0.2-0.3-0.1-0.3
			L70.5,68z M69.9,66.6c0,0.1-0.3,0.3,0,0.4l-0.1-0.3l-0.5-0.4L69,65.9c-0.1,0-0.2-0.4-0.3,0H69c-0.1,0.4,0,0.5,0.4,0.4
			C69.4,66.7,69.7,66.7,69.9,66.6z M67.9,65.3c1.6-1,0.6-3.6,3-4c-7.6-10.9-24.1-12.4-33.8-3.1c-2.4,2.1-4.2,4.8-5.2,7.9
			c-0.2,0.7-0.9,1.3,0.7,1.6c1.5,0.3,1.8,2.2,0.9,3.5c-0.6,0.9-1.6,1.6-1.2,2.9c0.9,2.2,2.1,4.1,3.7,5.8c0-1.5,0.1-2.4,1.5-2.6
			c0.5,0,1-0.7,1.3-1.1c1.3-1.6,3.1-1.5,3.8,0.5c0.6,1.1,0.7,2.5,0.2,3.7c1.1-0.8,1.9-1,2.3-2.3c0.4-1.3,1.7-2,3-1.7
			c0.9,0.2,2.2,1.6,2.1,2.1c-0.4,1.6,0.7,2,1.5,2.9c-0.1-2.1,1.6-3.8,3.7-3.9c0.2,0,0.3,0,0.5,0c-0.7-0.7-1.2-1.7-2.5-1
			c-0.4,0.2-0.9-0.2-0.9-0.5c-0.3-2.1-2.2-2.1-3.6-2.7s-1.1-2.2-0.9-3.4c0-0.7,1.2-0.5,1.7-1.2c0.7-1,1.4-1.4,2.2,0.2
			c0.7,1.1,2.1,1.4,3.2,0.7c0.4-0.2,0.6-0.6,0.8-0.9c1.1-2.2,1.7-2.3,3.8-0.7c0.4,0.3,0.6,1.1,1.4,0.9c1.2-1.1,1.8-2.6,1.6-4.2
			c-0.9-1.4-0.3-2.3,1.3-2.5c1.1-0.1,2.2-0.4,3.2-0.8c0.6-0.2,1.2-0.9,1.7-0.3c0.5,0.6-0.3,1-0.7,1.5C67.3,63.4,66.2,64.3,67.9,65.3
			z M55.7,97.2c2.4-0.4,4.7-1.1,7-2.1c0.6-0.2,1.1-0.5,1.6-0.9c0.6-0.5,0.8-1.4,0.2-1.9c-0.3-0.3-0.6-2.1-1.7-0.5
			c-0.4,0.6-1.1,0.1-1.3-0.5c-0.4-1.2-1-1-1.9-0.4c-1.3,0.9-2.7,1.7-4.1,2.5s0,2.2-0.8,3.2C54.2,97.1,55.2,97.1,55.7,97.2L55.7,97.2
			z M50.7,86.2c1.4,1.1,2.8,0.5,4.1,0.6L50.7,86.2z M64.4,81.9c-0.4-1.4,0.1-3-0.8-4.3C63.5,79,63.8,80.5,64.4,81.9L64.4,81.9z"/>
		<path class="st0" d="M77.3,92.6c0.1-0.1,0.3-0.3,0.3-0.3s0,0.4,0,0.6L77.3,92.6z"/>
		<path class="st2" d="M50.7,86.2l4.1,0.6C53.5,86.6,52.1,87.3,50.7,86.2z"/>
		<path class="st2" d="M64.3,81.9c-0.5-1.4-0.8-2.8-0.8-4.3C64.5,78.9,63.9,80.5,64.3,81.9z"/>
		<path class="st2" d="M69.1,65.9h-0.3C68.8,65.5,69,65.9,69.1,65.9L69.1,65.9z"/>
		<path class="st2" d="M69.5,66.3c-0.4,0.1-0.5,0-0.4-0.4l0,0L69.5,66.3z"/>
		<path class="st2" d="M69.4,66.3l0.5,0.4l0,0C69.6,66.7,69.3,66.7,69.4,66.3z"/>
		<path class="st2" d="M69.9,66.7L70,67c-0.4,0-0.1-0.2,0-0.4L69.9,66.7z"/>
		<path class="st2" d="M70.5,68l-0.1-0.3C70.7,67.7,70.4,68,70.5,68L70.5,68z"/>
		<path class="st2" d="M70.5,68.1l0.3-0.1c0,0.4-0.2,0-0.3,0L70.5,68.1z"/>
	</g>
</g>
</svg>
