<?xml version="1.0" encoding="utf-8"?>
<!-- Generator: Adobe Illustrator 24.3.0, SVG Export Plug-In . SVG Version: 6.00 Build 0)  -->
<svg version="1.1" id="图层_1" xmlns="http://www.w3.org/2000/svg" xmlns:xlink="http://www.w3.org/1999/xlink" x="0px" y="0px"
	 viewBox="0 0 200 200" style="enable-background:new 0 0 200 200;" xml:space="preserve">
<style type="text/css">
	.st0{fill:#FFFFFF;}
</style>
<path class="st0" d="M127.3,145.2h25.7c2.2,0,3.9,1.8,3.9,3.9c0,0,0,0,0,0v3.9c0,2.2-1.8,3.9-3.9,3.9c0,0,0,0,0,0H46.9
	c-2.2,0-3.9-1.8-3.9-3.9v-3.9c0-2.2,1.8-3.9,3.9-3.9c0,0,0,0,0,0h23.8l-6.1-19.7h13.9c1.7,0,3.2,1.1,3.7,2.7l5.6,17h22.3l7.8-25.6
	H56.8c-2.2,0-3.9-1.8-3.9-3.9V70.5c0-2.2,1.8-3.9,3.9-3.9h0h86.5c2.2,0,3.9,1.8,3.9,3.9v45.2c0,2.2-1.8,3.9-3.9,3.9h-8.2
	L127.3,145.2L127.3,145.2z M48.9,43h102.2c2.2,0,3.9,1.8,3.9,3.9v3.9c0,2.2-1.8,3.9-3.9,3.9c0,0,0,0,0,0H48.9
	c-2.2,0-3.9-1.8-3.9-3.9l0,0v-3.9C45,44.8,46.7,43,48.9,43L48.9,43z M69.5,78.4c-0.5,0-1,0.4-1,1c0,0,0,0,0,0v25.6c0,0.5,0.4,1,1,1
	h60.9c0.5,0,1-0.4,1-1V79.4c0-0.5-0.4-1-1-1c0,0,0,0,0,0L69.5,78.4L69.5,78.4z"/>
</svg>
