<?xml version="1.0" standalone="no"?><!DOCTYPE svg PUBLIC "-//W3C//DTD SVG 1.1//EN" "http://www.w3.org/Graphics/SVG/1.1/DTD/svg11.dtd"><svg class="icon" width="200px" height="200.00px" viewBox="0 0 1024 1024" version="1.1" xmlns="http://www.w3.org/2000/svg"><path fill="#e6e6e6" d="M696.064 816.554667h173.44a26.453333 26.453333 0 0 1 26.496 26.453333v26.496a26.453333 26.453333 0 0 1-26.453333 26.496H154.453333a26.453333 26.453333 0 0 1-26.453333-26.453333v-26.496a26.453333 26.453333 0 0 1 26.453333-26.496h160.170667l-40.96-132.437334h93.44a26.453333 26.453333 0 0 1 25.173333 18.133334l38.058667 114.304H580.266667l52.266666-172.16H220.672a26.453333 26.453333 0 0 1-26.453333-26.453334V313.386667a26.453333 26.453333 0 0 1 26.453333-26.453334h582.656a26.453333 26.453333 0 0 1 26.453333 26.453334v304.554666a26.453333 26.453333 0 0 1-26.453333 26.453334h-54.997333l-52.266667 172.16zM167.722667 128h688.554666a26.453333 26.453333 0 0 1 26.453334 26.453333v26.496a26.453333 26.453333 0 0 1-26.453334 26.496H167.722667a26.453333 26.453333 0 0 1-26.453334-26.453333V154.453333A26.453333 26.453333 0 0 1 167.68 128zM306.773333 366.336a6.613333 6.613333 0 0 0-6.656 6.613333v172.16c0 3.669333 2.986667 6.613333 6.656 6.613334h410.453334c3.669333 0 6.656-2.986667 6.656-6.613334V372.906667a6.613333 6.613333 0 0 0-6.656-6.613334H306.773333z" /></svg>