<?xml version="1.0" standalone="no"?><!DOCTYPE svg PUBLIC "-//W3C//DTD SVG 1.1//EN" "http://www.w3.org/Graphics/SVG/1.1/DTD/svg11.dtd"><svg class="icon" width="200px" height="189.63px" viewBox="0 0 1080 1024" version="1.1" xmlns="http://www.w3.org/2000/svg"><path d="M418.791811 62.004409c86.274016-23.382677 179.643465-24.834016 264.949921 3.467087 8.466142 2.015748 16.690394 4.757165 24.672756 8.062992 13.787717 4.354016 28.059213 8.062992 40.153701 16.287244 108.689134 47.491024 197.059528 140.215433 241.889764 250.033386 44.023937 102.4 49.990551 220.764724 16.367874 327.115591-41.20189 138.119055-148.923465 254.145512-283.172284 306.47433-182.707402 74.098898-408.229291 21.689449-536.834015-128.524094-50.635591-57.327874-88.773543-126.266457-105.786457-201.091024-24.350236-94.014488-20.07685-197.301417 16.448504-287.687559 5.885984-19.673701 15.319685-37.976693 24.511496-56.199055C182.788031 184.64252 292.686614 95.788346 418.791811 62.004409m69.180472 24.511497c-115.623307 14.997165-224.312441 77.969134-294.299212 171.257952-73.211969 95.062677-104.173858 220.845354-84.661417 339.129449 18.786772 121.912441 92.16 233.504252 195.446929 300.507717 87.886614 57.972913 197.059528 82.24252 301.314015 67.971023 120.944882-15.561575 234.149291-84.097008 303.652284-184.40063 68.696693-96.433386 95.223937-221.087244 72.970079-337.19433-23.382677-129.249764-108.608504-244.953701-223.909292-307.28063-81.83937-44.991496-178.111496-62.246299-270.513386-49.990551z" fill="#DE5833" /><path d="M416.937323 134.571339c113.285039-37.976693 242.857323-23.463307 344.531653 39.428031 101.029291 60.95622 173.031811 167.307087 191.818583 283.817323 15.400315 91.75685-0.806299 188.754646-47.007244 269.707087-54.828346 98.449134-151.745512 173.112441-261.724724 198.914015-7.579213-14.755276-14.916535-29.671811-21.20567-45.072126-3.789606-1.128819-11.449449-3.467087-15.319685-4.595905l2.257638-10.32063c31.284409 13.223307 63.536378 24.753386 97.562205 28.301102 9.191811-44.507717 7.095433-90.708661-5.644095-134.410079-30.23622 9.191811-56.360315 27.172283-82.08126 44.830237-12.497638-2.015748-24.914646-3.950866-37.412283-5.160315-19.754331-52.651339-39.266772-108.285984-30.55874-165.452599 77.888504 35.315906 172.306142 60.633701 252.291023 16.609764 9.675591-7.176063 32.816378-17.657953 20.80252-32.171338-16.448504-6.127874-33.864567 1.128819-50.313071 3.547716-47.410394 11.126929-98.045984 20.96378-145.940157 7.176063-16.771024-4.354016-37.815433-20.96378-27.333544-40.314961 5.482835-19.99622 28.704252-13.626457 43.782048-13.545826 51.2 7.498583 98.368504-17.657953 145.375748-33.622678 26.769134-11.852598 58.698583-19.593071 77.082204-44.023937-1.612598-19.673701-29.833071-20.31874-45.314015-22.173228-46.442835 7.498583-90.063622 27.252913-136.425827 35.799685 8.546772-73.776378-17.093543-149.407244-64.745827-205.606299-18.383622-23.140787-48.297323-28.220472-72.970079-40.79874-53.618898-52.651339-135.619528-74.098898-208.347716-56.118425 14.029606 5.402205 28.059213 10.885039 42.088819 16.448504-8.546772 2.741417-25.559685 8.224252-34.025827 10.965669-3.789606 6.208504-7.579213 12.497638-11.368819 18.706142 40.55685-1.693228 81.67811-0.806299 120.944882 10.885039-37.009134 8.869291-78.856063 16.287244-104.415748 47.491024-40.234331 42.491969-41.846929 105.867087-33.138898 160.372913 28.059213 147.552756 62.407559 293.976693 90.144252 441.529449-101.99685-36.202835-188.915906-112.96252-235.35874-211.008504-50.87748-104.738268-54.022047-231.165984-8.546772-338.40378 45.152756-108.366614 138.844724-195.285669 250.517166-231.730393z" fill="#d81e06" /><path d="M487.972283 86.515906c92.40189-12.255748 188.674016 4.999055 270.513386 49.990551 115.300787 62.326929 200.526614 178.030866 223.909292 307.28063 22.253858 116.107087-4.273386 240.760945-72.970079 337.19433-69.502992 100.303622-182.707402 168.839055-303.652284 184.40063-104.254488 14.271496-213.427402-9.99811-301.314015-67.971023-103.286929-67.003465-176.660157-178.595276-195.446929-300.507717-19.512441-118.284094 11.449449-244.066772 84.661417-339.129449 69.986772-93.288819 178.675906-156.260787 294.299212-171.257952m-71.03496 48.055433c-111.672441 36.444724-205.364409 123.36378-250.517166 231.730393C120.944882 473.539528 124.089449 599.967244 174.966929 704.705512c46.442835 98.045984 133.36189 174.805669 235.35874 211.008504-27.736693-147.552756-62.085039-293.976693-90.144252-441.529449-8.708031-54.505827-7.095433-117.880945 33.138898-160.372913 25.559685-31.20378 67.406614-38.621732 104.415748-47.491024-39.266772-11.691339-80.388031-12.578268-120.944882-10.885039 3.789606-6.208504 7.579213-12.497638 11.368819-18.706142 8.466142-2.741417 25.479055-8.224252 34.025827-10.965669-14.029606-5.563465-28.059213-11.046299-42.088819-16.448504 72.728189-17.980472 154.728819 3.467087 208.347716 56.118425 24.672756 12.578268 54.586457 17.657953 72.970079 40.79874 47.652283 56.199055 73.292598 131.829921 64.745827 205.606299-21.286299 5.240945-43.137008 7.740472-64.987717 9.030551-37.654173 0.806299-74.824567 21.125039-96.352756 51.84504-5.402205 23.947087 9.353071 47.249134 27.333544 61.843149-8.708031 57.166614 10.804409 112.80126 30.55874 165.452599-14.352126 1.531969-27.897953 6.772913-41.52441 11.288189-31.04252-13.303937-61.68189-31.445669-96.433385-31.526299-1.209449 46.442835-1.693228 93.611339 9.75622 138.925354 29.026772-2.177008 54.102677-18.383622 79.420473-31.20378 24.592126 3.708976 49.990551 3.386457 73.292598-6.611653l0.806299-4.112126c3.870236 1.128819 11.530079 3.467087 15.319685 4.595905 6.289134 15.400315 13.626457 30.31685 21.20567 45.072126 109.979213-25.801575 206.896378-100.464882 261.724724-198.914015 46.200945-80.952441 62.407559-177.950236 47.007244-269.707087-18.786772-116.510236-90.789291-222.861102-191.818583-283.817323-101.674331-62.891339-231.246614-77.404724-344.531653-39.428031m167.710236 232.617322c20.23811-9.191811 42.169449-7.901732 63.617008-4.918425-19.270551-18.302992-47.249134-15.722835-63.617008 4.918425m-215.604409 32.332599c13.626457-26.930394 42.653228-34.509606 70.712441-33.864567-28.139843-13.062047-70.873701-3.467087-70.712441 33.864567m238.342047 54.102677c17.899843 21.931339 53.296378 14.835906 55.554016-15.884094-7.579213-0.645039-22.737638-2.015748-30.316851-2.741418l29.913701-5.482834c-12.094488-6.369764-26.204724-20.80252-40.71811-11.12693-13.545827 6.289134-13.465197 22.576378-14.432756 35.235276m-185.206929-23.302047c-18.222362 4.192756-29.026772 27.897953-18.222362 43.862677 9.433701 18.222362 37.734803 20.64126 49.748661 3.628346 17.496693-21.125039-4.515276-56.521575-31.526299-47.491023z" fill="#ffffff" /><path d="M438.223622 442.900157c11.530079-2.660787 15.077795 1.531969 10.64315 12.497638-11.530079 2.580157-15.077795-1.531969-10.64315-12.497638z" fill="#FFFFFF" /><path d="M584.647559 367.188661c16.367874-20.64126 44.346457-23.221417 63.617008-4.918425-21.447559-2.983307-43.378898-4.273386-63.617008 4.918425zM369.04315 399.52126c-0.16126-37.331654 42.572598-46.926614 70.712441-33.864567-28.059213-0.645039-57.085984 6.934173-70.712441 33.864567zM607.385197 453.623937c0.967559-12.658898 0.886929-28.946142 14.432756-35.235276 14.513386-9.675591 28.623622 4.757165 40.71811 11.12693l-29.913701 5.482834c7.579213 0.725669 22.737638 2.096378 30.316851 2.741418-2.257638 30.72-37.654173 37.815433-55.554016 15.884094zM422.178268 430.32189c27.011024-9.030551 49.022992 26.365984 31.526299 47.491023-12.013858 17.012913-40.314961 14.594016-49.748661-3.628346-10.804409-15.964724 0-39.669921 18.222362-43.862677m16.045354 12.578267c-4.434646 10.965669-0.886929 15.077795 10.64315 12.497638 4.434646-10.965669 0.886929-15.158425-10.64315-12.497638z" fill="#2E4F8E" /><path d="M686.16063 511.83874c46.362205-8.546772 89.982992-28.301102 136.425827-35.799685 15.480945 1.854488 43.701417 2.499528 45.314015 22.173228-18.383622 24.430866-50.313071 32.171339-77.082204 44.023937-47.007244 15.964724-94.175748 41.12126-145.375748 33.622678-15.077795-0.08063-38.299213-6.450394-43.782048 13.545826-10.48189 19.351181 10.56252 35.960945 27.333544 40.314961 47.894173 13.787717 98.529764 3.950866 145.940157-7.176063 16.448504-2.418898 33.864567-9.675591 50.313071-3.547716 12.013858 14.513386-11.126929 24.995276-20.80252 32.171338-79.984882 44.023937-174.40252 18.706142-252.291023-16.609764-17.980472-14.594016-32.735748-37.896063-27.333544-61.843149 21.528189-30.72 58.698583-51.03874 96.352756-51.84504 21.850709-1.290079 43.701417-3.789606 64.987717-9.030551z" fill="#FDD20A" /><path d="M620.124724 805.170394c25.720945-17.657953 51.845039-35.638425 82.08126-44.830237 12.739528 43.701417 14.835906 89.902362 5.644095 134.410079-34.025827-3.547717-66.277795-15.077795-97.562205-28.301102l-2.257638 10.32063-0.806299 4.112126c-23.302047 9.99811-48.700472 10.32063-73.292598 6.611653-25.317795 12.820157-50.393701 29.026772-79.420473 31.20378-11.449449-45.314016-10.965669-92.48252-9.75622-138.925354 34.751496 0.08063 65.390866 18.222362 96.433385 31.526299 13.626457-4.515276 27.172283-9.75622 41.52441-11.288189 12.497638 1.209449 24.914646 3.144567 37.412283 5.160315z" fill="#65BC46" /></svg>