<?xml version="1.0" standalone="no"?><!DOCTYPE svg PUBLIC "-//W3C//DTD SVG 1.1//EN" "http://www.w3.org/Graphics/SVG/1.1/DTD/svg11.dtd"><svg class="icon" width="200px" height="200.00px" viewBox="0 0 1024 1024" version="1.1" xmlns="http://www.w3.org/2000/svg"><path fill="#e6e6e6" d="M497.322667 42.666667s-22.656 25.002667-22.656 62.677333c0 40.490667 29.354667 62.677333 29.354666 62.677333s21.333333-13.866667 21.333334-62.72c0-41.472-28.032-62.634667-28.032-62.634666z m241.322666 24.021333s-35.84 9.301333-59.989333 43.946667c-26.026667 37.376-14.677333 76.032-14.677333 76.032s28.672 0.981333 60.032-43.989334c26.666667-38.186667 14.634667-75.989333 14.634666-75.989333z m-432 33.28s-5.802667 26.709333 9.386667 53.333333a69.376 69.376 0 0 0 45.312 33.365334s10.325333-18.688-9.344-53.333334c-16.64-29.482667-45.354667-33.322667-45.354667-33.322666z m522.666667 106.666667a82.176 82.176 0 0 0-35.968 14.72c-27.178667 19.498667-28.032 49.322667-28.032 49.322666s20.693333 8.832 53.333333-14.677333c27.861333-20.010667 28.032-49.322667 28.032-49.322667s-7.168-1.365333-17.365333 0zM512 213.333333c-164.693333 0-298.666667 133.973333-298.666667 298.666667s133.973333 298.666667 298.666667 298.666667 298.666667-133.973333 298.666667-298.666667-133.973333-298.666667-298.666667-298.666667z m-334.677333 24.021334s2.858667 27.136 25.344 48c24.149333 22.485333 53.333333 17.322667 53.333333 17.322666s3.84-20.992-25.344-48c-24.832-23.04-53.333333-17.365333-53.333333-17.365333zM512 256c141.653333 0 256 114.346667 256 256s-114.346667 256-256 256-256-114.346667-256-256 114.346667-256 256-256z m0 42.666667a207.36 207.36 0 0 0-82.688 17.322666c8.021333 4.181333 25.514667 5.333333 30.72 5.333334 5.461333 0 11.946667 2.986667 11.946667 8.021333 0 12.8-22.997333 21.973333-34.645334 22.656-12.8 0.682667-20.650667 10.666667-30.677333 10.666667-7.168 0-9.344-5.674667-9.344-11.989334 0-6.357333 5.376-11.989333 5.376-14.677333 0-1.152-2.346667-2.688-4.010667-4.010667-13.525333 8.533333-26.197333 18.176-37.333333 29.354667 1.322667 2.304 9.344 14.677333 9.344 20.010667 0 5.973333-5.376 9.301333-8.021333 9.301333-4.010667 0-4.992-2.645333-9.344-2.645333-4.010667 0-9.472 7.808-20.010667 9.344a212.48 212.48 0 0 0-30.634667 86.613333c3.968 2.048 11.648 5.845333 18.645334 10.666667 9.514667 6.698667 15.36 25.045333 22.698666 29.354666 7.296 4.352 26.624 13.184 27.989334 20.010667 1.322667 6.826667-7.68 14.506667-9.344 22.656-1.706667 8.192-2.346667 13.013333-6.656 16-4.352 2.986667-9.685333 5.674667-13.354667 9.344-2.645333 2.688-10.837333 15.018667-16 21.333333C362.837333 679.68 431.189333 725.333333 512 725.333333a212.181333 212.181333 0 0 0 201.344-145.322666 33.877333 33.877333 0 0 1-4.010667-11.989334c0-4.864 5.333333-12.373333 5.333334-21.333333 0-9.002667-8.832-29.354667-24.021334-29.354667-19.968 0-18.133333 29.354667-26.666666 29.354667-13.824 0-12.330667-49.365333-30.634667-49.365333-6.656 0-14.165333 9.813333-21.333333 16-5.973333 5.162667-20.010667 5.333333-20.010667 22.656 0 14.677333-29.354667 18.176-29.354667 49.365333 0 9.344-12.330667 21.333333-18.645333 27.989333-6.186667 6.656-15.018667 30.677333-36.010667 30.677334-11.648 0-22.656-23.04-22.656-46.677334 0-13.824 5.333333-17.664 5.333334-32s-6.997333-40.021333-34.688-40.021333c-14.293333 0-27.989333-7.808-27.989334-38.656 0-29.312 32-29.312 32-57.344 0-7.466667 17.322667-14.976 17.322667-18.645333 0-3.669333-6.656-11.989333-6.656-16 0-4.010667 6.656-8.021333 10.666667-8.021334s13.824 9.386667 17.322666 9.386667c3.541333 0 4.864-10.666667 6.698667-17.365333 1.834667-6.656 25.813333-18.688 36.010667-18.688 10.154667 0 36.309333 13.354667 50.645333 13.354666 14.336 0 56.832-6.656 72.021333-6.656 1.152 1.152 3.84 1.152 5.290667 2.645334A211.541333 211.541333 0 0 0 512 298.666667z m-13.354667 130.688c-4.992 0-5.290667 0.810667-5.290666 3.968 0 0 14.506667 20.693333 25.301333 25.344 9.685333 4.181333 13.184 2.346667 17.322667 2.688 4.181333 0.298667 6.186667 2.645333 12.032 2.645333 5.973333 0 7.978667-2.005333 7.978666-4.010667s-2.645333-6.656-9.344-6.656c-6.826667 0-13.141333-7.168-19.968-9.344-6.826667-2.133333-23.04-14.677333-27.989333-14.677333z m76.032 170.666666c1.664-0.170667 2.816 0 4.010667 1.28a5.12 5.12 0 0 1 1.28 4.053334 28.330667 28.330667 0 0 1-5.290667 15.957333c-1.493333 2.005333-4.181333 4.181333-6.656 4.010667-2.005333-0.170667-3.2-2.133333-4.010666-4.010667-0.853333-1.792-1.706667-3.328-1.322667-5.290667 0.981333-6.698667 6.485333-15.530667 11.946667-16.042666zM768 723.968s-4.181333 19.968 25.344 46.634667c25.173333 22.698667 53.333333 17.365333 53.333333 17.365333s-2.688-27.52-25.344-48c-24.490667-22.186667-53.333333-16-53.333333-16z m-489.344 19.968a84.48 84.48 0 0 0-37.333333 14.677333C213.333333 778.325333 213.333333 808.021333 213.333333 808.021333s27.52 4.309333 52.010667-14.677333c26.026667-20.352 29.312-49.365333 29.312-49.365333s-6.314667-1.28-16 0zM404.053333 810.666667s-29.013333-1.493333-61.354666 42.666666c-27.477333 37.674667-14.677333 77.354667-14.677334 77.354667s34.858667-8.874667 60.032-44.032c26.453333-36.992 16-75.989333 16-75.989333z m302.677334 33.322666s-10.197333 18.688 9.301333 53.333334c16.64 29.525333 45.354667 33.365333 45.354667 33.365333s5.802667-26.666667-9.344-53.333333c-16.341333-28.672-45.354667-33.365333-45.354667-33.365334z m-173.354667 1.365334s-25.344 19.328-29.354667 67.968A90.922667 90.922667 0 0 0 528.042667 981.333333s28.16-23.68 30.677333-65.322666c3.157333-51.328-25.344-70.698667-25.344-70.698667z"  /></svg>