<?xml version="1.0" encoding="utf-8"?>
<!-- Generator: Adobe Illustrator 24.3.0, SVG Export Plug-In . SVG Version: 6.00 Build 0)  -->
<svg version="1.1" id="图层_1" xmlns="http://www.w3.org/2000/svg" xmlns:xlink="http://www.w3.org/1999/xlink" x="0px" y="0px"
	 viewBox="0 0 200 200" style="enable-background:new 0 0 200 200;" xml:space="preserve">
<style type="text/css">
	.st0{fill:#FBBC05;}
	.st1{fill:#EA4335;}
	.st2{fill:#34A853;}
	.st3{fill:#4285F4;}
</style>
<path class="st0" d="M59.6,100c0-4.4,0.7-8.6,2.1-12.5L38.5,70.2c-4.6,9.2-7.1,19.4-7,29.8c0,10.7,2.5,20.8,7,29.8l23.1-17.3
	C60.3,108.4,59.6,104.2,59.6,100"/>
<path class="st1" d="M100.2,60.3c9.7,0,18.4,3.4,25.3,8.9l20-19.6c-12.2-10.4-27.8-16.8-45.3-16.8C73,32.8,49.7,48,38.5,70.2
	l23.1,17.3C67,71.7,82.2,60.3,100.2,60.3"/>
<path class="st2" d="M100.2,139.7c-18,0-33.2-11.4-38.6-27.2l-23.1,17.3c11.2,22.2,34.5,37.4,61.7,37.4c16.8,0,32.8-5.8,44.8-16.8
	l-22-16.6C116.8,137.7,109,139.7,100.2,139.7"/>
<path class="st3" d="M165.8,100c0-4-0.6-8.2-1.6-12.2h-64.1v26h36.9c-1.8,8.9-6.9,15.7-14,20.1l22,16.6
	C157.6,139,165.8,121.9,165.8,100"/>
</svg>
