<?xml version="1.0" encoding="utf-8"?>
<!-- Generator: Adobe Illustrator 23.0.6, SVG Export Plug-In . SVG Version: 6.00 Build 0)  -->
<svg version="1.1" id="图层_1" xmlns="http://www.w3.org/2000/svg" xmlns:xlink="http://www.w3.org/1999/xlink" x="0px" y="0px"
	 viewBox="0 0 163.9 163.9" style="enable-background:new 0 0 163.9 163.9;" xml:space="preserve">
<style type="text/css">
	.st0{fill:#EFEEEE;}
	.st1{fill:#282526;}
	.st2{fill:#444243;}
</style>
<g>
	<path class="st0" d="M137.6,76.9c0.2,0.5-0.2,0.7-0.4,0.9c-2.9,3.8-6.4,6.9-10.1,9.7c-7.7,6-16.6,9.5-26.2,11.2
		c-2.4,0.4-4.8,0-7.2-0.3c-1.8-0.2-3.5-0.4-5.3-0.8c-0.3-0.1-0.7-0.3-1,0c0,0-0.1,0.1-0.1,0.1c-0.2-1.3-1.3-0.7-1.9-0.9
		c-5.5-1.3-10.6-3.7-15.5-6.4c-6.4-3.5-12.6-7.4-17.9-12.5c-4.1-3.9-7.7-8.3-9.9-13.6c-0.4-1.1-0.8-2.2-1-3.3
		c-0.1-0.8-0.4-1.3-1.3-1.5c0.2,1.8,0.3,3.7,0.1,5.5c-0.6,7.4-4.1,12.6-11.2,15.1c-2.3,0.8-4.6,1.9-7.2,2.2
		c-3.4,0.3-7.6-3.3-6.1-7.4c0.5-1.3,0.9-2.6,1.5-3.9c0.8-1.6,1.7-3,2.8-4.4c2.8-3.4,4.7-7.2,6.3-11.3c0.9-2.3,1.9-4.5,2.9-6.9
		c1.1-2.6,3.4-3.1,5.7-2.4c1.1,0.4,2.2,1,3.1,1.7c1.7,1.5,3.7,2.6,5.6,3.9c0.3,0.2,0.6,0.3,0.9-0.1c3.6-3.9,8.2-6.6,13-8.7
		c9.5-4.2,19.6-7,29.8-8.7c8.4-1.4,16.8-1.7,25.3-1.3c0.2,0,0.3,0,0.5,0c0.5,0,0.9,0,1.4,0.1c0.3,0.1,0.7,0.1,1,0.1
		c0.2,0,0.4,0,0.6,0.1c1.2,0.1,2.4,0.2,3.6,0.4c0.2,0,0.4,0,0.6,0.1c0.4,0.1,0.8,0.1,1.2,0.1c0.1,0,0.3,0,0.4,0.1
		c0.2,0.1,0.5,0.2,0.8,0.1c0.3,0.1,0.6,0.1,0.8,0.1c2,0.4,4,0.8,6,1.3c5.4,1.3,10.6,3.1,15.1,6.7c3.6,2.9,4.9,6.5,4.2,11.1
		c-1,6.2-3.2,12-6.3,17.4c-0.4,0.7-1.1,1-1.5,1.6c-0.4,0.1-0.8,0.2-1.2,0.4c-2.1,1-4.3,1.6-6.5,2c-8.6,1.4-17,0.8-25.2-2
		c-7.7-2.6-13.9-7.5-18.8-14c-0.5-0.7-1.4-0.9-2-0.5c-0.5,0.4-0.8,1.7-0.4,2.3c1.5,2.1,3.3,4.2,5.1,6c6.6,6.4,14.6,9.8,23.5,11.4
		c5.6,1,11.3,1,17,0.2C133.9,78,135.8,77.5,137.6,76.9L137.6,76.9z M130.8,46.8c1.7,0.1,3.4,0.4,5.1,0.2c2.2-0.2,4.3-0.5,6.2-1.9
		c1.2-0.9,1.4-2.2,0.4-3.4c-0.4-0.4-0.8-0.8-1.3-1.1c-1.9-1.1-3.9-1.8-6-2.1c-2.2-0.3-4.4-0.4-6.6-0.2c-1.8,0.2-3.5,0.4-5,1.3
		c-1.2,0.7-2.2,1.6-2.2,2.9c0,1.4,1.3,2.1,2.5,2.7C126.1,46.4,128.5,46.6,130.8,46.8L130.8,46.8z M86.8,46.7
		c-0.2,1.8,1.4,3.6,3.3,3.9c1.7,0.2,4-1.5,4.2-3c0.2-1.7-1.5-3.6-3.3-3.8C88.8,43.6,87,44.8,86.8,46.7z"/>
	<path class="st0" d="M72.2,109.3c0.3,1,0.7,2,1.3,2.8c1.9,2.6,4.8,2.1,6.8,1c0.2-0.1,0.4-0.4,0.5-0.7c2.4-4.1,4.9-8.2,7.3-12.3
		c0.4-0.7,0.7-0.8,1.5-0.7c3.3,0.6,6.5,1.1,9.8,0.7c1.6-0.2,3.1-0.5,4.7-1.4v1.6c-0.1,9.8-0.2,19.7-0.2,29.6c0,0.9-0.3,1.1-1.1,1
		c-2.1-0.2-2-0.2-2.6-2.2c-0.6-2.3-0.9-4.7-1.7-6.9c-0.5-1.2-1-2.3-1.9-3.2c-1.2-1.2-2-1.2-3.2,0c-0.9,0.9-1.4,2-2,3.1
		c-1.2,2.6-1.8,5.4-2.7,8.2c-0.2,0.6-0.4,1-1.1,0.9c-0.8,0-1.9,0.5-2.4,0c-0.5-0.5-0.1-1.5,0-2.3c0.2-3.1,0.4-6.3,0.2-9.5
		c-1,0.3-1.8,1-2.6,1.6c-3,2.5-5.4,5.4-8.2,8.1c-0.5,0.4-0.9,0.8-1.3,1.3c-0.6,0.8-1.4,0.8-2.3,0.9c-0.8,0.1-1-0.2-0.5-0.9
		c1.5-2.5,2.9-5,4.4-7.5c0.8-1.4,1.5-2.8,2.4-4.1c0.4-0.7,0.1-0.8-0.4-1c-1-0.2-1.9-0.7-2.7-1.4C72.2,114.6,71.3,111.5,72.2,109.3
		L72.2,109.3z"/>
	<path class="st1" d="M137.6,76.9c-1.8,0.5-3.7,1.1-5.6,1.4c-5.7,0.8-11.3,0.8-17-0.2c-8.9-1.6-16.9-5-23.5-11.4
		c-1.9-1.8-3.6-3.8-5.1-6c-0.4-0.6-0.2-2,0.4-2.3c0.6-0.4,1.5-0.1,2,0.5c4.9,6.5,11,11.4,18.8,14c8.2,2.8,16.7,3.4,25.2,2
		c2.3-0.4,4.4-1,6.5-2c0.4-0.2,0.8-0.3,1.2-0.4c0.2,1.1-0.8,1.6-1.1,2.4c-0.2,0.7-0.9,1.2-1.3,1.8c-0.1,0-0.2,0-0.2,0.2l0,0
		C137.7,76.8,137.6,76.8,137.6,76.9L137.6,76.9z M114.1,33.3c-0.5,0-0.9,0-1.4-0.1C113.2,32.8,113.6,33,114.1,33.3z M123,34.3
		c-0.3-0.1-0.6-0.1-0.8-0.1C122.5,33.9,122.8,34,123,34.3z M115.6,33.5c-0.2,0-0.4,0-0.6-0.1C115.3,33.2,115.5,33.2,115.6,33.5z
		 M119.8,33.9c-0.2,0-0.4,0-0.6-0.1C119.4,33.6,119.6,33.6,119.8,33.9z M121.4,34.1c-0.1,0-0.3,0-0.4-0.1
		C121.1,33.8,121.3,33.9,121.4,34.1z"/>
	<path class="st0" d="M137.8,76.8c0-0.1,0.1-0.2,0.2-0.2C138,76.7,138,76.9,137.8,76.8z"/>
	<path class="st0" d="M137.6,77c0-0.2,0.1-0.2,0.2-0.2C137.8,76.9,137.9,77.2,137.6,77z"/>
	<path class="st1" d="M130.8,46.8c-2.3-0.2-4.7-0.4-6.9-1.4c-1.2-0.6-2.5-1.3-2.5-2.7c0-1.4,1.1-2.3,2.2-2.9c1.5-0.8,3.2-1.1,5-1.3
		c2.2-0.2,4.4-0.1,6.6,0.2c2.1,0.3,4.1,1.1,6,2.1c0.5,0.3,0.9,0.7,1.3,1.1c0.9,1.1,0.8,2.5-0.4,3.4c-1.8,1.3-4,1.7-6.2,1.9
		C134.2,47.3,132.6,46.9,130.8,46.8L130.8,46.8z"/>
	<path class="st2" d="M86.8,46.7c0.2-1.9,1.9-3.2,4.1-3c1.8,0.2,3.5,2.1,3.3,3.8c-0.2,1.5-2.5,3.2-4.2,3
		C88.2,50.4,86.6,48.5,86.8,46.7z"/>
</g>
</svg>
