<?xml version="1.0" encoding="utf-8"?>
<!-- Generator: Adobe Illustrator 23.0.6, SVG Export Plug-In . SVG Version: 6.00 Build 0)  -->
<svg version="1.1" id="Layer_2" xmlns="http://www.w3.org/2000/svg" xmlns:xlink="http://www.w3.org/1999/xlink" x="0px" y="0px"
	 viewBox="0 0 200 200" style="enable-background:new 0 0 200 200;" xml:space="preserve">
<style type="text/css">
	.st0{clip-path:url(#SVGID_2_);}
	.st1{fill:url(#SVGID_5_);}
	.st2{enable-background:new    ;}
	.st3{clip-path:url(#SVGID_7_);}
	.st4{fill:url(#SVGID_10_);}
</style>
<g>
	<g>
		<defs>
			<path id="SVGID_1_" d="M65.8,90.6C72.6,80.1,84.1,71.6,92.1,69c10.6-3.5,22.2-39.6,36.5-42.4v80.2l-30,8.2L65.8,90.6z"/>
		</defs>
		<clipPath id="SVGID_2_">
			<use xlink:href="#SVGID_1_"  style="overflow:visible;"/>
		</clipPath>
		<g class="st0">
			<g>
				<defs>
					<rect id="SVGID_3_" x="60.8" y="21.6" width="72.8" height="98.3"/>
				</defs>
				<clipPath id="SVGID_4_">
					<use xlink:href="#SVGID_3_"  style="overflow:visible;"/>
				</clipPath>
				<g style="clip-path:url(#SVGID_4_);">
					
						<image style="overflow:visible;" width="152" height="206" xlink:href="60C5DF79.jpg"  transform="matrix(0.48 0 0 0.48 60.6663 21.4863)">
					</image>
				</g>
			</g>
		</g>
	</g>
</g>
<linearGradient id="SVGID_5_" gradientUnits="userSpaceOnUse" x1="20.3284" y1="111.6056" x2="98.5891" y2="111.6056">
	<stop  offset="0" style="stop-color:#51A4DA"/>
	<stop  offset="1" style="stop-color:#4595D1"/>
</linearGradient>
<polygon class="st1" points="20.3,109.2 66.5,90.6 98.6,115 53.1,132.6 "/>
<g class="st2">
	<g>
		<defs>
			<path id="SVGID_6_" d="M179.7,149.7c-12.5-8.3-27-43.1-60.6-0.5c-4.7,6-11.2,19.4-31,24.2c-10.1-24-16.2-48.5-36.6-40.3
				c70.5-26.9,60.6-190,103.4-50.6C163.9,109.7,172.6,132.1,179.7,149.7z"/>
		</defs>
		<clipPath id="SVGID_7_">
			<use xlink:href="#SVGID_6_"  style="overflow:visible;"/>
		</clipPath>
		<g class="st3">
			<g>
				<defs>
					<rect id="SVGID_8_" x="46.4" y="21.8" width="138.2" height="156.6"/>
				</defs>
				<clipPath id="SVGID_9_">
					<use xlink:href="#SVGID_8_"  style="overflow:visible;"/>
				</clipPath>
				<g style="clip-path:url(#SVGID_9_);">
					
						<image style="overflow:visible;" width="289" height="327" xlink:href="60C5DF78.jpg"  transform="matrix(0.48 0 0 0.48 46.2663 21.4863)">
					</image>
				</g>
			</g>
		</g>
	</g>
</g>
<linearGradient id="SVGID_10_" gradientUnits="userSpaceOnUse" x1="90.9744" y1="46.9386" x2="90.9744" y2="46.9386">
	<stop  offset="0" style="stop-color:#51A4DA"/>
	<stop  offset="1" style="stop-color:#4595D1"/>
</linearGradient>
<path class="st4" d="M91,46.9"/>
</svg>
