<?xml version="1.0" encoding="utf-8"?>
<!-- Generator: Adobe Illustrator 23.0.6, SVG Export Plug-In . SVG Version: 6.00 Build 0)  -->
<svg version="1.1" id="图层_1" xmlns="http://www.w3.org/2000/svg" xmlns:xlink="http://www.w3.org/1999/xlink" x="0px" y="0px"
	 viewBox="0 0 200 200" style="enable-background:new 0 0 200 200;" xml:space="preserve">
<path d="M178.5,87.9c0-3.1-0.5-6.3-0.5-9.4c0-1.6-0.5-3.1-1.6-4.2c-1-1.6-2.6-2.6-4.7-3.1c-3.7-1.6-7.3-3.1-10.5-4.2
	c-5.2-1.6-9.9-3.7-14.7-6.3c-3.1-1.6-5.2-5.2-5.8-8.9c-0.5-4.2-2.6-7.9-6.3-9.9c-4.2-2.1-8.4-2.6-13.1-1.6c-3.1,0.5-6.8,0.5-9.9,0
	l-4.7-1.6l-1.6-0.5l-3.7-1c-6.8-2.1-9.9-3.1-20.9-1c-12,2.6-22.5,8.4-31.4,16.7L21.5,82.7h25.1L31.4,98.9h26.2l-15.2,16.2h20.9
	L56.6,133c26.2,26.7,53.9,31.9,53.9,31.9c0-7.3,1.6-36.1,3.7-40.8c0.5-2.6,2.1-4.7,3.1-6.8c3.7-4.2,8.9-6.8,14.7-6.8
	c5.8,0,11.5,1,16.7,3.1c3.1,1.6,6.8,1,9.9-0.5c2.1-1.6,4.2-2.6,6.8-4.2c0.5-0.5,1.6-1,2.6-1c2.6,0.5,4.7-1,5.8-3.1
	c0.5-1.6,1.6-2.6,2.1-4.2C178,96.8,178.5,92.7,178.5,87.9L178.5,87.9z"/>
</svg>
