<?xml version="1.0" standalone="no"?><!DOCTYPE svg PUBLIC "-//W3C//DTD SVG 1.1//EN" "http://www.w3.org/Graphics/SVG/1.1/DTD/svg11.dtd"><svg t="1619702391258" class="icon" viewBox="0 0 1024 1024" version="1.1" xmlns="http://www.w3.org/2000/svg" p-id="3644" xmlns:xlink="http://www.w3.org/1999/xlink" width="200" height="200"><defs><style type="text/css"></style></defs><path d="M511.917 974.485c254.557 0 460.917-206.36 460.917-460.917 0-154.19-75.713-290.698-191.99-374.372 0.84-6.385-8.409-89.628-17.592-91.17-9.184-1.541-24.73 64.745-24.73 65.573C671.118 74.995 595.16 52.65 511.917 52.65 257.36 52.651 51 259.011 51 513.568c0 254.557 206.36 460.917 460.917 460.917z" fill="#F5C700" p-id="3645"></path><path d="M512.145 331.866l182.767 316.562-0.141 0.082c21.81 28.297 34.501 62.17 34.501 98.573 0 99.184-94.207 179.588-210.418 179.588-116.211 0-210.419-80.404-210.419-179.588s94.208-179.588 210.419-179.588c17.39 0 34.288 1.8 50.45 5.195L348.288 189.876a24.591 24.591 0 0 1-7.48-17.692c0-13.622 11.043-24.665 24.665-24.665 1.643 0 3.25 0.161 4.803 0.468l36.528 1.421 0.164 0.285c146.34-1.57 275.53-41.296 355.51-101.693h0.775c-22.845 99.129-115.795 207.081-251.107 283.866z" fill="#0DBC71" p-id="3646"></path></svg>