<?xml version="1.0" encoding="utf-8"?>
<!-- Generator: Adobe Illustrator 24.3.0, SVG Export Plug-In . SVG Version: 6.00 Build 0)  -->
<svg version="1.1" id="图层_1" xmlns="http://www.w3.org/2000/svg" xmlns:xlink="http://www.w3.org/1999/xlink" x="0px" y="0px"
	 viewBox="0 0 200 153.8" style="enable-background:new 0 0 200 153.8;" xml:space="preserve">
<style type="text/css">
	.st0{fill:#FFFFFF;}
</style>
<path class="st0" d="M41.3,51.5l-8.1,12.7l15.2,9.5c0,0,10.1,5.2,5.3,14.9S27,118,27,118l19.9,12.2c13.7-29.8,12.8-25.8,16.2-36.5
	c3.4-10.7,4.3-19.3-1.7-25.3c-6.1-6.4-12.9-12.1-20.3-17L41.3,51.5z M92.4,35.3c1.7-2.9,3.3-5.9,4.7-9l-18.3-5
	c0,0-7.3,24.1-20.6,35.4c0,0,12.8,7.4,12.6,7.2c3.5-3.5,6.8-7.2,9.8-11c2.9-1.3,5.8-2.5,8.5-3.6c-4,7.5-8.8,14.6-14.3,21l7.7,6.8
	c0,0,5.3-5.1,11-11.1h6.4v11.3H74.5v9h25.5v21.6h-0.8c-2.8,0-7.2-0.6-8.9-3.3s-0.6-9.4-0.5-13.1H72.1l-0.6,0.3c0,0-6.4,29,18.7,28.4
	c23.5,0.6,37-6.6,43.4-11.5l2.6,9.6l14.5-6l-9.8-24.1L129,91.6l2.2,8.1c-3.1,2.3-6.6,4-10.3,5.2V86.1h25v-9h-25V65.8h25.1v-9h-44.6
	c2.7-2.9,4.9-6.2,6.5-9.7l-7.9-2c33.3-12.2,51.8-10,51.7,9.5v51.5c0,0,2,17.7-18.3,16.4l-10.9-2.4l-2.4,10.4
	c0,0,47.3,13.5,51.2-22.9c2.5-19.8,2.2-39.8-1-59.5c0,0-4.4-33.6-77.9-12.8V35.3z M52.2,46.7c7.2,0,13-5.9,12.9-13.1
	c0-7.2-5.9-13-13.1-12.9c-7.2,0-13,5.9-12.9,13C39.1,41,45,46.8,52.2,46.7C52.2,46.7,52.2,46.7,52.2,46.7L52.2,46.7z"/>
</svg>
