<?xml version="1.0" encoding="utf-8"?>
<!-- Generator: Adobe Illustrator 23.0.6, SVG Export Plug-In . SVG Version: 6.00 Build 0)  -->
<svg version="1.1" id="图层_1" xmlns="http://www.w3.org/2000/svg" xmlns:xlink="http://www.w3.org/1999/xlink" x="0px" y="0px"
	 viewBox="0 0 168.5 168.6" style="enable-background:new 0 0 168.5 168.6;" xml:space="preserve">
<style type="text/css">
	.st0{fill:#E50112;}
</style>
<title>wanfang</title>
<g>
	<g id="图层_1-2">
		<path class="st0" d="M23.7,84.3V24.6c0-0.8,0-0.8,0.8-0.8h119.5c0.7,0,0.7,0,0.7,0.7c0,40,0,79.9,0,119.9c0,0.4-0.1,0.6-0.6,0.6
			c-0.3,0-0.6,0-0.8,0H24.2c-0.5,0-0.5-0.1-0.5-0.6C23.7,124.3,23.7,104.3,23.7,84.3z M38.4,84.2v45.2c0,0.7,0,0.7,0.7,0.7h32
			c0.8,0,0.8,0,0.8-0.8V39.2c0-0.8,0-0.8-0.8-0.8H39c-0.4,0-0.7,0-0.7,0.5C38.4,54,38.4,69.1,38.4,84.2L38.4,84.2z M108.4,130.1h21
			c0.6,0,0.7,0,0.7-0.7c0-12.6,0-25.2,0-37.8c0-0.4-0.1-0.6-0.6-0.6H87.4c-0.4,0-0.6,0.1-0.6,0.6c0,7.8,0,15.7,0,23.5
			c0,4.8,0,9.5,0,14.3c0,0.4,0,0.7,0.6,0.7C94.4,130.1,101.4,130.1,108.4,130.1z M108.4,76.1c7,0,14,0,21,0c0.5,0,0.6-0.2,0.6-0.6
			c0-12.2,0-24.3,0-36.5c0-0.5-0.1-0.6-0.6-0.6c-14,0-28,0-42,0c-0.5,0-0.6,0.1-0.6,0.6c0,12.2,0,24.3,0,36.5c0,0.5,0.1,0.6,0.6,0.6
			C94.4,76,101.4,76,108.4,76.1L108.4,76.1z"/>
	</g>
</g>
</svg>
