<?xml version="1.0" encoding="utf-8"?>
<!-- Generator: Adobe Illustrator 23.0.6, SVG Export Plug-In . SVG Version: 6.00 Build 0)  -->
<svg version="1.1" id="图层_1" xmlns="http://www.w3.org/2000/svg" xmlns:xlink="http://www.w3.org/1999/xlink" x="0px" y="0px"
	 viewBox="0 0 200 200" style="enable-background:new 0 0 200 200;" xml:space="preserve">
<style type="text/css">
	.st0{fill:#F16850;}
	.st1{fill:#FD694F;}
	.st2{fill:#FF3413;}
	.st3{fill:#DC1D23;}
	.st4{fill:#FF9281;}
	.st5{fill:#FF8B79;}
	.st6{fill:#EF5240;}
	.st7{fill:#FF482C;}
	.st8{fill:#EC2101;}
	.st9{fill:#D21C22;}
	.st10{fill:#C90901;}
	.st11{fill:#B6171E;}
	.st12{fill:#B4151B;}
	.st13{fill:#E63320;}
	.st14{fill:#FF4527;}
	.st15{fill:#FD684D;}
	.st16{fill:#FD745C;}
</style>
<g>
	<polygon class="st0" points="190,128.6 151.7,136.7 155.6,174.8 119.8,159.4 100,192.5 80.2,159.4 44.4,174.8 48.3,136.7 10,128.6 
		36.1,100 10,71.4 48.3,63.3 44.4,25.2 80.3,40.6 100,7.6 119.8,40.6 155.7,25.2 151.8,63.3 190,71.5 164,100 	"/>
	<polygon class="st1" points="100,65.3 80.3,40.6 44.4,25.2 65.7,53.4 	"/>
	<polygon class="st2" points="48.3,63.3 10,71.4 36.1,100 66.7,88.9 	"/>
	<polygon class="st3" points="65.7,53.4 44.4,25.2 48.3,63.3 66.7,88.9 	"/>
	<polygon class="st4" points="119.8,40.6 100,7.6 80.3,40.6 100,65.3 	"/>
	<polygon class="st5" points="164,100 190,71.5 151.8,63.3 133.3,88.9 	"/>
	<polygon class="st1" points="133.3,88.9 151.8,63.3 155.7,25.2 134.3,53.4 	"/>
	<polygon class="st6" points="134.3,53.4 155.7,25.2 119.8,40.6 100,65.3 	"/>
	<polygon class="st7" points="155.5,117 190,128.6 164,100 133.3,88.9 	"/>
	<polygon class="st8" points="66.7,88.9 36.1,100 10,128.6 44.6,117 	"/>
	<polygon class="st9" points="100,156.4 100,192.5 119.8,159.4 120.6,127.1 	"/>
	<polygon class="st10" points="155.5,117 120.6,127.1 151.7,136.7 190,128.6 	"/>
	<polygon class="st8" points="119.8,159.4 155.6,174.8 151.7,136.7 120.6,127.1 	"/>
	<polygon class="st11" points="44.6,117 10,128.6 48.3,136.7 79.4,127.1 	"/>
	<polygon class="st12" points="79.4,127.1 80.2,159.4 100,192.5 100,156.4 	"/>
	<polygon class="st9" points="48.3,136.7 44.4,174.8 80.2,159.4 79.4,127.1 	"/>
	<polygon class="st13" points="133.3,88.9 134.3,53.4 100,65.3 100,99.8 	"/>
	<polygon class="st14" points="100,65.3 65.7,53.4 66.7,88.9 100,99.8 	"/>
	<polygon class="st4" points="79.4,127.1 100,156.4 120.6,127.1 100,99.8 	"/>
	<polygon class="st15" points="100,99.8 120.6,127.1 155.5,117 133.3,88.9 	"/>
	<polygon class="st16" points="66.7,88.9 44.6,117 79.4,127.1 100,99.8 	"/>
</g>
</svg>
