<?xml version="1.0" standalone="no"?><!DOCTYPE svg PUBLIC "-//W3C//DTD SVG 1.1//EN" "http://www.w3.org/Graphics/SVG/1.1/DTD/svg11.dtd"><svg t="1604813299275" class="icon" viewBox="0 0 1024 1024" version="1.1" xmlns="http://www.w3.org/2000/svg" p-id="3424" xmlns:xlink="http://www.w3.org/1999/xlink" width="200" height="200"><defs><style type="text/css"></style></defs><path d="M914.227922 1024H109.406999a51.532928 51.532928 0 0 1-48.777025-39.265506V405.995085a52.606022 52.606022 0 0 1 48.777025-40.484931h170.71959a40.265435 40.265435 0 0 1 36.582769 40.484931A33.582982 33.582982 0 0 1 280.126589 438.675692H133.795512v512.15877h756.043898v-512.15877h-170.71959a33.582982 33.582982 0 0 1-36.582769-32.680607 40.265435 40.265435 0 0 1 36.582769-40.484931h195.108102a52.606022 52.606022 0 0 1 48.777026 40.484931v578.739409a51.532928 51.532928 0 0 1-48.777026 39.265506zM511.817461 743.775988a36.582769 36.582769 0 0 1-36.582769-36.338884V134.063167l-93.554335 113.894355a36.89982 36.89982 0 0 1-51.459762 5.121588 35.704783 35.704783 0 0 1-5.316696-50.728107S434.969257 66.019216 486.697293 5.77959c3.828997-2.926622 38.485073-13.413682 53.532785 4.146047l158.525334 192.669251a35.192624 35.192624 0 0 1 8.19454 22.681317 36.168165 36.168165 0 0 1-13.486848 28.04679 37.143705 37.143705 0 0 1-51.459762-5.365473L548.40023 134.063167v573.373937a36.582769 36.582769 0 0 1-36.582769 36.338884z" p-id="3425" fill="#ffffff"></path></svg>