<?xml version="1.0" standalone="no"?><!DOCTYPE svg PUBLIC "-//W3C//DTD SVG 1.1//EN" "http://www.w3.org/Graphics/SVG/1.1/DTD/svg11.dtd"><svg t="1604812546370" class="icon" viewBox="0 0 1024 1024" version="1.1" xmlns="http://www.w3.org/2000/svg" p-id="3819" xmlns:xlink="http://www.w3.org/1999/xlink" width="200" height="200"><defs><style type="text/css"></style></defs><path d="M747.946667 218.794667c0-19.413333-19.2-33.621333-39.253334-29.397334L419.968 252.416a30.592 30.592 0 0 0-24.832 29.354667v50.005333L747.946667 255.146667v-36.352z m0 98.432L395.178667 394.154667v352.853333c0 50.602667-37.802667 94.250667-90.24 103.936l-1.877334 0.298667C234.581333 864.256 170.666667 814.890667 170.666667 748.8c0-49.962667 37.248-92.672 88.96-102.4l71.381333-13.610667V281.770667c0-42.368 30.933333-79.018667 74.581333-88.448l288.64-62.976c60.288-13.013333 117.888 29.994667 117.888 88.448v437.376c0 50.602667-37.802667 94.208-90.24 103.893333l-1.877333 0.298667c-68.48 13.013333-132.394667-36.352-132.394667-102.4 0-49.92 37.248-92.672 88.96-102.357334l71.381334-13.653333V317.269333z m0 286.549333l-58.794667 11.221333c-21.76 3.925333-37.418667 22.101333-37.418667 43.008 0 27.861333 26.88 48.426667 55.68 43.008l1.877334-0.298666c22.485333-4.266667 38.656-22.741333 38.656-44.544v-52.394667z m-416.938667 90.88l-58.752 11.178667c-21.76 3.968-37.461333 22.144-37.461333 43.008 0 27.904 26.88 48.469333 55.68 43.008l1.877333-0.298667c22.485333-4.224 38.656-22.698667 38.656-44.501333V694.613333z" fill="#ffffff" p-id="3820"></path></svg>