<?xml version="1.0" encoding="utf-8"?>
<!-- Generator: Adobe Illustrator 23.0.6, SVG Export Plug-In . SVG Version: 6.00 Build 0)  -->
<svg version="1.1" id="图层_1" xmlns="http://www.w3.org/2000/svg" xmlns:xlink="http://www.w3.org/1999/xlink" x="0px" y="0px"
	 viewBox="0 0 250 200" style="enable-background:new 0 0 250 200;" xml:space="preserve">
<style type="text/css">
	.st0{fill:#FF9900;}
	.st1{fill:#FFFFFF;}
</style>
<path class="st0" d="M226,144.1c-27.4,20.2-67.1,31-101,31c-45.7,0.3-90-16.5-123.9-47.2c-2.6-2.3-0.3-5.5,2.8-3.7
	c37.7,21.6,80.4,32.9,123.8,32.9c32.4-0.2,64.5-6.8,94.4-19.4C226.7,135.8,230.6,140.8,226,144.1z M237.4,131.1
	c-3.5-4.5-23.2-2.1-32-1.1c-2.7,0.3-3.1-2-0.7-3.7c15.7-11,41.4-7.9,44.3-4.2c2.9,3.7-0.8,29.5-15.5,41.8c-2.3,1.9-4.4,0.9-3.4-1.6
	C233.5,154.1,240.9,135.6,237.4,131.1z"/>
<path class="st1" d="M70.5,79.3l0-27.1c0.6-7.5-1.9-14.9-6.9-20.5c-6.1-5-13.9-7.4-21.8-6.8c-11.8-0.1-23.7,4.6-25.8,7.1
	c-0.6,1.1-1.7,9.5,1.1,9.5c1,0,1.3,0.2,4.2-1.1c10.3-4.1,17-3.9,17.9-3.9c11.8-1.2,18.6,6.8,17.5,17.2v6.1
	c-9.9-2.3-15.6-2.4-18.4-2.4c-14.4-0.8-28.3,8.5-27.7,23.5c-0.9,18.3,16.3,22.3,22.7,22c9.5,0.2,18.5-4.1,24.5-11.5
	c4.8,10.7,7.8,10,8,10c0.8,0,1.6-0.3,2.2-0.8l5-3.5c0.9-0.5,1.5-1.4,1.6-2.4C74.6,92.1,70.2,88.1,70.5,79.3z M56,80.1
	c-1.2,4.1-6.6,11.7-19.3,11.9C29.4,92.3,24.5,86.6,25,80c-0.4-10.4,10.4-13,16.3-12.6c6.2,0,11.7,1,15.5,1.9
	C56.8,73.6,56.9,76.1,56,80.1z"/>
<path class="st1" d="M103.5,101c-3.1,0.3-4.5-1.9-5-4.1L79.1,32.6c-0.4-1.1-0.6-2.2-0.8-3.4c-0.1-1,0.5-1.9,1.5-2.1
	c0.1,0-0.8,0,8.7,0c3.4-0.3,4.5,2.4,4.9,4.1l14,55l13-55c0.2-1.3,1.1-4.3,5-4h6.7c0.8-0.1,4.3-0.2,5,4.1L150,87l14.4-55.7
	c0.2-0.9,1.1-4.4,5-4.1h7.7c0.3-0.1,2.4-0.3,2.1,3.4c-0.2,0.7,1.3-4.2-20.6,66.4c-0.4,2.2-1.9,4.3-5,4.1h-7.3
	c-4.3,0.4-4.9-3.8-5-4.2l-13-53.6l-12.8,53.5c-0.1,0.4-0.7,4.6-5,4.2L103.5,101L103.5,101z"/>
<path class="st1" d="M210.3,103.2c-2.3,0-13.3-0.1-22.4-4.8c-1.9-0.8-3.1-2.6-3.1-4.7v-4.2c0-3.3,2.4-2.7,3.4-2.3
	c3.9,1.6,6.4,2.8,11.3,3.8c14.3,2.9,20.6-0.9,22.2-1.8c5.1-3.1,5.5-10,2.1-13.7c-4.1-3.4-6-3.6-20.8-8.2
	c-1.8-0.5-17.1-5.3-17.1-20.5c-0.2-11,9.8-21.9,27.2-21.9c4.9,0,18.1,1.6,21.7,6.1c0.5,0.8,0.8,1.8,0.7,2.8v3.9
	c0,1.7-0.6,2.6-1.9,2.6c-3-0.3-8.4-4.4-19.2-4.2c-2.7-0.1-15.6,0.4-15,9.8c-0.2,7.4,10.4,10.2,11.6,10.5c14.2,4.3,19,5,24.7,11.6
	c6.7,8.7,3.1,18.9,1.7,21.7C229.9,104.4,210.6,103.2,210.3,103.2L210.3,103.2z"/>
</svg>
