<?xml version="1.0" encoding="utf-8"?>
<!-- Generator: Adobe Illustrator 23.0.6, SVG Export Plug-In . SVG Version: 6.00 Build 0)  -->
<svg version="1.1" id="图层_1" xmlns="http://www.w3.org/2000/svg" xmlns:xlink="http://www.w3.org/1999/xlink" x="0px" y="0px"
	 viewBox="0 0 200 150.9" style="enable-background:new 0 0 200 150.9;" xml:space="preserve">
<style type="text/css">
	.st0{fill:#06A7FF;}
	.st1{fill:#FF436A;}
</style>
<path class="st0" d="M53,59.4c-0.4-2.6-0.7-5.3-0.7-8c0-26.3,21.3-47.6,47.6-47.6s47.6,21.3,47.6,47.6c0,2.7-0.2,5.3-0.7,8
	c24.2,0.1,43.7,19.8,43.7,43.9c0,24.3-19.7,43.9-43.9,43.9c-12.3,0-23.3-5-31.3-13.1l0,0c-4.2-4.3-4.2-11.1,0.1-15.3
	c4.3-4.3,11.2-4.3,15.4,0c0.1,0.1,0.3,0.3,0.4,0.4c4,3.9,9.4,6.3,15.4,6.3c12.2,0,22.1-9.9,22.1-22.1c0-12.2-9.9-22.1-22.1-22.1
	c-5.6,0-10.7,2.1-14.6,5.5l0,0l-0.4,0.4c-0.4,0.4-0.8,0.8-1.2,1.2l-0.8,0.8l0,0L84.7,134l0,0c-8,8.1-19.1,13.2-31.4,13.2
	c-24.3,0-43.9-19.7-43.9-43.9C9.4,79.1,28.9,59.5,53,59.4L53,59.4z M53.3,125.5c12.2,0,22.1-9.9,22.1-22.1
	c0-12.2-9.9-22.1-22.1-22.1s-22.1,9.9-22.1,22.1C31.2,115.5,41.1,125.5,53.3,125.5z M100,77.2c14.3,0,25.8-11.6,25.8-25.8
	c0-14.3-11.6-25.8-25.8-25.8S74.1,37.1,74.1,51.4C74.1,65.7,85.7,77.2,100,77.2z"/>
<path class="st1" d="M125.7,54.1c0-0.4-0.1-0.8-0.1-1.2c0-6.1,4.9-11,11-11s11,4.9,11,11c0,0.5,0,0.9-0.1,1.4
	C146,79.2,125.3,99,100,99S53.9,79.2,52.4,54.3c-0.1-0.5-0.1-0.9-0.1-1.4c0-6.1,4.9-11,11-11s11,4.9,11,11c0,0.4,0,0.8-0.1,1.2
	c1.4,13,12.3,23.1,25.7,23.1C113.3,77.2,124.3,67.1,125.7,54.1L125.7,54.1z"/>
</svg>
