<svg xmlns="http://www.w3.org/2000/svg" viewBox="0 0 182.47 40.95"><defs><style>.cls-1{fill:#fff;}.cls-2{fill:#271c19;}.cls-3{fill:#fcfdfd;}</style></defs><title>cnki</title><g id="图层_2" data-name="图层 2"><g id="图层_1-2" data-name="图层 1"><path class="cls-1" d="M134.8,16.7c-.24,2.48-.41,4.7-.68,6.91a2.3,2.3,0,0,1-3.47,2,19.91,19.91,0,0,1-2.22-1.38c-.36-.22-.8-.57-1.15-.51a27.47,27.47,0,0,0-3.92.89c-.93.3-1.21-.25-1.35-.87-.34-1.47-.59-3-.86-4.45a22,22,0,0,1,.2-8.88c.11-.44.6-.8.94-1.17a12.79,12.79,0,0,0,1-1c1.21-1.77,2.55-3.28,4.94-3.29a5.51,5.51,0,0,1,5.8,4.93C134.45,12.16,134.59,14.55,134.8,16.7Zm-11.07,6.76c1.3-.41,2.42-.8,3.56-1.12.84-.24,1.51-.13,1.55,1,0,.24.16.62.33.68a7.74,7.74,0,0,0,3,.81c.41,0,.68-1.5,1-2.31a1,1,0,0,0,0-.24c0-2.91.17-5.84-.06-8.73a20.55,20.55,0,0,0-1.42-6,3.21,3.21,0,0,0-5-1.33,11.18,11.18,0,0,0-3,3.49c-1.52,2.82-1.21,6-1,9a3.93,3.93,0,0,0,.44.91l3.87-3-.2-.34L124,17.44c.07-.89.39-1.71.12-2.15-.88-1.4-.08-2,.92-2.66.5-.33.93-.76,1.44-1.06s.58-.73.29-1.28a14.84,14.84,0,0,1-.68-1.71c.42-.06.58,0,.67.09.7.91.59,2.38,1.94,2.86a.77.77,0,0,1-.05.54c-.81,1.46.39,2.39.74,3.54l.35,0V12.78l.36,0a27.1,27.1,0,0,0,.58,4.35,25.64,25.64,0,0,0,1.84,3.9l-.35.23-2.26-3.12c-.53,2.75-.64,3-1.54,3.47l.79-2.49-6,1.95C123.38,21.79,123.53,22.51,123.73,23.46Zm.87-4.19.23.32c1.44-.6,2.9-1.18,4.32-1.85.17-.07.2-.66.11-1s-.54-.31-.76-.24A9.17,9.17,0,0,0,124.6,19.27Zm3-6.46-.36-.21c-.72.46-1.47.87-2.14,1.39s-.48,1.07.17,1.83Zm.94,1.92-.71-1.34-1.19,1.83Z"/><path class="cls-1" d="M107.2,28.47a7.28,7.28,0,0,1-.5-1.76c-.06-3.12,0-6.23,0-9.35,0-.28.13-.7,0-.82-1.12-.94-.71-1.82-.31-3s.09-2.71.09-4.21l-3.77,1.92c.61.53,1.12.94,1.6,1.39s.91,1.19.28,1.75a1.7,1.7,0,0,1-1.52,0,13.07,13.07,0,0,1-1.93-1.58c-.33-.28-.7-.53-1-.84a14.05,14.05,0,0,1-.91-1.13c.63-.41,1.39-1.28,1.88-1.15a3.73,3.73,0,0,0,3.11-.82c2.6-1.62,2.74-2.15,1.94-5.19a1.76,1.76,0,0,1,.6-1.52c.54-.34,1.81.67,1.9,1.43A7.55,7.55,0,0,1,108.51,5c0,.45-.07.91-.1,1.34a39,39,0,0,1,4.82-.59,2.74,2.74,0,0,1,1.93,1.09c.84,1.17.56,1.6-.84,1.94a3.37,3.37,0,0,0-1.25.67c-1.1.9-2.16,1.86-3.33,2.87.55.4,1,.69,1.42,1.05s.76.77.68,1a2.11,2.11,0,0,1-1,1.07c-2.24.89-2.44,1.33-2.33,3.82s0,5-.07,7.51a5.72,5.72,0,0,1-.71,1.79Zm5.29-21.09c-.75-.37-3.39.28-3.82.74a3.47,3.47,0,0,0,0,3.14Z"/><path class="cls-1" d="M145.4,12.13a13.7,13.7,0,0,1,1.91-.89,5.47,5.47,0,0,1,1.52-.07,5.75,5.75,0,0,1-.37,1.86c-.28.47-1,.66-1.42,1.07A11.72,11.72,0,0,0,146,15.46c.25.23.29.3.36.33l1.67.87a12.46,12.46,0,0,0-1.46,1,3.46,3.46,0,0,0-.93,1.23,23.72,23.72,0,0,1-1,3.15,6.58,6.58,0,0,1-2,1.94c-.71.51-1.34.24-1.81-.68,2-1,3.53-2.29,3.8-4.92l-1.42.63-1.41.65c-.62.29-1.22.48-1.58-.36a1.31,1.31,0,0,1,.91-1.88,8.06,8.06,0,0,0,3.73-2.34c-.75-.22-1.26-.36-1.75-.52-1-.32-1.27-.79-.71-1.67a8.26,8.26,0,0,0,1.74-5c0-.25.41-.76.59-.74a3.5,3.5,0,0,1,1.7.52A1.52,1.52,0,0,1,146.71,9a6.57,6.57,0,0,1-.91,1.53c-.25.42-.46.86-.69,1.3Z"/><path class="cls-1" d="M163.66,13.13A14.68,14.68,0,0,1,166,14.44c.31.25.58,1.08.4,1.35-.86,1.34.15,2.21.64,3.48l1.19-1.82c-1.13,2.6-1.53,5.59-4,7.52-1-.57-.73-1.34-.38-2.08.46-1,1.05-1.89,1.43-2.89.27-.7.82-1.7-.76-1.75-.18,0-.44-.83-.47-1.28s.29-.74.37-1.12c.12-.6-.06-1-.77-.73a3.87,3.87,0,0,1-1.22.45,2.73,2.73,0,0,1-1.59-.5,1.49,1.49,0,0,1-.14-1.36c.81-1.81,1.75-3.57,2.61-5.36A7.2,7.2,0,0,0,163.78,7c.28-1.08.81-1.46,1.8-1a5,5,0,0,1,1.81,1.29c.7.84.41,1.63-.38,2.38C165.79,10.78,164.68,12.06,163.66,13.13Z"/><path class="cls-1" d="M174.15,37.42c-.73,2.13-3,3-5.64,2.28a3.46,3.46,0,0,1-2.6-4.31c.44-2,2.49-3.18,4.89-2.84a3.48,3.48,0,0,1,3.32,4.11H168l-.26.39c.45.44.85,1.2,1.35,1.27a3.65,3.65,0,0,0,2.64-.37A2.35,2.35,0,0,1,174.15,37.42Zm-6.26-2.13h4.33a1.93,1.93,0,0,0-1.95-1.42A2.15,2.15,0,0,0,167.89,35.29Z"/><path class="cls-1" d="M132.19,35.38l3.63,4.21c-1.32.33-2.33.31-3.1-.88a22.42,22.42,0,0,0-1.86-2.23c-1.54.73-.45,2.15-1,3.18h-1.6V30.19H130v4.87c1.85-1,3-3.12,5.52-2.18Z"/><path class="cls-1" d="M154.06,32.5c1.5.75,2.84.08,4.21,0,2.23-.07,3.16.89,3.17,3.08,0,1.24,0,2.48,0,3.72a1.65,1.65,0,0,1-.09.32h-1.77c0-1.27,0-2.57,0-3.87s-.38-1.85-1.57-1.88-2.07.59-2.1,1.87,0,2.54,0,3.9h-1.81Z"/><path class="cls-1" d="M117.7,39.7h-1.81V32.64c.57.11,1.1.22,1.63.29a3.41,3.41,0,0,0,.71,0,13.79,13.79,0,0,1,2.92-.22c1.54.21,2.08,1,2.11,2.56,0,1.43,0,2.87,0,4.41h-1.88c0-1.35,0-2.66,0-4s-.4-1.75-1.55-1.79-2.06.54-2.12,1.73S117.7,38.25,117.7,39.7Z"/><path class="cls-1" d="M110.2,36.94l1.55.15c0,1.59-1.3,2.68-3.23,2.81-2.52.17-4.24-1-4.55-3.07a3.5,3.5,0,0,1,3-4.19c2.37-.51,4.18.33,4.78,2.29-.85.21-1.55.49-2.23-.52s-2.48-.7-3.2.2a2.84,2.84,0,0,0,.39,3.6,2.33,2.33,0,0,0,3.17-.58A6.44,6.44,0,0,0,110.2,36.94Z"/><path class="cls-1" d="M175.75,22.29l2.57,1.07c0-1.49,0-2.82,0-4.15,0-3.23,0-6.46.08-9.69,0-1.58-.21-2-1.77-2a19.78,19.78,0,0,0-2.81.4,4.76,4.76,0,0,1,4.75-.58,2.22,2.22,0,0,1,1.29,2.53,55.22,55.22,0,0,0-.39,7c.05,2.36.46,4.71.63,7.07a1.67,1.67,0,0,1-.65,1.17,1.05,1.05,0,0,1-1,0c-.84-1-1.59-2.05-2.37-3.08Z"/><path class="cls-1" d="M149.37,14.79a8.4,8.4,0,0,0,1.25-.27c1.34-.51,2.65-1.12,4-1.56a1.36,1.36,0,0,1,1.22.43,2.12,2.12,0,0,1,.08,1.53c-.16.5-.7.88-.89,1.39a9.4,9.4,0,0,0-.31,1.8l.45.25a8,8,0,0,1-1.27.77c-.77.29-1.6.43-2.37.71a1.15,1.15,0,0,1-1.71-.74,9,9,0,0,1-.78-4.56Zm1.89,3.29c1.65-.3,2.5-1.42,2.73-3.47-1.1,0-2.34,0-2.89,1C150.76,16.21,151.18,17.23,151.26,18.08Z"/><path class="cls-1" d="M178.64,34.23,177.5,32.9l1.49-.37c-.43-1.51.56-1.86,1.75-2.21l.12,2.25,1.36.22v1.07l-1.4.14a36.48,36.48,0,0,0,.05,3.77c0,.33.72.59,1.1.88l.24-.21.26,1.1c-2.28.91-3.51.1-3.52-2.26,0-1,0-2.07,0-3.11Z"/><path class="cls-1" d="M174.73,9.87c.38.08.94.05,1.1.28a1.37,1.37,0,0,1,.15,1.24,25.93,25.93,0,0,1-2.07,2.51l1.57.63c-.48.37-.79.65-1.13.86-1.06.66-1.1,1.07-.18,1.89.33.29.62.65,1,1.07l-.8.34c-.21.09-.42.16-.87.32.69.5,1.25.84,1.74,1.27.19.17.23.53.35.8-.31.1-.64.33-.93.29-1.36-.16-1.75-1.21-1.85-2.35-.1-1,0-2,0-3.07a4.45,4.45,0,0,1-1.08.42,4.34,4.34,0,0,1-1.11-.17c.17-.4.24-.93.54-1.18a4.87,4.87,0,0,1,1.35-.61l-.66-2.66.37-.2L173.71,13c1.3-1,1.55-1.68.92-2.74Z"/><path class="cls-1" d="M139.67,33h1.66v6.7h-1.66Z"/><path class="cls-1" d="M171.11,11.16c-1.2,3.05-1.11,6.14-.94,9.24,0,.31.31.62.27.9a4.88,4.88,0,0,1-.45,1.16c-.27-.27-.77-.53-.78-.8-.05-2.22-.05-4.44,0-6.66a5.49,5.49,0,0,1,.51-2.19A8.46,8.46,0,0,1,171.11,11.16Z"/><path class="cls-1" d="M146.14,19.84a12.69,12.69,0,0,1,2.17,1.38,1,1,0,0,1-.25,1.73c-.74.51-1.11,0-1.39-.57-.36-.69-.63-1.41-.93-2.12Z"/><path class="cls-1" d="M148.73,38.12v1.53h-1.94V38.12Z"/><path class="cls-1" d="M139.64,31.73V30.19h1.71v1.54Z"/><path class="cls-1" d="M41.07,10.93h6.84l.15,1.4c3.85-2.5,8-2.45,12.19-1.7s6.4,3.24,6.54,7.32c.22,6.71.06,13.43.06,20.24H59.47V37c0-4.52,0-9,0-13.55a30.71,30.71,0,0,0-.26-3.95,3.88,3.88,0,0,0-3.63-3.55,17,17,0,0,0-3.7,0c-2,.26-3,1.23-3.21,3.27a21,21,0,0,0-.15,2.51c0,5,0,10.08,0,15.11v1.39H41.07Z"/><path class="cls-1" d="M35.9,31.25c-2.66,5.77-9.41,10-17.35,9.69C9.71,40.62,3.19,36.05.83,28.29c-2.28-7.53.29-16.86,5.77-20.75a1.09,1.09,0,0,1,0,.34C2.89,14.06,2.79,20.54,5.41,27c3.39,8.34,13,12.25,22,9.21A24.59,24.59,0,0,0,34.9,32Z"/><path class="cls-1" d="M85.58,10.51,74.94,23l11.54,15.3c-2.61,0-5,0-7.35,0-.26,0-.57-.39-.77-.67q-4.56-6.32-9.1-12.65a2.58,2.58,0,0,1,.08-3.18c2.81-3.48,5.6-7,8.46-10.43a2.42,2.42,0,0,1,1.57-.78C81.34,10.45,83.33,10.51,85.58,10.51Z"/><path class="cls-1" d="M96.78,38.46H89.86V21.34h6.92Z"/><path class="cls-1" d="M7.66,9.78c3-5.73,7.72-9.3,14.08-9.74,5.72-.4,10.53,2.13,14.13,6.78l-2.4,2.31C24.7,1.8,16.86,2,7.66,9.78Z"/><path class="cls-1" d="M96.62,13.79a3.73,3.73,0,0,1-3.5,3.93,3.9,3.9,0,0,1-3.78-3.85A3.77,3.77,0,0,1,92.92,10,3.55,3.55,0,0,1,96.62,13.79Z"/><path class="cls-1" d="M127.9,9.38c.65-.45,1.19-1.09,1.75-1.11.39,0,.92.78,1.18,1.31.13.27-.13.81-.34,1.14-.06.09-.63-.05-.9-.21C129.07,10.23,128.6,9.86,127.9,9.38Z"/><path class="cls-1" d="M34.77,21.18A13.57,13.57,0,1,1,21.2,7.51,13.53,13.53,0,0,1,34.77,21.18Zm-3.3-3.87c.06,0,.15.18.17,0l-.19.06c-.05-.06.14-.19-.06-.2Zm-.34-.8c0,.08-.17.18,0,.21l-.06-.19-.26-.21-.22-.24c-.06,0-.13-.22-.18,0l.2,0c-.07.22,0,.29.22.24C30.81,16.54,31,16.55,31.13,16.51Zm-1.19-.79c.9-.58.32-2.09,1.73-2.28C27.3,7.15,17.83,6.31,12.25,11.66a10.24,10.24,0,0,0-3,4.52c-.11.39-.49.77.4.92s1.06,1.25.49,2c-.36.49-.92.91-.67,1.65a10.53,10.53,0,0,0,2.12,3.34c0-.87.06-1.4.89-1.48.28,0,.57-.38.77-.64.73-.92,1.81-.85,2.18.27a2.5,2.5,0,0,1,.13,2.14c.61-.44,1.11-.59,1.3-1.33a1.48,1.48,0,0,1,1.73-1c.5.14,1.27.9,1.19,1.21-.21.91.38,1.14.86,1.68A2.16,2.16,0,0,1,23,22.73c-.41-.38-.69-1-1.45-.6-.23.12-.51-.14-.54-.31-.18-1.21-1.25-1.18-2.05-1.58s-.65-1.25-.54-1.93c0-.38.7-.31,1-.69.41-.58.82-.8,1.28.12A1.32,1.32,0,0,0,23,17.59c.66-1.26,1-1.3,2.16-.4.24.18.33.64.79.51a3,3,0,0,0,.94-2.42c-.5-.82-.19-1.35.77-1.46a7,7,0,0,0,1.82-.44c.35-.14.71-.53,1-.16s-.19.59-.41.85C29.61,14.62,29,15.19,29.94,15.72Zm-7,18.34a18.5,18.5,0,0,0,4-1.2,3.45,3.45,0,0,0,.9-.5c.37-.3.47-.81.12-1.07-.2-.15-.35-1.23-1-.29-.25.36-.64.08-.77-.28-.24-.71-.6-.57-1.08-.24-.77.51-1.54,1-2.35,1.45s0,1.26-.46,1.84C22.1,34,22.69,34,22.93,34.06Zm-2.86-6.31c.79.61,1.6.26,2.36.33Zm7.85-2.48c-.25-.8.08-1.72-.45-2.48A6.46,6.46,0,0,0,27.92,25.27Z"/><path class="cls-2" d="M8.43,11.46l-.22-.07.09-.1.13.18Z"/><path class="cls-2" d="M35.37,31.43c.06-.06.17-.18.2-.17s0,.22,0,.34Z"/><path class="cls-3" d="M20.07,27.75l2.36.33C21.67,28,20.86,28.36,20.07,27.75Z"/><path class="cls-3" d="M27.92,25.27a6.46,6.46,0,0,1-.45-2.48C28,23.55,27.67,24.47,27.92,25.27Z"/><path class="cls-3" d="M30.65,16.06l-.2,0c.05-.23.12,0,.18,0Z"/><path class="cls-3" d="M30.87,16.3c-.22.05-.29,0-.22-.24l0,0,.22.24Z"/><path class="cls-3" d="M30.85,16.32l.26.21,0,0c-.17,0-.32,0-.26-.21Z"/><path class="cls-3" d="M31.11,16.53l.06.19c-.21,0-.08-.13,0-.21Z"/><path class="cls-3" d="M31.47,17.31l-.08-.17c.2,0,0,.14.06.2Z"/><path class="cls-3" d="M31.45,17.34l.19-.06c0,.21-.11,0-.17,0Z"/></g></g></svg>