<?xml version="1.0" standalone="no"?><!DOCTYPE svg PUBLIC "-//W3C//DTD SVG 1.1//EN" "http://www.w3.org/Graphics/SVG/1.1/DTD/svg11.dtd"><svg t="1619256049862" class="icon" viewBox="0 0 6505 1024" version="1.1" xmlns="http://www.w3.org/2000/svg" p-id="583" xmlns:xlink="http://www.w3.org/1999/xlink" width="1270.5078125" height="200"><defs><style type="text/css"></style></defs><path d="M3269.640433 347.738353c3.975529-76.438588 31.382588-138.902588 74.209882-187.632941V95.171765h-56.922353c-115.049412 0-212.449882 44.092235-269.071058 143.721411h-3.312942V106.134588h-295.092706v809.622588h295.152942V588.920471c0-138.721882 40.598588-244.495059 204.378353-244.495059 17.829647 0.120471 34.514824 1.144471 50.657882 3.312941zM5504.309609 344.786824a480.918588 480.918588 0 0 1 115.952942-186.428236v-63.247059h-56.801883c-115.109647 0-212.389647 44.092235-269.312 143.661177h-3.19247V106.134588h-295.273412v809.622588h295.273412V588.920471c0-138.721882 40.719059-244.495059 204.498823-244.495059l8.854588 0.361412zM3869.041845 314.428235c-45.537882-23.672471-108.905412-39.454118-159.322353-39.454117-33.852235 0-92.340706 14.095059-92.340706 55.235764 0 55.296 92.340706 63.126588 133.180235 71.198118 137.577412 26.744471 241.664 89.931294 241.664 239.676235 0 212.992-199.559529 301.658353-392.734117 301.658353-118.482824 0-235.038118-33.189647-335.75153-93.184l107.038118-200.583529c59.934118 41.200941 160.527059 82.100706 233.532235 82.100706 37.345882 0 92.461176-17.287529 92.461177-61.500236 0-63.126588-92.461176-66.439529-185.042824-90.051764-92.340706-23.672471-184.681412-67.764706-184.681412-212.992 0-198.896941 184.681412-287.141647 366.712471-287.141647 94.087529 0 188.235294 14.155294 274.010353 52.043294L3869.041845 314.428235zM6505.420198 915.757176h-295.152942v-90.051764h-3.252705c-51.922824 80.474353-154.322824 116.736-251.482353 116.736-246.723765 0-420.141176-200.463059-420.141177-432.489412 0-231.785412 170.345412-430.742588 416.828235-430.742588 95.653647 0 196.367059 34.695529 257.987765 105.652706V106.134588h295.092706L6505.420198 915.757176zM5840.362315 511.698824c0 102.520471 69.872941 181.428706 189.741177 181.428705 119.988706 0 189.560471-78.787765 189.56047-181.428705 0-99.448471-69.571765-183.055059-189.56047-183.055059-119.868235 0.060235-189.741176 83.606588-189.741177 183.055059zM4949.120904 559.164235H4327.673374c0 116.675765 63.427765 179.742118 185.042824 179.742118 63.247059 0 108.604235-20.419765 141.131294-74.149647h283.949176c-47.043765 191.006118-233.652706 277.805176-423.393882 277.805176-275.576471 0-481.581176-151.612235-481.581177-430.802823 0-269.854118 189.560471-432.368941 460.438589-432.368941 288.707765 0 455.981176 173.658353 455.981176 449.716706l-0.12047 30.057411zM4674.929845 393.336471c-14.637176-77.342118-87.642353-127.819294-167.032471-127.819295-86.076235 0-157.153882 44.032-175.284706 127.819295h342.317177zM1780.623962 497.603765a588.257882 588.257882 0 0 0-1.325176-20.720941v-0.120471-0.120471a445.018353 445.018353 0 0 0-73.547294-208.896 456.704 456.704 0 0 0-185.946353-160.948706c-68.969412-32.948706-145.167059-49.573647-226.484706-49.573647a546.695529 546.695529 0 0 0-188.897882 32.948706c-52.344471 18.913882-97.942588 43.911529-135.228236 73.908706-7.589647 6.023529-15.841882 13.432471-24.69647 21.564235l-6.384941 6.264471-8.734118 9.276235h0.12047l-4.096 4.035765-1.987764 2.168471-10.420706 10.962823c-7.710118 8.673882-15.058824 17.347765-21.925647 25.840941l-0.060235-0.12047-0.240942-0.240941a446.464 446.464 0 0 0-37.165176 51.440941c-6.565647 10.360471-13.010824 21.022118-19.154824 31.683764L749.335492 499.049412l0.12047 0.12047-4.457411 8.734118-9.396706 19.034353c-18.672941 37.767529-38.671059 75.414588-61.018353 106.496-49.814588 54.633412-106.134588 81.377882-178.537412 81.377882-5.059765 0-10.24-0.240941-15.540706-0.542117-43.610353-1.746824-81.016471-12.047059-114.206118-31.683765a190.584471 190.584471 0 0 1-73.728-76.498824 197.451294 197.451294 0 0 1-24.214588-101.556705l0.120471-2.590118c2.349176-56.380235 23.853176-100.231529 67.162353-138.11953a232.749176 232.749176 0 0 1 37.948235-26.383058c32.165647-17.528471 68.788706-26.262588 110.772706-26.262589l13.071059 0.361412c66.680471 2.529882 118.121412 23.371294 159.141647 64.030118L785.235727 144.564706a507.000471 507.000471 0 0 0-103.845647-52.705882c-1.445647-0.542118-2.951529-1.144471-4.457412-1.626353-4.577882-1.626353-9.095529-3.312941-13.793882-4.818824A550.309647 550.309647 0 0 0 535.741139 59.632941L532.367962 59.211294C525.621609 58.789647 518.754786 57.946353 512.008433 57.645176a676.683294 676.683294 0 0 0-21.985882-0.481882h-4.156236c-80.896 0.301176-156.069647 16.865882-224.798117 49.694118a458.089412 458.089412 0 0 0-185.645177 160.768A445.620706 445.620706 0 0 0 0.008433 518.565647c-0.060235 116.013176 42.224941 218.051765 126.313412 303.706353 87.762824 89.871059 201.908706 138.300235 338.944 144.022588 8.794353 0.361412 17.468235 0.602353 26.142117 0.602353 77.522824 0 149.263059-13.793882 213.594353-41.381647 16.082824-6.866824 31.683765-14.938353 47.646118-23.913412 8.673882-4.999529 16.865882-10.300235 24.997647-15.962353l6.023529-4.035764 10.11953-6.927059c12.167529-8.734118 23.552-18.191059 34.635294-28.250353l3.855059-3.674353c6.505412-6.204235 13.010824-12.468706 19.154823-18.913882l23.070118-26.081883 8.794353-11.023059 4.096-6.023529 4.096-5.903059c34.273882-57.584941 145.829647-267.143529 145.829647-267.143529v-0.421647l6.625882-12.769883 5.541647-9.999058c16.444235-29.936941 28.310588-51.2 44.032-73.547295l0.421647-0.662588c36.683294-53.187765 99.749647-91.075765 174.08-97.460706 124.687059-10.721882 233.953882 71.198118 244.013177 182.994824 9.999059 111.796706-83.004235 211.124706-207.691294 221.906823-25.961412 2.228706-51.2 0.481882-74.992941-4.758588l-0.602353 0.240941c-91.497412-19.034353-149.744941-85.775059-178.477177-115.591529l-119.988706 220.641882s37.285647 37.586824 62.825412 56.380236c25.6 18.733176 58.669176 37.165176 85.052235 48.609882a529.709176 529.709176 0 0 0 210.582589 43.730823c8.914824 0 7.107765 0 16.384-0.361411 136.914824-5.722353 258.951529-58.187294 346.955294-148.058353 83.365647-85.353412 128.602353-182.814118 129.024-298.164706v-3.433412a701.982118 701.982118 0 0 0-0.481883-19.335529zM2239.616904 943.104c-62.223059 0-118.663529-7.228235-169.321412-21.684706s-93.906824-37.285647-129.746824-68.608c-35.960471-31.322353-63.668706-71.198118-83.184941-119.567059s-29.274353-106.676706-29.274353-174.622117V105.953882h284.732235v449.054118c0 50.898824 12.167529 87.762824 36.442353 110.772706 24.335059 23.070118 55.235765 34.575059 92.702118 34.575059 38.309647 0 69.391059-10.721882 93.364706-32.225883 23.853176-21.504 35.900235-57.163294 35.900235-107.279058V105.953882h284.732235v446.704942c0 70.354824-9.999059 130.168471-29.936941 179.380705-19.937882 49.272471-48.067765 89.509647-84.269176 120.832-36.382118 31.322353-80.173176 54.091294-131.674353 68.608-51.501176 14.396235-108.303059 21.624471-170.465882 21.624471z" fill="#ffffff" p-id="584"></path></svg>