<svg width="1130" height="1023" xmlns="http://www.w3.org/2000/svg">

 <g>
  <title>background</title>
  <rect fill="none" id="canvas_background" height="1025" width="1132" y="-1" x="-1"/>
 </g>
 <g>
  <title>Layer 1</title>
  <path id="svg_3" d="m1117.645,179.111c8.602,-1.575 12.757,-11.581 7.86,-18.911l-12.851,-19.217c-33.891,-50.922 -76.709,-88.765 -127.249,-112.473c-40.328,-18.916 -84.596,-28.511 -131.569,-28.511c-42.246,-0.006 -79.023,8.031 -102.553,16.612c-20.326,-5.265 -67.612,-15.427 -129.667,-15.427c-57.691,0 -113.722,8.715 -166.538,25.917c-65.606,21.365 -125.539,53.354 -178.119,95.082c-42.065,33.369 -79.501,72.982 -111.271,117.727c-54.245,76.394 -73.252,141.351 -74.032,144.083l-1.902,6.623c-2.166,7.558 0.764,15.661 7.239,20.013l5.672,3.818c61.396,41.305 140.314,64.996 216.517,64.996c49.254,0 97.381,-9.444 143.057,-28.065c106.807,-43.548 166.692,-116.942 198.12,-170.841a416.768,416.768 0 0 0 8.305,-14.943c0.802,25.572 -1.297,55.524 -9.245,88.27c-16.204,66.738 -50.337,122.568 -101.448,165.933c-38.706,32.84 -73.219,45.891 -73.565,46.019l-9.767,3.556l-4.826,9.227c-5.502,10.374 -31.896,64.712 -11.361,116.001c6.392,15.955 21.31,25.483 39.921,25.483c17.66,0 37.321,-8.298 53.349,-17.224c8.432,9.717 15.005,16.089 20.628,20.836c-1.803,22.239 -15.16,33.58 -30.457,46.703c-12.356,10.591 -27.888,13.622 -43.52,13.622c-28.125,-44.31 -69.349,-55.689 -120.4,-55.689c-20.843,0 -41.059,4.497 -60.093,13.368c-21.761,10.134 -20.733,41.784 1.632,50.46c0.599,0.234 65.216,26.045 103.493,78.887c36.969,51.039 15.577,103.307 14.087,106.78l-14.263,30.163c-3.897,8.237 3.314,17.402 12.114,15.393l32.545,-7.418c13.181,-2.916 47.451,-12.845 80.859,-41.834c29.043,-25.205 49.507,-58.451 59.884,-96.996c65.551,-10.624 125.974,-34.443 179.85,-70.94c55.075,-37.309 102.179,-87.942 136.208,-146.426c34.727,-59.687 56.07,-127.722 61.72,-196.753c5.398,-65.992 -3.617,-133.259 -26.114,-195.578c59.104,-68.959 134.438,-84.057 135.235,-84.207l22.514,-4.118l0.001,-0.001z" fill="#231815"/>
  <path id="svg_4" d="m585.932,852.978c288.922,-35.094 445.671,-334.998 343.068,-590.202c67.816,-89.055 161.223,-106.145 161.223,-106.145c-110.078,-165.393 -288.07,-132.486 -337.418,-110.859c-22.959,-6.918 -148.141,-38.272 -289.439,7.747c-274.258,89.316 -345.728,338.454 -345.728,338.454c78.413,52.753 206.486,86.528 334.499,34.332c193.119,-78.737 225.015,-259.651 225.015,-259.651s35.854,81.547 8.536,194.081c-42.916,176.829 -192.036,231.162 -192.036,231.162c-7.261,13.69 -24.905,55.847 -10.125,92.75c7.305,18.248 43.417,4.068 74.049,-17.297c25.009,32.306 35.364,38.355 42.065,43.158c1.369,36.118 -12.485,60.885 -37.142,82.027c-24.789,21.265 -50.766,30.073 -68.846,33.821c-29.637,-64.262 -104.208,-87.516 -164.46,-59.439c0,0 71.888,27.882 115.629,88.264c47.907,66.143 16.88,134.367 16.88,134.367c34.749,-7.708 107.962,-42.457 124.231,-136.57l-0.001,0z" fill="#f0f1f2"/>
  <path id="svg_5" d="m491.003,45.415c129.68,-33.899 240.352,-6.107 261.802,0.356c19.28,-8.45 58.199,-18.621 105.032,-18.015c-42.96,3.843 -67.909,15.787 -86.383,23.162c-0.859,0.343 -1.704,0.676 -2.537,0.998l-0.107,0.602c39.403,25.41 64.004,61.855 64.004,61.855c-79.389,-100.992 -288.72,-62.958 -322.211,-53.434c-5.297,-5.303 -13.452,-11.287 -19.6,-15.525l0,0.001zm580.08,116.369c-30.87,9.933 -93.141,36.721 -142.083,100.991c30.944,76.967 38.298,157.999 25.552,234.607a314.04,314.04 0 0 1 -6.451,18.975c17.209,-153.353 -34.511,-247.714 -82.64,-335.238c35.986,42.313 42.707,55.813 42.707,55.813c62.01,-63.343 168.466,-79.09 168.466,-79.09l-5.55,3.941l-0.001,0.001z" fill="#bcbcbc"/>
  <path id="svg_6" d="m680.604,364.334c24.053,-81.007 -6.722,-136.76 -6.722,-136.76c-23.316,88.459 -66.815,153.739 -160.074,203.164c-67.48,35.757 -184.621,42.162 -184.621,42.162l159.068,87.624c97.409,-22.433 162.52,-95.744 192.349,-196.191l0,0.001z" fill="#231815"/>
  <path id="svg_7" d="m664.598,240.419c12.637,52.681 4.766,90.391 0.158,99.212c-6.303,12.042 -30.358,-4.749 -30.358,-4.749s9.849,80.358 0.251,90.047c-9.604,9.69 -57.872,-26.518 -57.872,-26.518s22.416,85.244 6.406,96.01c-16.004,10.767 -91.891,-48.827 -91.891,-48.827s25.188,97.302 9.511,101.704c-14.037,3.946 -35.987,-2.648 -59.623,-13.65l-36.806,-19.547c-26.208,-15.358 -50.584,-32.26 -64.74,-42.439c30.327,-1.775 103.497,-10.437 167.939,-52.179c85.586,-55.439 140.61,-122.897 157.026,-179.065l-0.001,0.001z" fill="#fff"/>
  <path id="svg_8" d="m496.533,506.619c97.632,60.955 125.441,167.458 69.942,244.77c-55.504,77.318 -164.2,83.488 -251.675,8.389c-78.682,-67.556 -114.492,-180.069 -68.701,-243.857c45.802,-63.799 162.614,-64.125 250.434,-9.302z" stroke-width="35.31" stroke="#231815" fill="#2d0a03"/>
  <path id="svg_9" d="m610.523,624.884c-17.758,-59.853 -65.458,-114.001 -127.607,-144.858c-100.814,-50.036 -215.487,-27.802 -261.054,50.64c-44.632,76.809 -7.328,187.739 84.911,252.539c54.082,37.989 118.993,54.751 176.127,45.969a188.204,188.204 0 0 0 12.059,-2.258c45.124,-10.033 80.536,-35.234 102.406,-72.88c21.974,-37.818 26.645,-83.687 13.158,-129.153l0,0.001z" fill="#231815"/>
  <path id="svg_10" d="m471.194,494.97c102.997,51.127 153.655,163.949 105.791,246.336c-47.864,82.381 -168.268,89.603 -262.504,23.402c-84.763,-59.543 -118.342,-158.487 -78.851,-226.459s142.925,-89.265 235.564,-43.28l0,0.001z" fill="#f8c100"/>
  <path id="svg_11" d="m444.805,479.517s-166.65,37.652 -175.651,245.539l6.716,9.136s-7.64,-64.231 65.337,-158.72c58.02,-75.121 106.825,-93.1 106.825,-93.1l-3.227,-2.855z" fill="#231815"/>
  <path id="svg_12" d="m196.833,705.283c-108.137,-54.934 -177.719,-127.57 -159.392,-170.634c20.323,-47.756 141.022,-41.061 269.581,14.958a687.116,687.116 0 0 1 30.369,14.144c3.265,-4.671 6.645,-9.363 10.287,-13.89a780.404,780.404 0 0 0 -36.39,-17.005c-146.043,-63.633 -283.154,-71.242 -306.239,-16.989c-16.276,38.238 28.466,96.99 107.443,150.629c31.118,21.133 65.288,30.165 84.342,38.786l-0.001,0.001z" fill="#231815"/>
  <path id="svg_13" d="m626.083,527.481c-43.177,57.667 -111.594,94.915 -188.602,94.915c-5.857,0 -11.654,-0.21 -17.397,-0.631l-0.109,-0.133c37.982,47.187 95.849,77.323 160.672,77.323c99.245,0 182.181,-70.622 202.406,-164.907l-156.97,-6.567z" fill="#f0f1f2"/>
  <path id="svg_14" d="m454.2,635.335l0,0.181c5.46,4.686 11.13,9.107 17.019,13.205c7.443,5.052 15.127,9.756 23.188,13.696c8.007,4.056 16.314,7.46 24.807,10.287c8.428,2.999 17.085,5.351 25.863,7.111c8.778,1.787 17.692,2.889 26.656,3.381l8.827,0.343c-0.263,0.011 0.738,-0.011 -0.558,0.017l0.109,0l0.23,-0.006l0.908,-0.039l3.626,-0.127l14.405,-0.47c8.542,-0.902 17.162,-1.688 26.098,-3.769c4.468,-0.703 8.794,-1.998 13.125,-3.287c4.342,-1.251 8.739,-2.38 12.907,-4.178c4.178,-1.754 8.592,-2.972 12.704,-4.914l12.409,-5.761c7.963,-4.46 16.008,-8.909 23.418,-14.399c3.877,-2.512 7.465,-5.401 11.08,-8.295c3.648,-2.855 7.334,-5.7 10.615,-8.998c7.028,-6.148 13.175,-13.181 19.48,-20.187c5.885,-7.327 11.786,-14.759 16.779,-22.888c2.767,-3.907 4.938,-8.146 7.345,-12.307c2.428,-4.15 4.774,-8.373 6.645,-12.822c4.299,-8.694 7.755,-17.786 11.168,-27.06c-1.449,9.69 -2.581,19.65 -5.447,29.207c-1.099,4.892 -2.702,9.612 -4.419,14.321c-1.641,4.737 -3.216,9.551 -5.507,14.017c-3.97,9.291 -8.975,18.046 -14.121,26.828c-5.704,8.367 -11.589,16.706 -18.398,24.315c-3.183,4.018 -6.814,7.598 -10.446,11.211c-3.577,3.663 -7.203,7.31 -11.271,10.42c-7.733,6.779 -16.237,12.54 -24.796,18.3c-8.882,5.18 -17.807,10.431 -27.394,14.349c-4.665,2.263 -9.582,3.846 -14.476,5.534c-4.878,1.732 -9.773,3.442 -14.843,4.543c-5.075,1.168 -9.926,2.728 -15.226,3.547l-15.904,2.463c-5.031,0.548 -9.718,0.719 -14.597,0.991l-4.534,0.238l-1.613,0.022l-1.947,-0.033l-7.788,-0.166c-10.38,-0.393 -20.749,-1.5 -30.992,-3.392c-10.249,-1.865 -20.377,-4.444 -30.271,-7.769c-19.77,-6.757 -38.332,-16.795 -55.368,-28.82c-8.406,-6.17 -16.647,-12.634 -24.009,-20.054c-3.974,-3.797 -7.718,-7.824 -11.319,-11.974c-4.158,-3.352 -9.463,-9.959 -10.28,-12.51l-0.002,-0.007c-4.189,-6.035 -3.208,-14.414 2.461,-19.266a14.094,14.094 0 0 1 13.078,-2.858c0.251,0.02 0.537,0.052 0.86,0.096l10.826,0.676c3.921,0.31 9.062,0.05 13.541,0.116c9.27,-0.266 18.545,-0.802 27.799,-1.981l13.809,-2.258l13.672,-3.171c8.996,-2.584 18.069,-5.152 26.863,-8.644c4.348,-1.832 8.854,-3.392 13.082,-5.545c4.293,-2.031 8.625,-4.023 12.775,-6.369a208.188,208.188 0 0 0 24.665,-14.831c4.052,-2.645 7.832,-5.65 11.753,-8.528c3.998,-2.806 7.558,-6.12 11.37,-9.208c7.317,-6.369 14.591,-13.154 21.444,-20.381c-5.234,8.445 -10.61,16.889 -17.047,24.714c-3.265,3.807 -6.322,7.869 -9.855,11.46c-3.434,3.708 -6.88,7.443 -10.681,10.78a221.581,221.581 0 0 1 -23.511,19.418c-4.074,3.104 -8.46,5.7 -12.786,8.439c-4.277,2.839 -8.871,5.086 -13.344,7.614c-9.078,4.776 -18.458,9.075 -28.16,12.584l-14.728,4.765l-15.034,3.791c-8.825,1.823 -17.738,3.418 -26.738,4.289l0.001,0.003zm106.172,-488.271c0,70.621 -55.246,127.873 -123.399,127.873c-68.148,0 -123.394,-57.251 -123.394,-127.873c0,-70.627 55.246,-127.879 123.394,-127.879c68.153,0 123.399,57.251 123.399,127.879z" fill="#231815"/>
  <path id="svg_15" d="m560.372,162.855c0,61.903 -48.424,112.085 -108.159,112.085s-108.159,-50.182 -108.159,-112.085c0,-61.903 48.424,-112.085 108.159,-112.085s108.159,50.182 108.159,112.085z" fill="#e9e9e9"/>
  <path id="svg_16" d="m556.487,161.403c0,54.908 -44.622,99.415 -99.662,99.415s-99.662,-44.506 -99.662,-99.415c0,-54.908 44.622,-99.421 99.662,-99.421s99.662,44.512 99.662,99.421z" fill="#fff"/>
  <path id="svg_17" d="m539.742,161.403c0,45.681 -37.125,82.713 -82.919,82.713c-45.789,0 -82.914,-37.032 -82.914,-82.713s37.125,-82.713 82.914,-82.713c45.795,0 82.919,37.032 82.919,82.713z" fill="#231815"/>
  <path id="svg_18" d="m552.151,167.872c0,23.997 -19.506,43.459 -43.567,43.459c-24.056,0 -43.562,-19.462 -43.562,-43.459c0,-24.003 19.506,-43.459 43.562,-43.459c24.061,0 43.567,19.456 43.567,43.459zm-135.882,-31.887c0,13.416 -10.903,24.298 -24.357,24.298c-13.449,0 -24.357,-10.882 -24.357,-24.298s10.909,-24.298 24.357,-24.298c13.454,0 24.357,10.882 24.357,24.298z" fill="#fff"/>
 </g>
</svg>