<?xml version="1.0" encoding="utf-8"?>
<!-- Generator: Adobe Illustrator 23.0.6, SVG Export Plug-In . SVG Version: 6.00 Build 0)  -->
<svg version="1.1" id="图层_1" xmlns="http://www.w3.org/2000/svg" xmlns:xlink="http://www.w3.org/1999/xlink" x="0px" y="0px"
	 viewBox="0 0 52.5 43" style="enable-background:new 0 0 52.5 43;" xml:space="preserve">
<style type="text/css">
	.st0{fill:#FFFFFF;}
</style>
<title>fenbi</title>
<g>
	<g id="图层_1-2">
		<path class="st0" d="M12.8,4.1h19.1c2.3,0.3,4,2.4,4,4.7c0,5.4,0,10.8,0,16.2c0,0.4,0,0.9,0,1.3c0.1,2,1.9,3.6,3.9,3.5
			c2-0.1,3.6-1.9,3.5-3.9c0-0.1,0-0.2,0-0.3c-0.2-1.8-1.8-3.2-3.6-3.2c-1.4,0-1.4,0-1.4-1.4c0-2.2,0-4.4,0-6.5c0-1.3,0-1.3,1.3-1.3
			c6.6,0,12.1,5,12.8,11.5c0.1,0.5,0.1,0.9,0.1,1.4c0,0.8-0.1,1.7-0.3,2.5c-1.4,6.9-8.2,11.4-15.1,10c-1.4-0.3-2.7-0.8-3.9-1.5
			c-3.9-2.1-6.4-6.2-6.4-10.7c-0.1-4,0-8,0-12c0-1.5,0-1.3-1.4-1.3H13.3c-0.4,0-0.9,0.1-1.3,0.2c-1.9,0.5-2.8,1.9-2.8,4.3
			c0,2-0.1,1.7,1.6,1.7c2.4,0,4.8,0,7.2,0c2.7,0,4.9,2.2,4.9,4.9c0,0.7-0.1,1.3-0.4,1.9c-0.6,1.8-2.3,3.1-4.2,3.1
			c-1.8,0.1-3.5,0-5.3,0.1c-1.2-0.1-2.5,0-3.7,0.1c-0.4,1.2-0.1,2.5-0.2,3.7c-0.1,0.6,0,1.2-0.1,1.7c-0.2,1.9-1.5,3.5-3.4,4
			c-1.9,0.5-4-0.4-5-2.1c-0.2-0.4-0.3-0.9-0.7-1.1V15.4c0.1-0.7,0.2-1.3,0.4-1.9c1.2-4.6,5-8.2,9.7-9.2C11,4.2,11.9,4.1,12.8,4.1z"
			/>
	</g>
</g>
</svg>
