<svg xmlns="http://www.w3.org/2000/svg" viewBox="0 0 52.47 34.8"><defs><style>.cls-1{fill:#fff;}</style></defs><title>fenbi</title><g id="图层_2" data-name="图层 2"><g id="图层_1-2" data-name="图层 1"><path class="cls-1" d="M12.8,0,31.94,0a4.67,4.67,0,0,1,4,4.71c0,5.41,0,10.81,0,16.22a11.76,11.76,0,0,0,0,1.33,3.67,3.67,0,1,0,7.3-.71,3.62,3.62,0,0,0-3.62-3.23c-1.37,0-1.37,0-1.37-1.39,0-2.17,0-4.35,0-6.52,0-1.3,0-1.3,1.33-1.31a12.91,12.91,0,0,1,12.8,11.53A13.54,13.54,0,0,1,52.47,22a19.82,19.82,0,0,1-.28,2.48,12.83,12.83,0,0,1-19,8.57,12.2,12.2,0,0,1-6.39-10.67c-.11-4,0-8,0-12,0-1.51,0-1.34-1.4-1.34H13.3A5.71,5.71,0,0,0,12,9.21c-1.88.47-2.82,1.87-2.83,4.25,0,2-.15,1.73,1.65,1.74,2.39,0,4.79,0,7.18,0A4.92,4.92,0,0,1,22.57,22a4.58,4.58,0,0,1-4.23,3.13c-1.76.08-3.54,0-5.31.06a16.87,16.87,0,0,0-3.69.13c-.42,1.21-.09,2.45-.18,3.67-.05.58,0,1.16-.07,1.73a4.46,4.46,0,0,1-3.4,3.95,4.56,4.56,0,0,1-5-2.09c-.23-.36-.25-.85-.66-1.11V11.28A6.71,6.71,0,0,1,.47,9.37,12.72,12.72,0,0,1,10.13.21,23.75,23.75,0,0,1,12.8,0Z"/></g></g></svg>