<svg xmlns="http://www.w3.org/2000/svg" width="124" height="26" viewBox="0 0 124 26" fill="none"><g clip-path="url(#clip0)" fill="#000"><path d="M102.096 11.627V9.1h-5.75v2.527h3.22V25.48l6.44-3.354v-2.849l-3.91 2.045v-9.695zM123.5 9.28h-7.39V.26h-2.714v9.02h-7.39v2.498h7.39V26h2.714V11.778h7.39V9.28zm-19.06-2.52l-2.356-5.72h-3.127l2.357 5.72h3.126zm-33.398 4.864V9.1h-6.55v2.524h4.03V25.48l6.413-3.35v-2.844l-3.893 2.042v-9.704zM88.546.78H77.777c-.069 3.627-1.24 6.732-2.319 8.84h2.87a24.408 24.408 0 0 0 1.791-6.528h5.901V9.62h5.626V7.172h-3.123V.78h.023z"/><path fill-rule="evenodd" clip-rule="evenodd" d="M91.218 11.7c-.069.389-.643 2.952-2.71 5.88a20.757 20.757 0 0 1-2.755 3.112c1.814 1.144 3.858 2.036 6.154 2.7V26c-3.1-.8-5.855-2.036-8.174-3.66-2.297 1.624-4.983 2.836-8.014 3.66v-2.608c2.227-.664 4.225-1.556 5.97-2.677a20.308 20.308 0 0 1-2.824-3.135c-2.073-2.873-2.665-5.394-2.773-5.856l-.006-.024h15.132zM79.6 14.125a16.13 16.13 0 0 0 1.217 1.945c.826 1.144 1.814 2.174 2.916 3.112 1.079-.938 2.043-1.968 2.847-3.112a15.49 15.49 0 0 0 1.171-1.945H79.6z"/><path d="M73.369 6.76l-2.357-5.72h-3.126l2.356 5.72h3.127z"/><path fill-rule="evenodd" clip-rule="evenodd" d="M22.87 12.17V7.02h-9.209v5.149H9.399v13.808h2.498V14.653h1.764v8.476h9.21v-8.454h1.786V26h2.497V12.169H22.87zm-6.826-2.666h4.444v2.665h-4.444V9.504zm0 11.119h4.444v-5.97h-4.444v5.97z"/><path d="M18.24.26h-2.994l.914 2.297H9.44V1.056L.914 2.443v2.296l3.589-.568v3.73H.914v2.296h3.589-.526L0 22.839h2.331l2.172-6.821V26h2.491V10.197H9.44V7.9H6.994V3.762l2.446-.41v1.706h17.714V2.557h-8L18.24.26zm29.834 22.705v-5.596h8.829V14.9h-8.829v-3.85h8.829V8.58H37.406v2.47h8.162v11.167c-4.184-1.63-5.978-4.462-6.207-4.848a25.55 25.55 0 0 0 .39-3.67h-2.345a24.48 24.48 0 0 1-.437 3.716 20.3 20.3 0 0 1-1.126 3.67c-.575 1.336-1.31 2.469-2.161 3.375l1.908 1.517c.943-1.087 1.747-2.378 2.391-3.85.23-.499.414-1.043.598-1.586 1.563 1.676 4.391 3.896 8.897 4.848 2.76.588 7.565.611 11.29.611h1.287v-2.47h-.598c-3.495-.022-8.737-.022-11.38-.565zM47.18 0h-2.992l.914 2.317H34.364v.023h-.16V7.8h2.49V4.84h20.608V7.8h2.49V2.317H48.095L47.18 0z"/></g><defs><clipPath id="clip0"><path fill="#fff" d="M0 0h124v26H0z"/></clipPath></defs></svg>