<?xml version="1.0" standalone="no"?><!DOCTYPE svg PUBLIC "-//W3C//DTD SVG 1.1//EN" "http://www.w3.org/Graphics/SVG/1.1/DTD/svg11.dtd"><svg t="1599643405264" class="icon" viewBox="0 0 1024 1024" version="1.1" xmlns="http://www.w3.org/2000/svg" p-id="2007" xmlns:xlink="http://www.w3.org/1999/xlink" width="200" height="200"><defs><style type="text/css"></style></defs><path d="M436.8 136s-81.6-3.2-136 62.4-12.8 169.6 12.8 224c25.6 52.8 153.6 260.8 160 267.2 6.4 3.2 9.6 3.2 9.6 0s16-302.4 3.2-377.6c-9.6-75.2-43.2-166.4-49.6-176zM152 273.6c-9.6 0-75.2 68.8-81.6 132.8-6.4 65.6 22.4 110.4 100.8 160 78.4 56 264 156.8 270.4 152 3.2-9.6-72-145.6-136-243.2-60.8-97.6-144-201.6-153.6-201.6z m25.6 604.8c56 25.6 145.6-32 169.6-48 22.4-19.2 65.6-51.2 65.6-51.2l-320 11.2s28.8 64 84.8 88z m9.6-257.6C131.2 592 11.2 526.4 8 526.4S-14.4 608 24 672s110.4 81.6 142.4 84.8c38.4 6.4 256 3.2 256 0-8-3.2-177.6-107.2-235.2-136zM720 198.4c-52.8-65.6-136-62.4-136-62.4-6.4 9.6-41.6 100.8-51.2 176-12.8 72 3.2 371.2 3.2 377.6 0 3.2 6.4 6.4 9.6 0 6.4-3.2 136-214.4 160-267.2 27.2-54.4 64-155.2 14.4-224z m296 328c-3.2 0-123.2 65.6-179.2 94.4-56 28.8-230.4 132.8-230.4 136 0 3.2 217.6 6.4 256 0 32-6.4 104-25.6 142.4-84.8 33.6-64 14.4-145.6 11.2-145.6zM672 832c25.6 16 113.6 72 169.6 48 56-25.6 88-88 88-88L608 782.4c1.6-1.6 43.2 30.4 64 49.6z m278.4-422.4c-6.4-65.6-72-132.8-81.6-132.8-9.6 0-91.2 104-152 201.6-62.4 97.6-139.2 233.6-136 243.2 3.2 9.6 192-94.4 270.4-152 76.8-52.8 105.6-97.6 99.2-160z" fill="#ffffff" p-id="2008"></path></svg>