<svg xmlns="http://www.w3.org/2000/svg" viewBox="0 0 83 83"><defs><style>.cls-1{fill:none;}.cls-2{fill:#0566a1;}.cls-3{fill:#e60213;}.cls-4{fill:#fefefe;}</style></defs><title>ityxb</title><g id="图层_2" data-name="图层 2"><g id="图层_1-2" data-name="图层 1"><rect class="cls-1" width="83" height="83"/><path class="cls-2" d="M23.6,58.27a1.34,1.34,0,0,1-1.4.21c-.66-.15-1.43-1-1.78.39,0,.12-.79.06-1.21.08-.24,0-.51,0-.6.27s.17.4.34.54A32.77,32.77,0,0,1,21.69,62c-1.87-.07-3.21-1.39-4.89-2a4.25,4.25,0,0,0,2.1,2.16c-1.23,1.06-1.79-.43-2.61-.76A11.72,11.72,0,0,1,14,59.85c-.2-.14-.42-.33-.64-.19s-.12.49,0,.74c0,.09.11.16.14.25.13.45.81.89.34,1.34s-.89-.29-1.36-.39a1.36,1.36,0,0,0-.38,0c.41,1.12,1.58,1.53,2.15,2.43.18.28.74.41.43.89s-.64.12-1,0c-1.26-.3-2.26-1.21-3.71-1.77.57,1.34,1.84,1.61,2.47,2.69a8.14,8.14,0,0,1-3.72-1.46c-6-3.44-9.4-8-8.42-15.78A28.5,28.5,0,0,1,4.74,36.6c3.49-5.39,7.13-10.67,11.87-15A62.52,62.52,0,0,1,42.53,7.39a57.51,57.51,0,0,1,17.6-2.16c5.15.18,10.21,1,14.43,4.23,5.54,4.17,8,10,7.9,16.83-.09,6.07-2.55,11.31-5.84,16.25-4.21,6.32-10,11-16.05,15.33a114.37,114.37,0,0,1-9.93,6.49,2.11,2.11,0,0,0-1.21,2.15c.06,1.7,0,3.4,0,5.09a1.42,1.42,0,0,1-.78,1.51c-3.62,1.81-7.23,3.65-10.85,5.46-1.35.68-1.46.6-1.46-.95,0-6.36,0-12.73,0-19.09a1.72,1.72,0,0,1,1.24-1.88c9.51-4.11,18.25-9.38,25.31-17.1C66.16,36,69,32.16,69.49,27.05c.54-6-3.28-10.38-9.31-10.78a38.52,38.52,0,0,0-18.27,3.51,64.78,64.78,0,0,0-20.7,14,25.69,25.69,0,0,0-7,12.68c-1,4.58.15,6.55,4.48,9.46A28.15,28.15,0,0,0,23.6,58.27ZM9.77,63.07l.09,0V63Z"/><path class="cls-3" d="M49.3,25c.52,0,1,0,1.56,0,6.08.55,9,6.62,5.67,11.76A33,33,0,0,1,36.21,51a13.92,13.92,0,0,1-7,.45A5.52,5.52,0,0,1,24.9,45a18.05,18.05,0,0,1,4.19-8.83A31.73,31.73,0,0,1,43.61,25.78,15.33,15.33,0,0,1,49.3,25Z"/><polygon class="cls-4" points="9.77 63.07 9.86 63.03 9.86 63.12 9.77 63.07"/></g></g></svg>