<?xml version="1.0" standalone="no"?><!DOCTYPE svg PUBLIC "-//W3C//DTD SVG 1.1//EN" "http://www.w3.org/Graphics/SVG/1.1/DTD/svg11.dtd"><svg t="1644458343353" class="icon" viewBox="0 0 1120 1024" version="1.1" xmlns="http://www.w3.org/2000/svg" p-id="4268" xmlns:xlink="http://www.w3.org/1999/xlink" width="218.75" height="200"><defs><style type="text/css"></style></defs><path d="M165.647059 904.131765c-30.117647-13.251765-52.404706-39.152941-66.861177-75.896471-15.058824-39.755294-5.421176-77.101176 34.334118-130.108235 16.263529-22.287059 37.345882-57.825882 45.778824-78.908235 14.456471-33.731765 16.263529-45.778824 16.263529-110.230589 0-86.136471-10.24-119.868235-57.825882-181.308235-16.263529-21.684706-33.731765-50.597647-38.550589-64.451765-28.310588-78.908235 46.381176-168.658824 131.312942-159.021176 67.463529 8.432941 113.242353 56.621176 113.242352 121.072941 0 38.550588-9.637647 60.837647-47.585882 111.435294-42.164706 56.621176-51.2 87.943529-51.2 178.296471 0 71.077647 1.204706 81.317647 15.058824 111.435294 8.432941 18.070588 22.287059 41.562353 30.72 51.2 8.432941 10.24 23.491765 31.322353 34.334117 47.585882 15.661176 25.298824 18.672941 36.141176 18.672941 67.46353 0 31.924706-3.011765 41.562353-19.275294 66.258823-25.901176 38.550588-58.428235 56.621176-101.195294 56.621177-19.275294 0-43.369412-4.818824-57.223529-11.444706zM831.247059 908.950588c-48.790588-19.877647-78.305882-63.849412-78.305883-116.85647 0-36.743529 7.830588-55.416471 40.357648-98.18353 12.047059-15.661176 30.117647-45.778824 40.357647-67.463529 17.468235-37.345882 18.070588-42.767059 18.672941-117.458824 0-75.896471-0.602353-79.510588-19.275294-119.265882-10.842353-22.287059-28.912941-52.404706-39.755294-66.258824-30.72-37.345882-40.357647-60.235294-40.357648-94.569411 0-73.487059 63.247059-132.517647 133.12-124.687059 56.018824 6.625882 91.557647 33.731765 111.435295 85.534117 17.468235 46.983529 8.432941 75.896471-51.802353 156.611765-51.802353 70.475294-63.247059 209.016471-22.889412 289.129412 6.625882 13.251765 25.298824 41.562353 40.357647 63.247059 40.357647 55.416471 47.585882 81.92 34.334118 123.482353-18.672941 60.837647-61.44 93.967059-119.265883 92.762353-17.468235 0-38.550588-3.011765-46.983529-6.02353zM502.964706 622.832941c-50.597647-18.672941-77.703529-62.042353-74.089412-119.868235 3.011765-47.585882 21.082353-76.498824 60.235294-96.978824 84.931765-43.369412 179.501176 11.444706 179.501177 104.809412 0 87.943529-81.317647 142.757647-165.647059 112.037647z" fill="#4A4A4F" p-id="4269"></path></svg>