<svg xmlns="http://www.w3.org/2000/svg" viewBox="0 0 53.09 52.49"><defs><style>.cls-1{fill:#fff;}</style></defs><title>nestudy</title><g id="图层_2" data-name="图层 2"><g id="图层_1-2" data-name="图层 1"><path class="cls-1" d="M19,47.23a1.62,1.62,0,0,0-.64-.06H5.66a3.93,3.93,0,0,1-2.51-.7,3.85,3.85,0,0,1-.8-.76A17.59,17.59,0,0,1,.84,43.5a1.43,1.43,0,0,0-.24-.31A2,2,0,0,1,0,41.66v-.51q0-13,0-26.07c0-2,0-4,0-6,0-.22,0-.43,0-.65A2.32,2.32,0,0,1,1.93,6.34c3-.43,6-.92,9-1.39L19,3.68l8.66-1.34,8.07-1.26,6.58-1a2.65,2.65,0,0,1,1.75.23,2.23,2.23,0,0,1,1.22,2c0,1.42,0,2.84,0,4.26v.35c0,.15.06.22.21.22h4.71A2.78,2.78,0,0,1,52.6,8.34,2.88,2.88,0,0,1,53.09,10q0,7.49,0,15V33.4q0,5.33,0,10.63A3.09,3.09,0,0,1,52.51,46a2.71,2.71,0,0,1-2,1.14,5.15,5.15,0,0,1-.55,0H29.69a2.74,2.74,0,0,1-.5,0c-.16,0-.21-.17-.1-.28.7-.69,1.29-1.46,2-2.16.37-.37.67-.82,1.07-1.18a.53.53,0,0,1,.41-.2,4.34,4.34,0,0,0,.51,0H47.55a1.49,1.49,0,0,0,1.3-.64,1.16,1.16,0,0,0,.2-.79c0-1.41,0-2.81,0-4.21q0-12.58,0-25.18a1.4,1.4,0,0,0-.68-1.26.82.82,0,0,0-.47-.13H45.59c-.26,0-.33.09-.31.32a2.71,2.71,0,0,1,0,.4q0,10.54,0,21.07A3,3,0,0,1,45,34.34a2.27,2.27,0,0,1-1.7,1.23L35,36.86a1.29,1.29,0,0,0-.82.43c-2,2.23-4,4.45-6.06,6.67l-5.82,6.42c-.54.6-1.08,1.19-1.61,1.79a1.1,1.1,0,0,1-1.09.29.7.7,0,0,1-.53-.55,2.32,2.32,0,0,1-.06-.59c0-1.2,0-2.41,0-3.61ZM4.15,41.67c.28.35.52.6.71.89a1.58,1.58,0,0,0,1.49.72H18.68c.23,0,.32-.06.32-.31,0-1.1,0-2.2,0-3.31,0-.3,0-.31-.32-.26l-5.19.81L6,41.38Z"/></g></g></svg>