<svg xmlns="http://www.w3.org/2000/svg" viewBox="0 0 102 74"><defs><style>.cls-1{fill:#fff;}.cls-2{fill:none;}</style></defs><title>pigai</title><g id="图层_2" data-name="图层 2"><g id="图层_1-2" data-name="图层 1"><path class="cls-1" d="M23.47,61.22A14.5,14.5,0,0,1,8.88,48.11,14.21,14.21,0,0,1,20.39,33l3.08-.59.74-3A17.62,17.62,0,0,1,54.67,22l2.39,2.73,3.29-1.51a11.36,11.36,0,0,1,4.77-1.07A11.51,11.51,0,0,1,71.43,24c1.91-1.19,3.47-2.06,4.51-2.6a16.16,16.16,0,0,0-17.58-2.65,22.48,22.48,0,0,0-38.86,9.5A19.07,19.07,0,0,0,4,47c0,10.51,9.05,19.09,19.56,19.09H36.29a46.55,46.55,0,0,0-3.52-4.85Z"/><path class="cls-1" d="M81.53,29.78a.66.66,0,0,0,0-.15c-1.12,1.3-2.21,2.62-3.23,4l1.2.57a14.21,14.21,0,0,1-5.73,27.06H63.47c-1.09,3-1.63,4.79-1.65,4.85l12,0a19.05,19.05,0,0,0,7.74-36.27Z"/><path class="cls-1" d="M92.77,17.37l-.06-.06s0,.08-.07.08Z"/><polygon class="cls-1" points="91.05 15.41 90.97 15.5 91.14 15.48 91.05 15.41"/><polygon class="cls-1" points="91.05 15.89 90.97 15.97 91.12 15.89 91.05 15.89"/><path class="cls-1" d="M93.08,16.7Z"/><path class="cls-1" d="M95.51,16.09c-.69.31-1.55.4-2.08,1,.71-.26,1.46-.61,2.08-.88Z"/><path class="cls-1" d="M92.86,17.2c.13-.05.29-.09.44-.16C93.12,17.09,93,17,92.86,17.2Z"/><path class="cls-1" d="M91.8,20.5a.47.47,0,0,1,.16,0l-.16,0Z"/><path class="cls-1" d="M90,21.45c.24-.09.2-.22.44-.24s.48-.16.73-.25c.09-.08.17-.22.33-.17-.07-.24.31-.05.28-.29-.26.09-.55.24-.83.35C90.74,21.25,90.15,21,90,21.45Z"/><path class="cls-1" d="M94.29,17.15a10.69,10.69,0,0,0,1.66-.7A3.8,3.8,0,0,0,94.29,17.15Z"/><path class="cls-1" d="M95.53,16s.22,0,.26-.11C95.68,15.94,95.55,15.92,95.53,16Z"/><path class="cls-1" d="M93.32,19.86c-.35.24-1,.35-1.14.55A3.34,3.34,0,0,0,93.32,19.86Z"/><polygon class="cls-1" points="96.78 15.12 97.05 15.08 96.96 15.08 96.78 15.12"/><path class="cls-1" d="M96.58,16.18,97,16C96.8,15.92,96.69,16.14,96.58,16.18Z"/><path class="cls-1" d="M93.48,19.6c0,.06,0,.13-.09.15.13.07.31,0,.46-.15C93.74,19.42,93.61,19.6,93.48,19.6Z"/><path class="cls-1" d="M98.68,14.15l0,0c.42-.2,1-.22,1.28-.51C99.54,13.76,99.14,14.07,98.68,14.15Z"/><path class="cls-1" d="M93.23,16.18c-1.32.29-2.29,1.35-3.65,1.54-.49.16-.69.47-1.19.62s-1.06.62-1.7.62c-.31.26-1,.15-1.06.64a.46.46,0,0,0-.35.15,5.34,5.34,0,0,0-.53.16.38.38,0,0,1-.11-.11c.6-.73,1.65-.69,2.27-1.37l.82-.29c-.34-.7.83-.64.83-.64h.24c-.18-.24.33-.37.52-.48.05.13,0,.29.2.29,0-.18.35,0,.31-.29-.13,0-.24.24-.4.11.2-.4.69-.48,1.06-.64,0,0,0-.06-.06-.11-.44.38-1.11.22-1.5.71-.11,0-.2,0-.31-.05A5.11,5.11,0,0,1,90,16.36c.18-.22.53-.16.62-.42-.66-.13-1.12.42-1.72.51.07,0,0,.13,0,.2s-.16.08-.27.11-.18-.09-.11-.2c-.26,0-.59.79-1,.53a2.62,2.62,0,0,1-1.12.41c-.44.4-1,.31-1.39.64v-.8c-.06.06-.44,0-.33.26-.09.16-.38.14-.47.07-.08.15-.5.18-.68.42-1.13.44-2.31,1.33-3.53,1.91-.71.42-1.37.95-2.12,1.37s-1.2,1-1.87,1.31a59.06,59.06,0,0,0-11.3,9.4h0c-1,1-2,2.1-3,3.21a99.23,99.23,0,0,0-12.46,18.4c-.11.19-4.94-5.57-8.53-8.4-.51-.4-2,0-2.42,0-1.86.31-3.72.73-5.54,1.22s-3.65,1-5.43,1.68c.22-.09-2.39.93-2.12,1.16a62.29,62.29,0,0,1,9.64,9.77,66.52,66.52,0,0,1,5,6.91H58.88a.88.88,0,0,0,.33-.39c.89-2.76,2-5.45,3.14-8.09A119.55,119.55,0,0,1,71.6,40c1.16-1.81,3.62-5.23,3.57-5.18s1.14-1.38,2.61-3.11c.24-.26.55-.61.86-1,.77-.88,1.57-1.77,2.38-2.63a2.17,2.17,0,0,1,.29-.24c.18-.44.8-.48,1-1,.62-.2.82-.83,1.51-1l.18-.22c-.06,0-.14.06-.21,0s.13-.22.21-.31,0,0-.06-.07l.06-.06c.17,0,.19.26.44.17l.55-.54v.06c.09-.33.62-.26.6-.7.5.29.74-.39,1.12-.61,0-.39.51-.2.51-.59.17.17.33.22.52,0-.12-.35.33-.18.35-.46.19,0,.54.11.62-.2l.12.05c0-.38.38-.44.56-.66l-.35,0c0,.51-.6.09-.7.57-.35,0-.5.44-.83.33a5.53,5.53,0,0,1-.87.68c-.39,0-.57.5-1,.46.66-.53,1.35-1,2-1.51a.27.27,0,0,1,.1.06.45.45,0,0,1,.12-.21l.33-.25.11,0c0-.06.06-.08.1-.13a.28.28,0,0,1,.08-.06l.11-.07a.72.72,0,0,0,.41-.2v-.06l.45-.29c.46.05.93-.48,1.31-.63l0-.07-.09-.06c.33-.18.66-.35,1-.51l-.09.14A2.33,2.33,0,0,0,93,19.12h.85v-.21c.51-.24,1.35-.61,1.28-.88-.11-.42-2.4,0-2.4,0a4.08,4.08,0,0,0-.59.11c.37-.16.72-.38,1.1-.55l-.16-.16c-.28.71-.92.27-1.32.66a1,1,0,0,1-.44.2c-.4.07-.81.13-.71.22v-.17l-.26.08a7.9,7.9,0,0,0,1.94-1l.11,0a.6.6,0,0,1-.2-.07,27.79,27.79,0,0,0-2.6,1.17l-.2-.11c0-.4.49-.33.69-.57.37.13.64-.31,1-.33.52-.18,1.07-.55,1.67-.71.22-.28.59-.17.82-.46.66-.13,1-.64,1.74-.66.35-.46,1-.44,1.56-.75s1.15-.35,1.65-.68c-.75.08-1.43.55-2.18.64A25.9,25.9,0,0,0,93.23,16.18Zm-2.31,4a.18.18,0,0,1,.11,0l.13-.07s.07,0,.09,0C91.19,20.28,91.05,20.26,90.92,20.21Zm2.29-1.1a1.19,1.19,0,0,1-.66.29l.07,0Z"/><rect class="cls-2" width="102" height="74"/></g></g></svg>