<svg xmlns="http://www.w3.org/2000/svg" width="48" height="48" viewBox="0 0 48 48">
    <g fill="none" fill-rule="evenodd">
        <g>
            <path fill="#1E6FFF" d="M38.271 0H7.893c-.419 0-.778.3-.85.714L.012 40.578c-.093.529.314 1.013.85 1.013H17.61l1.327-.411h7.777l1.087.411h12.9c.42 0 .778-.3.85-.713l5.782-32.79L38.271 0z" transform="translate(-733 -8043) translate(733 8046)"/>
            <path fill="#00DCFF" d="M37.874 8.088h9.46L38.27 0l-1.247 7.075c-.094.528.313 1.013.85 1.013" transform="translate(-733 -8043) translate(733 8046)"/>
            <path fill="#FFF" d="M24.649 1.707L22.95 11.375 6.377 11.403 13.578 19.194 21.569 19.194 17.61 41.591 27.801 41.591 31.764 19.194 43.796 19.194 44.215 19.184z" transform="translate(-733 -8043) translate(733 8046)"/>
        </g>
    </g>
</svg>
