<svg xmlns="http://www.w3.org/2000/svg" viewBox="0 0 95 95"><defs><style>.cls-1{fill:none;}.cls-2{fill:#fff;}</style></defs><title>unipus</title><g id="图层_2" data-name="图层 2"><g id="图层_1-2" data-name="图层 1"><rect class="cls-1" width="95" height="95"/><path class="cls-2" d="M76.67,61.14c-.12,9.17-3.53,15.93-10.12,20.8-8.74,6.46-18.67,9-29,5.29C26.88,83.36,16.8,74,16.77,59c0-16.15,0-32.31-.05-48.46,0-2.33.49-3.3,2.93-3.07a39.41,39.41,0,0,0,7,0c2.45-.23,2.95.76,2.93,3.08-.1,14.45.29,28.91-.15,43.35C29,67.93,38,76.54,53.39,74.41c8.6-1.19,15-5.88,21.16-11.36Z"/><path class="cls-2" d="M61.83,64.45A19.76,19.76,0,0,0,64,55.39c-.05-8.64.05-17.29-.08-25.93,0-2.28.67-2.95,2.85-2.83,3.13.18,6.27,0,9.4.05.88,0,2-.11,1.94,1.23-.32,7.79,1.1,15.69-1.29,23.35C74.56,58.44,69.13,62,61.83,64.45Z"/><path class="cls-2" d="M70.79,21.23c-7,0-7,0-7-7.3,0-6.47,0-6.47,6.52-6.47,7.91,0,7.91,0,7.91,6.46C78.19,21.23,78.19,21.23,70.79,21.23Z"/></g></g></svg>