<?xml version="1.0" encoding="utf-8"?>
<!-- Generator: Adobe Illustrator 23.0.6, SVG Export Plug-In . SVG Version: 6.00 Build 0)  -->
<svg version="1.1" id="图层_1" xmlns="http://www.w3.org/2000/svg" xmlns:xlink="http://www.w3.org/1999/xlink" x="0px" y="0px"
	 viewBox="0 0 200 200" style="enable-background:new 0 0 200 200;" xml:space="preserve">
<style type="text/css">
	.st0{fill:#FFFFFF;}
</style>
<path class="st0" d="M104,36v69.5c0,21.2-17.2,38.4-38.4,38.4h0c-21.2,0-38.4-17.2-38.4-38.4V36H1.3v67.6
	c0,35.5,28.8,64.2,64.2,64.2h0c35.5,0,64.2-28.8,64.2-64.2V36H104z"/>
<polygon class="st0" points="200,54.6 181.5,54.6 181.5,36 168.2,36 168.2,54.6 149.7,54.6 149.7,67.8 168.2,67.8 168.2,86.4 
	181.5,86.4 181.5,67.8 200,67.8 "/>
</svg>
