<svg xmlns="http://www.w3.org/2000/svg" viewBox="0 0 168.46 168.56"><defs><style>.cls-1{fill:#e50112;}</style></defs><title>wanfang</title><g id="图层_2" data-name="图层 2"><g id="图层_1-2" data-name="图层 1"><path class="cls-1" d="M0,84.25V1.16C0,0,0,0,1.15,0H167.49c1,0,.95,0,.95,1q0,83.39,0,166.77c0,.62-.16.89-.8.83a11,11,0,0,0-1.15,0H.75c-.63,0-.75-.19-.75-.77Q0,126,0,84.25Zm20.42-.12V147c0,.91,0,.93,1,.93H65.92c1.07,0,1.07,0,1.07-1.07V21.52c0-1.1,0-1.1-1.11-1.1H21.32c-.52,0-.91,0-.91.74Q20.44,52.65,20.43,84.13ZM117.82,148H147c.89,0,1-.05,1-.91q0-26.28,0-52.55c0-.6-.19-.78-.78-.78H88.6c-.59,0-.78.17-.78.78q0,16.35,0,32.71,0,9.92,0,19.84c0,.57.06.93.81.92Q103.24,148,117.82,148Zm0-75.15q14.63,0,29.26,0c.68,0,.85-.21.85-.86q0-25.38,0-50.75c0-.64-.2-.81-.82-.81q-29.25,0-58.51,0c-.63,0-.82.18-.82.81q0,25.38,0,50.75c0,.66.19.87.86.86Q103.28,72.8,117.86,72.82Z"/></g></g></svg>