<?xml version="1.0" standalone="no"?><!DOCTYPE svg PUBLIC "-//W3C//DTD SVG 1.1//EN" "http://www.w3.org/Graphics/SVG/1.1/DTD/svg11.dtd"><svg t="1644459036202" class="icon" viewBox="0 0 1024 1024" version="1.1" xmlns="http://www.w3.org/2000/svg" p-id="6877" xmlns:xlink="http://www.w3.org/1999/xlink" width="200" height="200"><defs><style type="text/css"></style></defs><path d="M766.96295348 26.54814815c80.14567348 0 109.20846222 8.34491733 138.50912237 24.0153031 29.29944652 15.66917215 52.29530075 38.66502637 67.9644729 67.9644729l2.76828917 5.33632948C990.08876089 151.53865008 997.45185185 181.74831882 997.45185185 257.03704652v509.92590696l-0.09223585 14.01984949c-0.94663111 69.65020445-9.20173985 96.96415289-23.92306725 124.48927288-15.66917215 29.29944652-38.66502637 52.29530075-67.9644729 67.9644729l-5.33632948 2.76828917C872.46134992 990.08876089 842.25168118 997.45185185 766.96295348 997.45185185H257.03704652l-14.01984949-0.09223585c-69.65020445-0.94663111-96.96415289-9.20173985-124.48927288-23.92306725-29.29944652-15.66917215-52.29530075-38.66502637-67.9644729-67.9644729l-2.76828917-5.33632948c-13.43488-26.78237867-20.76520297-55.93861689-21.22395497-126.02694162L26.54814815 257.03704652c0-80.14567348 8.34491733-109.20846222 24.0153031-138.50912237 15.66917215-29.29944652 38.66502637-52.29530075 67.9644729-67.9644729l5.33632948-2.76828917c26.78237867-13.43488 55.93861689-20.76520297 126.02694162-21.22395497L766.96295348 26.54814815z" fill="#FFFFFF" p-id="6878"></path><path d="M766.96295348 26.54814815c80.14567348 0 109.20846222 8.34491733 138.50912237 24.0153031 29.29944652 15.66917215 52.29530075 38.66502637 67.9644729 67.9644729l2.76828917 5.33632948C990.08876089 151.53865008 997.45185185 181.74831882 997.45185185 257.03704652v509.92590696l-0.09223585 14.01984949c-0.94663111 69.65020445-9.20173985 96.96415289-23.92306725 124.48927288-15.66917215 29.29944652-38.66502637 52.29530075-67.9644729 67.9644729l-5.33632948 2.76828917C872.46134992 990.08876089 842.25168118 997.45185185 766.96295348 997.45185185H257.03704652l-14.01984949-0.09223585c-69.65020445-0.94663111-96.96415289-9.20173985-124.48927288-23.92306725-29.29944652-15.66917215-52.29530075-38.66502637-67.9644729-67.9644729l-2.76828917-5.33632948c-13.43488-26.78237867-20.76520297-55.93861689-21.22395497-126.02694162L26.54814815 257.03704652c0-80.14567348 8.34491733-109.20846222 24.0153031-138.50912237 15.66917215-29.29944652 38.66502637-52.29530075 67.9644729-67.9644729l5.33632948-2.76828917c26.78237867-13.43488 55.93861689-20.76520297 126.02694162-21.22395497L766.96295348 26.54814815z m5.72833185 107.88924682H251.30871467l-15.51261392 0.16384c-39.77428385 0.74274133-53.00284682 3.92851911-66.39403616 11.09014755-10.50032355 5.6154643-18.09521778 13.21157215-23.7118957 23.7118957-8.02209185 14.99803497-11.0549523 29.79218015-11.25398756 81.90665008v521.3801434l0.16384 15.51261393c0.74274133 39.77428385 3.92851911 53.00284682 11.09014756 66.39403615 5.6154643 10.50032355 13.21157215 18.09521778 23.7118957 23.7118957 14.99803497 8.02209185 29.79218015 11.0549523 81.90665008 11.25398755l515.65302518 0.0121363c56.78573037 0 72.09930903-2.95882903 87.6337683-11.26612385 10.50032355-5.6154643 18.09521778-13.21157215 23.7118957-23.7118957 8.02209185-14.99803497 11.0549523-29.79218015 11.25398756-81.90665008l0.01213629-515.65302518c0-56.78573037-2.95882903-72.09930903-11.26612385-87.6337683-5.6154643-10.50032355-13.21157215-18.09521778-23.7118957-23.7118957-14.99803497-8.02209185-29.79218015-11.0549523-81.90665007-11.25398755z m-462.96329481 490.83429925c49.15321363 0 89.00031525 39.84710163 89.00031526 89.00031526 0 49.152-39.84710163 88.99910163-89.00031526 88.99910163-49.152 0-88.99910163-39.845888-88.99910163-88.99910163s39.845888-89.00031525 88.99910163-89.00031526z" fill="#000000" p-id="6879"></path></svg>