<svg xmlns="http://www.w3.org/2000/svg" viewBox="0 0 328.79 83.54"><defs><style>.cls-1{fill:#fff;}</style></defs><title>wosnew</title><g id="图层_2" data-name="图层 2"><g id="图层_1-2" data-name="图层 1"><path class="cls-1" d="M55.83,26.63a7.46,7.46,0,0,0,7.53-5.27h6.07a13.64,13.64,0,0,1-13.6,10.35A14,14,0,0,1,41.35,17.35,14,14,0,0,1,55.83,3a13.65,13.65,0,0,1,13.6,10.36H63.36a7.47,7.47,0,0,0-7.53-5.28,8.67,8.67,0,0,0-8.73,9.28,8.65,8.65,0,0,0,8.73,9.28Z"/><polygon class="cls-1" points="77.41 31.24 72.29 31.24 72.29 3.47 77.41 3.47 77.41 31.24"/><path class="cls-1" d="M91.61,19.14c0-1.31-1-2.14-3-2.14a12.3,12.3,0,0,0-5.47,1.7l-2-3.89a15.72,15.72,0,0,1,7.78-2.22c4.12,0,7.89,1.91,7.89,6.71V31.24H91.61V29.53a6.14,6.14,0,0,1-5.08,2.18A6,6,0,0,1,80.18,26c0-3.45,2.54-5.59,6.59-5.59h3.57c.87,0,1.27-.4,1.27-1.07Zm0,5.59V23.42a2.25,2.25,0,0,1-1.59.4H88.08c-1.63,0-2.58.71-2.58,2s1,2.14,2.58,2.14a3.1,3.1,0,0,0,2.5-.79,3.17,3.17,0,0,0,1-2.42Z"/><path class="cls-1" d="M111,18.15h-2.18c-2.62,0-3.81,1.23-3.81,4.4v8.69H99.82V13.07h5V16a4.77,4.77,0,0,1,4.72-3.14A6.12,6.12,0,0,1,111,13Z"/><path class="cls-1" d="M121.08,31.24h-5.16V17.43h-2.54V13.07h7.7ZM118.26,3.47a3.31,3.31,0,0,1,3.33,3.33,3.31,3.31,0,1,1-3.33-3.33Z"/><polygon class="cls-1" points="132.66 25.68 136.79 13.07 142.22 13.07 135.75 31.24 129.37 31.24 123.18 13.07 128.77 13.07 132.66 25.68"/><path class="cls-1" d="M153.88,19.14c0-1.31-1-2.14-3-2.14a12.34,12.34,0,0,0-5.48,1.7l-2-3.89a15.65,15.65,0,0,1,7.77-2.22c4.13,0,7.9,1.91,7.9,6.71V31.24h-5.16V29.53a6.13,6.13,0,0,1-5.08,2.18A5.95,5.95,0,0,1,142.46,26c0-3.45,2.54-5.59,6.58-5.59h3.57c.88,0,1.27-.4,1.27-1.07Zm0,5.59V23.42a2.22,2.22,0,0,1-1.58.4h-2c-1.62,0-2.58.71-2.58,2s1,2.14,2.58,2.14a3.12,3.12,0,0,0,2.51-.79,3.16,3.16,0,0,0,1-2.42Z"/><path class="cls-1" d="M169,6.17v6.9h3.93v4.36H169v8.21c0,1.15.92,1.31,1.71,1.31,1.31,0,2.38-.12,2.38-.12v4.41s-2.5.23-4,.23c-2.57,0-5.23-.43-5.23-4.08v-10H161V13.07h2.86V6.17Z"/><path class="cls-1" d="M193.51,23.66H180a4.32,4.32,0,0,0,7.82,1.79l5.35.55a9.74,9.74,0,0,1-18.6-3.85A9.22,9.22,0,0,1,184,12.59c5,0,9.52,3.26,9.52,10.87Zm-13.65-3.45H188a3.93,3.93,0,0,0-4-3.33A4.06,4.06,0,0,0,179.86,20.21Z"/><path class="cls-1" d="M26.11,19.32A28.62,28.62,0,0,1,10.5,27.37a28.47,28.47,0,0,0,4,7.29,36.68,36.68,0,0,0,17.8-10.27,28.84,28.84,0,0,0-4.32-7.08c-.58.69-1.18,1.36-1.83,2"/><path class="cls-1" d="M10.5,27.37a29.13,29.13,0,0,1,.08-20.1,29.52,29.52,0,0,0-8.29-.21,36.92,36.92,0,0,0-.07,20.5,29.46,29.46,0,0,0,8.28-.19"/><path class="cls-1" d="M14.6,0a28.69,28.69,0,0,0-4,7.27,28.62,28.62,0,0,1,15.53,8c.65.64,1.25,1.31,1.83,2a28.78,28.78,0,0,0,4.32-7.07A36.77,36.77,0,0,0,14.6,0"/><path class="cls-1" d="M18.64,49.72h6.87l6.36,23.82h.05l5.31-23.82H44L35.85,83H28.22L22,59.08,15.84,83H8.2L0,49.72H7.11l5.13,23.82h0ZM67,73.88H50.76a4.93,4.93,0,0,0,5,4.29A4.67,4.67,0,0,0,60.12,76l6.42.64a10.39,10.39,0,0,1-4.28,5.16,12.49,12.49,0,0,1-6.6,1.72,11.65,11.65,0,0,1-8.21-19.68,11,11,0,0,1,8.11-3.23A10.9,10.9,0,0,1,63.71,64Q67,67.3,67,73.88ZM58.79,67a4.82,4.82,0,0,0-3.23-1.13,4.94,4.94,0,0,0-3.23,1.08,4.83,4.83,0,0,0-1.71,2.86h9.74A4.31,4.31,0,0,0,58.79,67Zm18,13.24V83H70.55V49.72h6.17V64a6,6,0,0,1,2.63-2.42,8.92,8.92,0,0,1,4.19-1A9.75,9.75,0,0,1,91,63.89a11.66,11.66,0,0,1,3,8.2,11.55,11.55,0,0,1-3,8.19,9.81,9.81,0,0,1-7.5,3.26,8.51,8.51,0,0,1-4-1A6.54,6.54,0,0,1,76.76,80.19ZM86,67.83a5.43,5.43,0,0,0-7.85,0,6,6,0,0,0-1.54,4.23,6.11,6.11,0,0,0,1.54,4.23,5.32,5.32,0,0,0,7.85,0,6.11,6.11,0,0,0,1.54-4.23A6,6,0,0,0,86,67.83Zm39.78,12.45a12,12,0,0,1-16.45,0,11.67,11.67,0,0,1,0-16.39,12,12,0,0,1,16.45,0,11.67,11.67,0,0,1,0,16.39Zm-8.2-14.13a5.05,5.05,0,0,0-3.93,1.69,6.72,6.72,0,0,0,0,8.49A5,5,0,0,0,117.59,78a5,5,0,0,0,3.88-1.69,6.69,6.69,0,0,0,0-8.49A5,5,0,0,0,117.59,66.15Zm17-5V55a5.3,5.3,0,0,1,1.7-4.39,6.86,6.86,0,0,1,4.45-1.38l4.5.28v5.66c-1.26-.15-2.11-.23-2.55-.23a2.26,2.26,0,0,0-1.46.38,1.74,1.74,0,0,0-.48,1.43v4.45H145v5.19h-4.22V82.91h-6.16V66.36h-3.4V61.17Zm44.25-7.47-3.79,4.8q-3.54-3.42-7.08-3.42a5.12,5.12,0,0,0-3,.86,2.65,2.65,0,0,0-1.24,2.29c0,1.52,1.2,2.84,3.62,3.94l2.76,1.29a19.69,19.69,0,0,1,6.37,4.33,8.47,8.47,0,0,1,2.1,5.9,9.13,9.13,0,0,1-3.15,6.92,11.8,11.8,0,0,1-8.36,2.93,16.39,16.39,0,0,1-11.89-5.07l3.63-5a13.91,13.91,0,0,0,4,2.89,9.62,9.62,0,0,0,4.15,1,5.18,5.18,0,0,0,3.36-1,3.18,3.18,0,0,0,1.27-2.59,3.46,3.46,0,0,0-1.26-2.69,16.5,16.5,0,0,0-4-2.36l-2.33-1.09q-7.28-3.42-7.28-9.33a8.23,8.23,0,0,1,3.25-6.8A12.3,12.3,0,0,1,167.91,49Q173.52,49,178.87,53.7Zm14.07,12.45A5.05,5.05,0,0,0,189,67.84a6.69,6.69,0,0,0,0,8.49A5,5,0,0,0,192.94,78a4.79,4.79,0,0,0,4.79-3.33l5.79,1.81a9.49,9.49,0,0,1-4,5.14,11.93,11.93,0,0,1-6.66,1.9,11.35,11.35,0,0,1-8.23-3.26,11.72,11.72,0,0,1,0-16.39,11.35,11.35,0,0,1,8.23-3.26,11.79,11.79,0,0,1,6.66,1.93,9.57,9.57,0,0,1,4,5.16l-5.79,1.76a5.39,5.39,0,0,0-1.87-2.42A4.89,4.89,0,0,0,192.94,66.15Zm15.64-9.69a4,4,0,0,1,0-5.59,3.76,3.76,0,0,1,2.76-1.15,3.95,3.95,0,0,1,2.8,6.74,3.86,3.86,0,0,1-2.8,1.13A3.81,3.81,0,0,1,208.58,56.46Zm6.21,4.71V83h-6.16V66.36h-3.06V61.17Zm26.49,12.71H225.06a4.93,4.93,0,0,0,5,4.29A4.69,4.69,0,0,0,234.43,76l6.42.64a10.45,10.45,0,0,1-4.28,5.16A12.53,12.53,0,0,1,230,83.54a11.65,11.65,0,0,1-8.2-19.68A11.7,11.7,0,0,1,238,64Q241.27,67.3,241.28,73.88ZM233.1,67a4.86,4.86,0,0,0-3.24-1.13,5,5,0,0,0-3.23,1.08,4.83,4.83,0,0,0-1.71,2.86h9.75A4.35,4.35,0,0,0,233.1,67Zm17.73-3.21a8.21,8.21,0,0,1,6.63-3.11,8,8,0,0,1,5.83,2.17,7.89,7.89,0,0,1,2.23,5.92V83h-6.17V70.27a3.54,3.54,0,0,0-3.71-3.91A5.84,5.84,0,0,0,251,68.84V83h-6.16V61.17h6Zm30,2.41a5.09,5.09,0,0,0-3.94,1.69,6.72,6.72,0,0,0,0,8.49A5.06,5.06,0,0,0,280.81,78a4.79,4.79,0,0,0,4.79-3.33l5.79,1.81a9.49,9.49,0,0,1-4,5.14,11.93,11.93,0,0,1-6.66,1.9,11.33,11.33,0,0,1-8.23-3.26,11.7,11.7,0,0,1,0-16.39,11.33,11.33,0,0,1,8.23-3.26,11.79,11.79,0,0,1,6.66,1.93,9.57,9.57,0,0,1,4,5.16l-5.79,1.76a5.39,5.39,0,0,0-1.87-2.42A4.89,4.89,0,0,0,280.81,66.15Zm35.63,7.73H300.23a4.76,4.76,0,0,0,1.61,3.05,4.86,4.86,0,0,0,3.38,1.24A4.68,4.68,0,0,0,309.59,76l6.42.64a10.45,10.45,0,0,1-4.28,5.16,12.5,12.5,0,0,1-6.61,1.72,11.65,11.65,0,0,1-8.2-19.68,11.7,11.7,0,0,1,16.26.11Q316.44,67.3,316.44,73.88ZM308.26,67A4.84,4.84,0,0,0,305,65.82a5,5,0,0,0-3.24,1.08,4.93,4.93,0,0,0-1.71,2.86h9.75A4.35,4.35,0,0,0,308.26,67Z"/><path class="cls-1" d="M315.72,49.89h5.55V51h-2.15v5.83h-1.28V51h-2.12Zm10.43,5.49h-1.49l-1.39-3.44v4.93H322v-7h1.9l1.54,4,1.58-4h1.78v7h-1.28V51.94Z"/></g></g></svg>