<svg xmlns="http://www.w3.org/2000/svg" viewBox="0 0 54.61 53.9"><defs><style>.cls-1{fill:#fff;}</style></defs><title>xwd</title><g id="图层_2" data-name="图层 2"><g id="图层_1-2" data-name="图层 1"><path class="cls-1" d="M32.18,25.66c-.14,2.2-3,5.45-4.53,5.53-.3,0-.73,0-.9-.14-.44-.47.15-.68.4-.88,1-.77,1.14-1.93,1.59-3a2.38,2.38,0,0,1,2.68-1.68A3.31,3.31,0,0,1,32.18,25.66Z"/><path class="cls-1" d="M14.42,3.67c.47-.21,1-1.07,1.38-.53s-.32.93-.85,1.16Z"/><path class="cls-1" d="M53.71,35.25c-.85-.52-1.15.84-1.57,1.43a18.34,18.34,0,0,1-6,5.47c-.46.26-1.07.68-1.4.23s.43-.75.74-1a26.72,26.72,0,0,0,6.78-8.18c3.44-6.69,2.89-13.34-.38-19.92-.28-.57-.69-1.25-1.4-.86s.1.89.14,1.36c.41,4.51.62,9-1.06,13.35-.32.82-.48,2.36-1.4,2s.19-1.49.41-2.24c2.77-9.71-2.51-15.4-8.69-18.23-.48-.22-1.18-.46-1.45,0s.49.71.81,1a12.68,12.68,0,0,1,4.28,12.46,19.05,19.05,0,0,1-3.7,8.57,6.78,6.78,0,0,0-1.45,5.14c.37,5-.9,9.57-5,12.92l-.62.55-.65.48c-.45.42-1,.68-1.34,0-.14-.31.62-.48.87-.74s.4-.36.65-.62a5.35,5.35,0,0,1,.63-.63,1.88,1.88,0,0,0,.46-.55c3.75-5.27,4.85-10.82,1.74-16.8A3,3,0,0,1,35.63,27c.31-.4.82-.92.27-1.33s-.95.2-1.36.51c-2,1.51-3,3.72-4.05,5.89-2.72,5.44-8,5.91-11.76,1.1a19.38,19.38,0,0,1-1-21.6c4.14-6.76,12.57-10.61,20-9.11.56.11,1.28.83,1.56,0s-.76-1.12-1.38-1.32A19.29,19.29,0,0,0,25.78.87C17.89,3.6,12.79,9.08,11,17.38a27,27,0,0,0-.08,11.25c.11.52.5,1.35-.2,1.58-.47.16-.67-.68-.88-1.13a21.19,21.19,0,0,1-1.89-7.9C7.61,14.45,10.31,9,15,4.3l-.53-.63C8.49,7.07,4.27,11.74,3.24,18.76c-.94,6.37,1.34,12,4.33,17.35.51.91,1,1.82,1.47,2.76a.91.91,0,0,1-.1.87c-.23.21-.47-.14-.69-.32a22.44,22.44,0,0,1-4.08-4.35A22.16,22.16,0,0,1,1,27.25c-.09-.38,0-1-.57-.93s-.41.6-.42,1c0,.53,0,1.05,0,1.58.83,11.42,7.08,18.92,17.11,23.7a38.69,38.69,0,0,0,8.48,1.33h4a49.88,49.88,0,0,0,8.09-1.24A27.31,27.31,0,0,0,53.25,37.5C53.56,36.77,54.44,35.69,53.71,35.25Z"/></g></g></svg>