<?xml version="1.0" standalone="no"?><!DOCTYPE svg PUBLIC "-//W3C//DTD SVG 1.1//EN" "http://www.w3.org/Graphics/SVG/1.1/DTD/svg11.dtd"><svg t="1644458186914" class="icon" viewBox="0 0 1024 1024" version="1.1" xmlns="http://www.w3.org/2000/svg" p-id="2076" xmlns:xlink="http://www.w3.org/1999/xlink" width="200" height="200"><defs><style type="text/css"></style></defs><path d="M552.96 545.28h-115.2c-23.04 0-23.04 0-23.04-23.04v-40.96H563.2V320c0-12.8-7.68-12.8-15.36-12.8H448c-17.92 0-23.04-2.56-23.04-23.04V243.2h140.8c-2.56-12.8-2.56-25.6-2.56-40.96h53.76c2.56 0 7.68 10.24 7.68 15.36 2.56 28.16 0 28.16 30.72 28.16h35.84c56.32 0 89.6 30.72 89.6 89.6v143.36c23.04-2.56 23.04 10.24 23.04 25.6-2.56 46.08 10.24 40.96-43.52 40.96h-89.6c7.68 25.6 15.36 46.08 23.04 66.56 17.92 43.52 51.2 71.68 97.28 87.04 10.24 2.56 12.8 7.68 12.8 17.92v46.08c-51.2-5.12-92.16-25.6-128-58.88-35.84-35.84-51.2-79.36-64-128-30.72 104.96-92.16 171.52-207.36 186.88V704c2.56-2.56 0 0 17.92-7.68 61.44-20.48 99.84-64 120.32-122.88 7.68-5.12 7.68-15.36 10.24-28.16z m74.24-235.52V473.6c0 2.56 7.68 7.68 12.8 7.68h61.44c12.8 0 17.92-5.12 17.92-17.92V345.6c0-23.04-12.8-35.84-35.84-35.84H627.2zM291.84 204.8h61.44v181.76h53.76v64h-15.36c-38.4 2.56-38.4 2.56-38.4 40.96v256c0 23.04 0 23.04-23.04 23.04H294.4c-2.56-192-2.56-378.88-2.56-565.76z m-43.52 550.4H192V212.48h56.32V755.2z" fill="#FFFFFF" p-id="2077"></path><path d="M998.4 711.68V25.6H296.96c-102.4 7.68-202.24 89.6-250.88 212.48-10.24 28.16-17.92 58.88-20.48 87.04v371.2c0 58.88 23.04 120.32 64 176.64 20.48 25.6 43.52 48.64 69.12 66.56 35.84 25.6 76.8 40.96 115.2 48.64h478.72c69.12-10.24 140.8-51.2 192-122.88 28.16-48.64 48.64-102.4 53.76-153.6z" fill="#3BA1FF" p-id="2078"></path><path d="M637.44 250.88l53.76 53.76s-23.04 25.6-53.76 53.76L299.52 691.2l-53.76 53.76s2.56-35.84 5.12-76.8l7.68-143.36c2.56-40.96 28.16-99.84 58.88-130.56L499.2 217.6c30.72-28.16 79.36-28.16 110.08 0l28.16 33.28z" fill="#FFFFFF" p-id="2079"></path><path d="M775.68 389.12c30.72 30.72 30.72 79.36 0 107.52L593.92 678.4c-30.72 30.72-89.6 56.32-130.56 56.32L320 742.4c-40.96 2.56-76.8 2.56-76.8 2.56s25.6-25.6 56.32-53.76l337.92-332.8c30.72-30.72 53.76-53.76 56.32-53.76l53.76 53.76 28.16 30.72z" fill="#EBF6FA" p-id="2080"></path></svg>