<?xml version="1.0" encoding="utf-8"?>
<!-- Generator: Adobe Illustrator 23.0.6, SVG Export Plug-In . SVG Version: 6.00 Build 0)  -->
<svg version="1.1" id="图层_1" xmlns="http://www.w3.org/2000/svg" xmlns:xlink="http://www.w3.org/1999/xlink" x="0px" y="0px"
	 viewBox="0 0 200 200" style="enable-background:new 0 0 200 200;" xml:space="preserve">
<style type="text/css">
	.st0{fill:#FFFFFF;}
</style>
<g>
	<path class="st0" d="M74,58.8c-2.7-1.4-5.3-0.7-7.7,0.9c-3.6,2.4-5.3,9.8-3.2,13.5c0.6,1.1,1.5,1.8,2.7,2.1c3.4,1,7.5-0.7,9.2-3.9
		c1.1-2,1.6-4.1,1.5-6.3C76.6,62.7,76.6,60.2,74,58.8z"/>
	<path class="st0" d="M101.7,61.1c-2.5,0.9-4.9,1.7-7.4,2.6c-1.3,0.5-2.6,1.1-3.4,2.3c-0.7,1-0.9,2.2-0.4,3.3
		c0.5,1.2,1.6,1.4,3.1,1.4c2.6-0.2,5.2-1.1,7.4-3.1c1.6-1.5,2.3-3.3,2.2-5.5C103.2,61,102.8,60.6,101.7,61.1z"/>
	<path class="st0" d="M143.9,28.5c-6.6-8.3-15.1-14-24.9-17.9C99,2.7,78.7,2.9,58.4,9.3c-17.5,5.5-32.3,15.2-43.1,30.3
		C7.1,51.1,3.1,64,5.3,78.3c2.3,15.1,10.6,26.3,23,34.6c13.3,8.9,28.1,12.5,43.6,12.4c3.5-0.2,6.6-0.1,9.7-0.4
		c7.6-0.7,15.2-1.3,22.7-2c5.8-0.5,11.5-0.9,17.3-1.3c1.7-0.1,1.6-0.8,0.8-1.9c-0.9-1.2-1.7-2.4-2.5-3.6c-1.7-2.5-1.7-2.5,0.9-4.1
		c12.8-7.9,23.4-18,29.4-32C158.2,61.7,156.5,44.4,143.9,28.5z M42.6,62c-4.8,11.5-9.1,23.2-15.1,34.1c-1.1,2-3,2.1-4.7,2.1
		c-1.1,0-0.4-0.9-0.2-1.4c1.4-2.7,2.8-5.5,4.3-8.2c0.8-1.5,0.7-2.8,0-4.4c-2.5-5.5-5-11.1-7.4-16.7c-0.4-0.9-1.6-2.1,0.3-2.9
		c2.3-0.9,3.8-0.7,4.5,1c1.7,4.2,3.4,8.4,5,12.6c0.3,0.7,0.6,1.5,0.9,2.2c0.2,0,0.4,0,0.6,0c2-5.3,4.1-10.6,5.9-16
		c0.8-2.5,2.1-3.9,4.7-4C42.8,60.4,43,60.8,42.6,62z M52,60.4c-0.1,6.6-0.3,13.2-0.5,19.8c-0.1,2.2-2,2-3.5,2.2
		c-1.8,0.2-1.4-1.4-1.4-2.3c-0.1-1.6,0-3.2,0-4.8c0.1,0,0.3,0,0.4,0c0-4.5,0-8.9,0-13.4c0-2,2.2-3.5,4.1-2.9
		C51.9,59.1,52,59.8,52,60.4z M48.7,55.3c-1.6,0-1.6-1-1.6-2.1c0-1.9,1-2.7,3.4-2.8c1.6-0.1,1.5,1,1.5,2C52,54.5,51,55.2,48.7,55.3z
		 M65.9,78.7c-0.4,0-0.8,0-1.1-0.2c-2-1.2-3.5-1.2-4.7,1.1c-0.3,0.6-1.1,0.7-1.8,0.5c-1-0.4-0.8-1.3-0.8-2.1c0.1-8,0.3-16,0.4-23.9
		c0-1.1,0.1-2.2,0-3.3c0-2.2,1.7-2.3,3.2-2.4c1.9-0.2,1.6,1.4,1.6,2.5c0.1,2.5,0,5,0,7.6c0.7-0.1,0.9-0.7,1.4-1
		c1.4-1.2,3-2.1,4.7-2.7c6.8-2.2,12.1,1.3,12.6,8.4C82.3,72,74.8,79.5,65.9,78.7z M110.3,70.3c-1.4,1.2-4.8,1.3-6.2,0.1
		c-1-0.9-1.5-0.6-2.4,0c-2.7,2.1-5.7,3.3-9,3.8c-3.4,0.5-6.1-0.6-7-2.8c-1.1-2.5-0.1-6.1,2.3-8.1c1.9-1.6,4.1-2.5,6.4-3.2
		c2.2-0.6,4.4-1.2,6.5-1.9c1.7-0.5,2.6-1.6,2.4-3.4c-0.3-1.9-1.8-2.3-3.3-2.2c-3.6,0.2-7,0.8-8.6,4.8c-0.6,1.6-2.3,1.5-3.6,1.5
		c-1.1,0-0.8-1-0.7-1.7c0.5-2.1,1.6-3.8,3.4-5c3.6-2.4,7.7-3.6,12-3.3c4,0.3,5.7,2.3,5.6,6.6c-0.4,3.2-0.2,6.7-0.3,10.1
		c0,1.4,0.1,2.6,2,2.4c0.6-0.1,1,0.3,1,0.9C110.9,69.3,110.8,69.9,110.3,70.3z M137.6,63.1c0,1.4-0.5,2.3-2,2.6
		c-2.3,0.4-2.8,0.1-2.8-2.2c0-4,0.1-8,0.1-12.1c0-3.6-1.6-4.9-5.2-4.2c-4,0.8-6.6,3.4-7.2,7.5c-0.6,3.9-0.2,7.7-0.4,11.6
		c0,1-0.1,2-1.3,2.5c-2.7,1.1-3.7,0.5-3.6-2.4c0.1-6,0.3-12,0.4-18c0-2,1.2-2.3,2.7-2.7c1.7-0.4,1.9,0.8,2.1,1.9
		c0.9-0.2,1.3-0.9,1.8-1.4c2-1.7,4.3-2.8,6.9-3.2c5.8-0.8,8.6,1.6,8.6,7.5C137.7,54.7,137.6,58.9,137.6,63.1z"/>
</g>
<path class="st0" d="M195,145.1c-0.5-0.6-0.6-1.2-0.2-1.8c2.8-3.4,4.1-7.5,5.1-11.7v-3.9c-0.2-0.7-0.5-1.4-0.7-2.1
	c-1.5-5.6-4.6-10.1-9.8-12.8c-12.4-6.4-28.5-0.3-33.2,12.9c-0.9,2.6-2.2,3.2-4.8,3.2c-17.6,0.2-32.8,6.5-45.7,18.4
	c-1.3,1.2-2.3,1.6-4.1,1c-7.8-2.7-15.2-1.3-21.9,3.3c-8.8,6-11.9,17-7.5,26.1c2.3,4.9,6.3,8,11.3,9.8c1.6,0.6,2.2,1.4,2.1,3.1
	c-0.1,3.4,0,6.8,0.4,10.2H200v-50.5C198.3,148.5,196.7,146.8,195,145.1z"/>
</svg>
