<svg xmlns="http://www.w3.org/2000/svg" viewBox="0 0 71.05 71.78"><defs><style>.cls-1{fill:#fdfdfd;}</style></defs><title>youxy</title><g id="图层_2" data-name="图层 2"><g id="图层_1-2" data-name="图层 1"><path class="cls-1" d="M62.62,71.06c0,.24,0,.47,0,.71a3,3,0,0,1-1.74-.56c-3.86-1.8-7.72-3.6-11.55-5.47a3.86,3.86,0,0,0-3.62,0,34.29,34.29,0,0,1-23.92,1.84A35.2,35.2,0,0,1,12.31,63c0-.06,0-.09-.1-.09a51.23,51.23,0,0,1-5.69-5.53l0,0A32.66,32.66,0,0,1,.16,41.52L.1,41C-.28,36,.51,31,.92,26c.63-7.74,1.34-15.47,2-23.2C3.12.88,4,0,5.87,0Q18.16,0,30.44,0c1.22,0,1.53.51,1.09,1.64-.28.72-.57,1.43-.85,2.15a97.39,97.39,0,0,0-5.89,16.56C23,27.1,21.68,33.89,23.5,40.85c1.5,5.75,6.39,8.94,12.3,8.25,5.74-.68,10.73-3.14,15.49-6.2a5,5,0,0,0,.66-.64,2.78,2.78,0,0,0,.58-3.66,2.88,2.88,0,0,0-3.67-1.08,8.15,8.15,0,0,0-1.32.73,33.27,33.27,0,0,1-10.37,4.54c-4,.89-6.22,0-7.81-3.17-.15-1.82-.68-3.57-.66-5.41a54.24,54.24,0,0,1,2.6-15,133,133,0,0,1,6.94-18A1.84,1.84,0,0,1,40.1,0H69.79c.94,0,1.36.36,1.24,1.34S70.91,3.11,70.85,4c-.58,6.41-1.11,12.81-1.75,19.21-.55,5.55-.59,11.15-1.81,16.62a33.94,33.94,0,0,1-5.72,12.73,5.32,5.32,0,0,0-1.09,4.32c.72,4.27,1.3,8.56,1.94,12.84A2.67,2.67,0,0,0,62.62,71.06ZM56,19.2h0a1.68,1.68,0,0,0,.4-.95,4.36,4.36,0,0,0-2.29-4.87,5,5,0,0,0-5.75,1.17,4.76,4.76,0,0,0-.84,5.75,3.93,3.93,0,0,0,4,2.15,4.79,4.79,0,0,0,4.3-2.89Z"/></g></g></svg>