<?xml version="1.0" standalone="no"?>
<!DOCTYPE svg PUBLIC "-//W3C//DTD SVG 1.1//EN" "http://www.w3.org/Graphics/SVG/1.1/DTD/svg11.dtd" >
<!--
2013-9-30: Created.
-->
<svg>
<metadata>
Created by iconfont
</metadata>
<defs>

<font id="iconfont" horiz-adv-x="1024" >
  <font-face
    font-family="iconfont"
    font-weight="500"
    font-stretch="normal"
    units-per-em="1024"
    ascent="896"
    descent="-128"
  />
    <missing-glyph />
    
    <glyph glyph-name="add" unicode="&#58880;" d="M512 725.333333a42.666667 42.666667 0 0 0 42.666667-42.666666v-256h256a42.666667 42.666667 0 1 0 0-85.333334h-256v-256a42.666667 42.666667 0 1 0-85.333334 0v256H213.333333a42.666667 42.666667 0 1 0 0 85.333334h256V682.666667a42.666667 42.666667 0 0 0 42.666667 42.666666z"  horiz-adv-x="1024" />

    
    <glyph glyph-name="arrow-down" unicode="&#58881;" d="M512 725.333333a42.666667 42.666667 0 0 0 42.666667-42.666666v-494.336l183.168 183.168a42.666667 42.666667 0 0 0 60.330666-60.330667l-256-256a42.666667 42.666667 0 0 0-60.330666 0l-256 256a42.666667 42.666667 0 1 0 60.330666 60.330667L469.333333 188.330667V682.666667a42.666667 42.666667 0 0 0 42.666667 42.666666z"  horiz-adv-x="1024" />

    
    <glyph glyph-name="archive" unicode="&#58882;" d="M85.333333 682.666667a85.333333 85.333333 0 0 0 85.333334 85.333333h682.666666a85.333333 85.333333 0 0 0 85.333334-85.333333v-85.333334a85.333333 85.333333 0 0 0-43.392-74.325333c0.469333-3.584 0.725333-7.253333 0.725333-11.008v-426.666667a85.333333 85.333333 0 0 0-85.333333-85.333333H213.333333a85.333333 85.333333 0 0 0-85.333333 85.333333V512c0 3.712 0.256 7.424 0.725333 11.008A85.333333 85.333333 0 0 0 85.333333 597.333333V682.666667z m768-85.333334V682.666667H170.666667v-85.333334h682.666666zM213.333333 512v-426.666667h597.333334V512H213.333333z m128-128a42.666667 42.666667 0 0 0 42.666667 42.666667h256a42.666667 42.666667 0 1 0 0-85.333334H384a42.666667 42.666667 0 0 0-42.666667 42.666667z"  horiz-adv-x="1024" />

    
    <glyph glyph-name="arrow-left" unicode="&#58883;" d="M499.498667 670.165333a42.666667 42.666667 0 0 0 0-60.330666L316.330667 426.666667H810.666667a42.666667 42.666667 0 1 0 0-85.333334H316.330667l183.168-183.168a42.666667 42.666667 0 0 0-60.330667-60.330666l-256 256a42.666667 42.666667 0 0 0 0 60.330666l256 256a42.666667 42.666667 0 0 0 60.330667 0z"  horiz-adv-x="1024" />

    
    <glyph glyph-name="zoom-out" unicode="&#58884;" d="M426.666667 725.333333a256 256 0 1 1 0-512 256 256 0 0 1 0 512z m-341.333334-256a341.333333 341.333333 0 1 0 610.986667-209.322666l229.845333-229.845334a42.666667 42.666667 0 0 0-60.330666-60.330666l-229.845334 229.845333A341.333333 341.333333 0 0 0 85.333333 469.333333z m213.333334 0a42.666667 42.666667 0 0 0 42.666666 42.666667h170.666667a42.666667 42.666667 0 1 0 0-85.333333H341.333333a42.666667 42.666667 0 0 0-42.666666 42.666666z"  horiz-adv-x="1024" />

    
    <glyph glyph-name="arrow-right" unicode="&#58885;" d="M524.501333 670.165333a42.666667 42.666667 0 0 0 60.330667 0l256-256a42.666667 42.666667 0 0 0 0-60.330666l-256-256a42.666667 42.666667 0 0 0-60.330667 60.330666L707.669333 341.333333H213.333333a42.666667 42.666667 0 1 0 0 85.333334h494.336l-183.168 183.168a42.666667 42.666667 0 0 0 0 60.330666z"  horiz-adv-x="1024" />

    
    <glyph glyph-name="arrow-left-up" unicode="&#58886;" d="M341.333333 494.336V256a42.666667 42.666667 0 1 0-85.333333 0V597.333333a42.666667 42.666667 0 0 0 42.666667 42.666667h341.333333a42.666667 42.666667 0 1 0 0-85.333333H401.664l353.834667-353.834667a42.666667 42.666667 0 0 0-60.330667-60.330667L341.333333 494.336z"  horiz-adv-x="1024" />

    
    <glyph glyph-name="arrow-right-down" unicode="&#58887;" d="M268.501333 627.498667a42.666667 42.666667 0 0 0 60.330667 0L682.666667 273.664V512a42.666667 42.666667 0 1 0 85.333333 0v-341.333333a42.666667 42.666667 0 0 0-42.666667-42.666667H384a42.666667 42.666667 0 1 0 0 85.333333h238.336L268.501333 567.168a42.666667 42.666667 0 0 0 0 60.330667z"  horiz-adv-x="1024" />

    
    <glyph glyph-name="arrow-up" unicode="&#58888;" d="M512 725.333333a42.666667 42.666667 0 0 0 30.165333-12.501333l256-256a42.666667 42.666667 0 0 0-60.330666-60.330667L554.666667 579.669333V85.333333a42.666667 42.666667 0 1 0-85.333334 0V579.669333l-183.168-183.168a42.666667 42.666667 0 0 0-60.330666 60.330667l256 256A42.666667 42.666667 0 0 0 512 725.333333z"  horiz-adv-x="1024" />

    
    <glyph glyph-name="arrow-right-up" unicode="&#58889;" d="M341.333333 597.333333a42.666667 42.666667 0 0 0 42.666667 42.666667h341.333333a42.666667 42.666667 0 0 0 42.666667-42.666667v-341.333333a42.666667 42.666667 0 1 0-85.333333 0V494.336l-353.834667-353.834667a42.666667 42.666667 0 0 0-60.330667 60.330667L622.336 554.666667H384a42.666667 42.666667 0 0 0-42.666667 42.666666z"  horiz-adv-x="1024" />

    
    <glyph glyph-name="backspace" unicode="&#58890;" d="M755.498667 542.165333a42.666667 42.666667 0 0 0 0-60.330666L657.664 384l97.834667-97.834667a42.666667 42.666667 0 0 0-60.330667-60.330666L597.333333 323.669333l-97.834666-97.834666a42.666667 42.666667 0 0 0-60.330667 60.330666L537.002667 384l-97.834667 97.834667a42.666667 42.666667 0 1 0 60.330667 60.330666L597.333333 444.330667l97.834667 97.834666a42.666667 42.666667 0 0 0 60.330667 0zM938.666667 682.666667a42.666667 42.666667 0 0 1-42.666667 42.666666H403.626667a85.333333 85.333333 0 0 1-64.810667-29.781333l-219.392-256a85.333333 85.333333 0 0 1 0-111.104l219.392-256A85.333333 85.333333 0 0 1 403.626667 42.666667H896a42.666667 42.666667 0 0 1 42.666667 42.666666V682.666667z m-85.333334-554.666667H403.626667l-219.434667 256L403.626667 640H853.333333v-512z"  horiz-adv-x="1024" />

    
    <glyph glyph-name="bar-chart" unicode="&#58891;" d="M128 682.666667a85.333333 85.333333 0 0 0 85.333333 85.333333h597.333334a85.333333 85.333333 0 0 0 85.333333-85.333333v-597.333334a85.333333 85.333333 0 0 0-85.333333-85.333333H213.333333a85.333333 85.333333 0 0 0-85.333333 85.333333V682.666667z m682.666667 0H213.333333v-597.333334h597.333334V682.666667z m-298.666667-85.333334a42.666667 42.666667 0 0 0 42.666667-42.666666v-341.333334a42.666667 42.666667 0 1 0-85.333334 0V554.666667a42.666667 42.666667 0 0 0 42.666667 42.666666z m170.666667-85.333333a42.666667 42.666667 0 0 0 42.666666-42.666667v-256a42.666667 42.666667 0 1 0-85.333333 0v256a42.666667 42.666667 0 0 0 42.666667 42.666667z m-341.333334-85.333333a42.666667 42.666667 0 0 0 42.666667-42.666667v-170.666667a42.666667 42.666667 0 1 0-85.333333 0v170.666667a42.666667 42.666667 0 0 0 42.666666 42.666667z"  horiz-adv-x="1024" />

    
    <glyph glyph-name="attachment" unicode="&#58892;" d="M830.421333 658.090667c-29.354667 32-82.304 33.962667-117.589333-1.322667l-345.6-345.6c-8.96-8.96-8.96-20.309333 0-29.269333 8.96-8.96 20.309333-8.96 29.269333 0l285.866667 285.866666a42.666667 42.666667 0 0 0 60.330667-60.330666l-285.866667-285.866667a104.533333 104.533333 0 0 0-149.930667 0 104.533333 104.533333 0 0 0 0 149.930667l345.6 345.6c66.858667 66.901333 175.573333 69.077333 240.213334-0.64 66.218667-66.944 68.138667-175.104-1.28-239.488l-404.736-404.736c-93.44-93.44-239.957333-93.44-333.397334 0-93.44 93.44-93.44 239.957333 0 333.397333l345.6 345.6a42.666667 42.666667 0 0 0 60.330667-60.330667l-345.6-345.6c-60.16-60.16-60.16-152.576 0-212.736 60.16-60.16 152.576-60.16 212.736 0l405.333333 405.333334 1.322667 1.28c32 29.312 33.962667 82.304-1.322667 117.589333l-1.28 1.322667z"  horiz-adv-x="1024" />

    
    <glyph glyph-name="board" unicode="&#58893;" d="M85.333333 682.666667a85.333333 85.333333 0 0 0 85.333334 85.333333h682.666666a85.333333 85.333333 0 0 0 85.333334-85.333333v-597.333334a85.333333 85.333333 0 0 0-85.333334-85.333333H170.666667a85.333333 85.333333 0 0 0-85.333334 85.333333V682.666667z m256 0H170.666667v-597.333334h170.666666V682.666667z m85.333334 0v-597.333334h170.666666V682.666667h-170.666666z m256 0v-597.333334h170.666666V682.666667h-170.666666z"  horiz-adv-x="1024" />

    
    <glyph glyph-name="bar-chart-alt" unicode="&#58894;" d="M512 725.333333a42.666667 42.666667 0 0 0 42.666667-42.666666v-597.333334a42.666667 42.666667 0 1 0-85.333334 0V682.666667a42.666667 42.666667 0 0 0 42.666667 42.666666z m213.333333-170.666666a42.666667 42.666667 0 0 0 42.666667-42.666667v-426.666667a42.666667 42.666667 0 1 0-85.333333 0V512a42.666667 42.666667 0 0 0 42.666666 42.666667zM298.666667 384a42.666667 42.666667 0 0 0 42.666666-42.666667v-256a42.666667 42.666667 0 1 0-85.333333 0v256a42.666667 42.666667 0 0 0 42.666667 42.666667z"  horiz-adv-x="1024" />

    
    <glyph glyph-name="caret-left" unicode="&#58895;" d="M597.333333 170.666667l-256 213.333333 256 213.333333v-426.666666z"  horiz-adv-x="1024" />

    
    <glyph glyph-name="calendar" unicode="&#58896;" d="M384 810.666667a42.666667 42.666667 0 0 0 42.666667-42.666667v-42.666667h170.666666V768a42.666667 42.666667 0 1 0 85.333334 0v-42.666667h128a85.333333 85.333333 0 0 0 85.333333-85.333333v-554.666667a85.333333 85.333333 0 0 0-85.333333-85.333333H213.333333a85.333333 85.333333 0 0 0-85.333333 85.333333V640a85.333333 85.333333 0 0 0 85.333333 85.333333h128V768a42.666667 42.666667 0 0 0 42.666667 42.666667zM341.333333 640H213.333333v-128h597.333334V640h-128v-42.666667a42.666667 42.666667 0 1 0-85.333334 0V640h-170.666666v-42.666667a42.666667 42.666667 0 0 0-85.333334 0V640z m469.333334-213.333333H213.333333v-341.333334h597.333334v341.333334z"  horiz-adv-x="1024" />

    
    <glyph glyph-name="caret-right" unicode="&#58897;" d="M426.666667 597.333333l256-213.333333-256-213.333333V597.333333z"  horiz-adv-x="1024" />

    
    <glyph glyph-name="chevron-double-left" unicode="&#58898;" d="M755.498667 670.165333a42.666667 42.666667 0 0 0 0-60.330666L529.664 384l225.834667-225.834667a42.666667 42.666667 0 0 0-60.330667-60.330666l-256 256a42.666667 42.666667 0 0 0 0 60.330666l256 256a42.666667 42.666667 0 0 0 60.330667 0z m-256 0a42.666667 42.666667 0 0 0 0-60.330666L273.664 384l225.834667-225.834667a42.666667 42.666667 0 0 0-60.330667-60.330666l-256 256a42.666667 42.666667 0 0 0 0 60.330666l256 256a42.666667 42.666667 0 0 0 60.330667 0z"  horiz-adv-x="1024" />

    
    <glyph glyph-name="caret-down" unicode="&#58899;" d="M725.333333 469.333333l-213.333333-256-213.333333 256h426.666666z"  horiz-adv-x="1024" />

    
    <glyph glyph-name="chevron-double-down" unicode="&#58900;" d="M225.834667 627.498667a42.666667 42.666667 0 0 0 60.330666 0L512 401.664l225.834667 225.834667a42.666667 42.666667 0 1 0 60.330666-60.330667l-256-256a42.666667 42.666667 0 0 0-60.330666 0l-256 256a42.666667 42.666667 0 0 0 0 60.330667z m0-256a42.666667 42.666667 0 0 0 60.330666 0L512 145.664l225.834667 225.834667a42.666667 42.666667 0 0 0 60.330666-60.330667l-256-256a42.666667 42.666667 0 0 0-60.330666 0l-256 256a42.666667 42.666667 0 0 0 0 60.330667z"  horiz-adv-x="1024" />

    
    <glyph glyph-name="book" unicode="&#58901;" d="M170.666667 612.992c5.973333 2.389333 13.141333 5.034667 21.461333 7.722667A416.853333 416.853333 0 0 0 320 640a416.853333 416.853333 0 0 0 127.872-19.285333c8.32-2.688 15.488-5.333333 21.461333-7.722667v-464.213333A504.192 504.192 0 0 1 320 170.666667c-62.293333 0-113.024-10.581333-149.333333-21.888V612.992z m341.333333 74.581333c-9.642667 4.266667-22.357333 9.344-37.888 14.378667A502.144 502.144 0 0 1 320 725.333333c-65.109333 0-117.546667-11.562667-154.112-23.381333a379.264 379.264 0 0 1-42.709333-16.597333 251.946667 251.946667 0 0 1-15.232-7.68l-1.066667-0.597334-0.384-0.213333-0.128-0.085333h-0.042667c-0.085333-0.085333-10.538667-6.272-0.085333-0.085334A42.666667 42.666667 0 0 1 85.333333 640v-554.666667a42.666667 42.666667 0 0 1 64.426667-36.693333l-0.213333-0.128h0.042666l0.085334 0.042667 0.042666 0.042666 1.578667 0.853334c1.578667 0.853333 4.181333 2.133333 7.765333 3.84 7.253333 3.328 18.346667 8.021333 33.066667 12.8A416.853333 416.853333 0 0 0 320 85.333333a416.853333 416.853333 0 0 0 127.872-19.242666 294.4 294.4 0 0 0 33.066667-12.8 169.642667 169.642667 0 0 0 9.514666-4.778667m0 0h-0.042666l-0.085334 0.042667-0.042666 0.042666c13.397333-7.893333 30.037333-7.893333 43.434666 0l1.578667 0.853334c1.578667 0.853333 4.181333 2.133333 7.765333 3.84a294.4 294.4 0 0 0 33.066667 12.8A416.853333 416.853333 0 0 0 704 85.333333a416.853333 416.853333 0 0 0 127.872-19.242666 294.4 294.4 0 0 0 33.066667-12.8 169.642667 169.642667 0 0 0 9.344-4.693334A42.666667 42.666667 0 0 1 938.666667 85.333333V640a42.666667 42.666667 0 0 1-20.906667 36.693333l-0.085333 0.042667h-0.042667l-0.128 0.128-0.426667 0.213333-1.024 0.597334a251.008 251.008 0 0 1-15.232 7.68 379.605333 379.605333 0 0 1-42.666666 16.597333A502.144 502.144 0 0 1 704 725.333333c-65.066667 0-117.546667-11.562667-154.112-23.381333a388.778667 388.778667 0 0 1-37.888-14.378667m341.333333-74.581333v-464.213333A504.192 504.192 0 0 1 704 170.666667c-62.293333 0-113.024-10.581333-149.333333-21.888V612.992c5.973333 2.389333 13.141333 5.034667 21.461333 7.722667A416.853333 416.853333 0 0 0 704 640a416.853333 416.853333 0 0 0 127.872-19.285333c8.32-2.688 15.488-5.333333 21.461333-7.722667z m20.906667-9.728l0.213333-0.085333h-0.042666l-0.128 0.085333z m0-554.666667l0.170667-0.085333-0.085334 0.085333"  horiz-adv-x="1024" />

    
    <glyph glyph-name="arrow-left-down" unicode="&#58902;" d="M755.498667 627.498667a42.666667 42.666667 0 0 0 0-60.330667L401.664 213.333333H640a42.666667 42.666667 0 1 0 0-85.333333H298.666667a42.666667 42.666667 0 0 0-42.666667 42.666667V512a42.666667 42.666667 0 1 0 85.333333 0v-238.336l353.834667 353.834667a42.666667 42.666667 0 0 0 60.330667 0z"  horiz-adv-x="1024" />

    
    <glyph glyph-name="bookmark" unicode="&#58903;" d="M170.666667 725.333333a85.333333 85.333333 0 0 0 85.333333 85.333334h512a85.333333 85.333333 0 0 0 85.333333-85.333334v-725.333333a42.666667 42.666667 0 0 0-67.456-34.730667L512 160.896l-273.877333-195.626667A42.666667 42.666667 0 0 0 170.666667 0V725.333333z m597.333333 0H256v-642.432l231.210667 165.12a42.666667 42.666667 0 0 0 49.578666 0L768 82.944V725.333333z"  horiz-adv-x="1024" />

    
    <glyph glyph-name="circle-add" unicode="&#58904;" d="M512 725.333333a341.333333 341.333333 0 1 1 0-682.666666 341.333333 341.333333 0 0 1 0 682.666666zM85.333333 384C85.333333 619.648 276.352 810.666667 512 810.666667s426.666667-191.018667 426.666667-426.666667-191.018667-426.666667-426.666667-426.666667S85.333333 148.352 85.333333 384z m426.666667 213.333333a42.666667 42.666667 0 0 0 42.666667-42.666666v-128h128a42.666667 42.666667 0 1 0 0-85.333334h-128v-128a42.666667 42.666667 0 1 0-85.333334 0v128H341.333333a42.666667 42.666667 0 1 0 0 85.333334h128V554.666667a42.666667 42.666667 0 0 0 42.666667 42.666666z"  horiz-adv-x="1024" />

    
    <glyph glyph-name="circle" unicode="&#58905;" d="M512 725.333333a341.333333 341.333333 0 1 1 0-682.666666 341.333333 341.333333 0 0 1 0 682.666666zM85.333333 384C85.333333 619.648 276.352 810.666667 512 810.666667s426.666667-191.018667 426.666667-426.666667-191.018667-426.666667-426.666667-426.666667S85.333333 148.352 85.333333 384z"  horiz-adv-x="1024" />

    
    <glyph glyph-name="chevron-up" unicode="&#58906;" d="M481.834667 584.832a42.666667 42.666667 0 0 0 60.330666 0l256-256a42.666667 42.666667 0 0 0-60.330666-60.330667L512 494.336l-225.834667-225.834667a42.666667 42.666667 0 0 0-60.330666 60.330667l256 256z"  horiz-adv-x="1024" />

    
    <glyph glyph-name="caret-up" unicode="&#58907;" d="M298.666667 298.666667l213.333333 256 213.333333-256H298.666667z"  horiz-adv-x="1024" />

    
    <glyph glyph-name="check" unicode="&#58908;" d="M881.664 671.872a42.666667 42.666667 0 0 0 3.541333-60.202667l-455.082666-512a42.666667 42.666667 0 0 0-63.786667 0l-227.541333 256a42.666667 42.666667 0 0 0 63.744 56.661334l195.669333-220.117334 423.253333 476.16a42.666667 42.666667 0 0 0 60.202667 3.498667z"  horiz-adv-x="1024" />

    
    <glyph glyph-name="camera" unicode="&#58909;" d="M353.834667 712.832A42.666667 42.666667 0 0 0 384 725.333333h256a42.666667 42.666667 0 0 0 30.165333-12.501333L742.997333 640H853.333333a85.333333 85.333333 0 0 0 85.333334-85.333333v-426.666667a85.333333 85.333333 0 0 0-85.333334-85.333333H170.666667a85.333333 85.333333 0 0 0-85.333334 85.333333V554.666667a85.333333 85.333333 0 0 0 85.333334 85.333333h110.336l72.832 72.832zM401.664 640L328.832 567.168A42.666667 42.666667 0 0 0 298.666667 554.666667H170.666667v-426.666667h682.666666V554.666667h-128a42.666667 42.666667 0 0 0-30.165333 12.501333L622.336 640H401.664zM512 448a85.333333 85.333333 0 1 1 0-170.666667 85.333333 85.333333 0 0 1 0 170.666667z m-170.666667-85.333333a170.666667 170.666667 0 1 0 341.333334 0 170.666667 170.666667 0 0 0-341.333334 0z"  horiz-adv-x="1024" />

    
    <glyph glyph-name="circle-arrow-up" unicode="&#58910;" d="M512 725.333333a341.333333 341.333333 0 1 1 0-682.666666 341.333333 341.333333 0 0 1 0 682.666666zM85.333333 384C85.333333 619.648 276.352 810.666667 512 810.666667s426.666667-191.018667 426.666667-426.666667-191.018667-426.666667-426.666667-426.666667S85.333333 148.352 85.333333 384z m384 110.336l-97.834666-97.834667a42.666667 42.666667 0 0 0-60.330667 60.330667l170.666667 170.666667a42.666667 42.666667 0 0 0 60.330666 0l170.666667-170.666667a42.666667 42.666667 0 0 0-60.330667-60.330667L554.666667 494.336V170.666667a42.666667 42.666667 0 1 0-85.333334 0V494.336z"  horiz-adv-x="1024" />

    
    <glyph glyph-name="circle-arrow-right" unicode="&#58911;" d="M512 725.333333a341.333333 341.333333 0 1 1 0-682.666666 341.333333 341.333333 0 0 1 0 682.666666zM85.333333 384C85.333333 619.648 276.352 810.666667 512 810.666667s426.666667-191.018667 426.666667-426.666667-191.018667-426.666667-426.666667-426.666667S85.333333 148.352 85.333333 384z m439.168 200.832a42.666667 42.666667 0 0 0 60.330667 0l170.666667-170.666667a42.666667 42.666667 0 0 0 0-60.330666l-170.666667-170.666667a42.666667 42.666667 0 0 0-60.330667 60.330667L622.336 341.333333H298.666667a42.666667 42.666667 0 1 0 0 85.333334h323.669333l-97.834667 97.834666a42.666667 42.666667 0 0 0 0 60.330667z"  horiz-adv-x="1024" />

    
    <glyph glyph-name="circle-arrow-left" unicode="&#58912;" d="M512 725.333333a341.333333 341.333333 0 1 1 0-682.666666 341.333333 341.333333 0 0 1 0 682.666666zM85.333333 384C85.333333 619.648 276.352 810.666667 512 810.666667s426.666667-191.018667 426.666667-426.666667-191.018667-426.666667-426.666667-426.666667S85.333333 148.352 85.333333 384z m414.165334 200.832a42.666667 42.666667 0 0 0 0-60.330667L401.664 426.666667H725.333333a42.666667 42.666667 0 1 0 0-85.333334H401.664l97.834667-97.834666a42.666667 42.666667 0 0 0-60.330667-60.330667l-170.666667 170.666667a42.666667 42.666667 0 0 0 0 60.330666l170.666667 170.666667a42.666667 42.666667 0 0 0 60.330667 0z"  horiz-adv-x="1024" />

    
    <glyph glyph-name="chevron-double-up" unicode="&#58913;" d="M481.834667 712.832a42.666667 42.666667 0 0 0 60.330666 0l256-256a42.666667 42.666667 0 0 0-60.330666-60.330667L512 622.336l-225.834667-225.834667a42.666667 42.666667 0 0 0-60.330666 60.330667l256 256zM512 366.336l-225.834667-225.834667a42.666667 42.666667 0 0 0-60.330666 60.330667l256 256a42.666667 42.666667 0 0 0 60.330666 0l256-256a42.666667 42.666667 0 0 0-60.330666-60.330667L512 366.336z"  horiz-adv-x="1024" />

    
    <glyph glyph-name="circle-arrow-down" unicode="&#58914;" d="M512 725.333333a341.333333 341.333333 0 1 1 0-682.666666 341.333333 341.333333 0 0 1 0 682.666666zM85.333333 384C85.333333 619.648 276.352 810.666667 512 810.666667s426.666667-191.018667 426.666667-426.666667-191.018667-426.666667-426.666667-426.666667S85.333333 148.352 85.333333 384z m426.666667 256a42.666667 42.666667 0 0 0 42.666667-42.666667v-323.669333l97.834666 97.834667a42.666667 42.666667 0 0 0 60.330667-60.330667l-170.666667-170.666667a42.666667 42.666667 0 0 0-60.330666 0l-170.666667 170.666667a42.666667 42.666667 0 1 0 60.330667 60.330667L469.333333 273.664V597.333333a42.666667 42.666667 0 0 0 42.666667 42.666667z"  horiz-adv-x="1024" />

    
    <glyph glyph-name="chevron-down" unicode="&#58915;" d="M225.834667 499.498667a42.666667 42.666667 0 0 0 60.330666 0L512 273.664l225.834667 225.834667a42.666667 42.666667 0 1 0 60.330666-60.330667l-256-256a42.666667 42.666667 0 0 0-60.330666 0l-256 256a42.666667 42.666667 0 0 0 0 60.330667z"  horiz-adv-x="1024" />

    
    <glyph glyph-name="circle-error" unicode="&#58916;" d="M512 725.333333a341.333333 341.333333 0 1 1 0-682.666666 341.333333 341.333333 0 0 1 0 682.666666zM85.333333 384C85.333333 619.648 276.352 810.666667 512 810.666667s426.666667-191.018667 426.666667-426.666667-191.018667-426.666667-426.666667-426.666667S85.333333 148.352 85.333333 384z m247.168 179.498667a42.666667 42.666667 0 0 0 60.330667 0L512 444.330667l119.168 119.168a42.666667 42.666667 0 1 0 60.330667-60.330667L572.330667 384l119.168-119.168a42.666667 42.666667 0 0 0-60.330667-60.330667L512 323.669333l-119.168-119.168a42.666667 42.666667 0 0 0-60.330667 60.330667L451.669333 384 332.501333 503.168a42.666667 42.666667 0 0 0 0 60.330667z"  horiz-adv-x="1024" />

    
    <glyph glyph-name="call" unicode="&#58917;" d="M163.541333 725.333333h191.573334L416.853333 570.965333l-99.2-66.133333A42.666667 42.666667 0 0 1 298.666667 469.333333c0.128-4.010667 0-0.042667 0-0.042666V468.394667a86.442667 86.442667 0 0 1 0.256-5.717334c0.256-3.498667 0.682667-8.234667 1.493333-14.08 1.664-11.52 4.864-27.392 11.093333-46.08 12.544-37.546667 37.12-86.144 84.992-134.016 47.872-47.872 96.469333-72.448 133.973334-84.992 18.730667-6.229333 34.56-9.386667 46.165333-11.093333a189.013333 189.013333 0 0 1 19.754667-1.706667l0.554666-0.042666h0.341334s4.778667 0.256 0.042666 0a42.666667 42.666667 0 0 1 38.144 23.594666l28.586667 57.173334 189.269333-31.573334v-184.32c-90.069333-13.013333-333.354667-25.856-524.501333 165.290667C137.685333 391.978667 150.485333 635.306667 163.541333 725.333333z m223.573334-276.736l77.098666 51.370667a85.333333 85.333333 0 0 1 31.872 102.698667L434.346667 757.034667A85.333333 85.333333 0 0 1 355.114667 810.666667H161.322667c-38.784 0-75.264-26.922667-81.621334-68.992-14.506667-95.658667-34.176-378.197333 188.8-601.173334 222.976-222.976 505.514667-203.264 601.173334-188.8 42.069333 6.4 68.992 42.837333 68.992 81.621334v186.538666a85.333333 85.333333 0 0 1-71.296 84.181334l-189.269334 31.530666a85.333333 85.333333 0 0 1-90.368-45.994666l-14.762666-29.568a200.96 200.96 0 0 0-15.488 4.48c-26.453333 8.789333-63.189333 26.88-100.650667 64.341333-37.461333 37.461333-55.552 74.197333-64.341333 100.693333a195.84 195.84 0 0 0-5.333334 19.072z"  horiz-adv-x="1024" />

    
    <glyph glyph-name="circle-warning" unicode="&#58918;" d="M512 725.333333a341.333333 341.333333 0 1 1 0-682.666666 341.333333 341.333333 0 0 1 0 682.666666zM85.333333 384C85.333333 619.648 276.352 810.666667 512 810.666667s426.666667-191.018667 426.666667-426.666667-191.018667-426.666667-426.666667-426.666667S85.333333 148.352 85.333333 384zM512 298.666667a42.666667 42.666667 0 0 0-42.666667 42.666666V597.333333a42.666667 42.666667 0 1 0 85.333334 0v-256a42.666667 42.666667 0 0 0-42.666667-42.666666zM448 192a64 64 0 1 0 128 0 64 64 0 0 0-128 0z"  horiz-adv-x="1024" />

    
    <glyph glyph-name="clock" unicode="&#58919;" d="M512 725.333333a341.333333 341.333333 0 1 1 0-682.666666 341.333333 341.333333 0 0 1 0 682.666666zM85.333333 384C85.333333 619.648 276.352 810.666667 512 810.666667s426.666667-191.018667 426.666667-426.666667-191.018667-426.666667-426.666667-426.666667S85.333333 148.352 85.333333 384z m426.666667 256a42.666667 42.666667 0 0 0 42.666667-42.666667v-195.669333l115.498666-115.498667a42.666667 42.666667 0 0 0-60.330666-60.330666l-128 128A42.666667 42.666667 0 0 0 469.333333 384V597.333333a42.666667 42.666667 0 0 0 42.666667 42.666667z"  horiz-adv-x="1024" />

    
    <glyph glyph-name="cloud" unicode="&#58920;" d="M213.333333 469.333333a256 256 0 0 0 497.962667 83.754667A256 256 0 0 0 682.666667 42.666667H298.666667a213.333333 213.333333 0 0 0-84.736 409.173333A259.029333 259.029333 0 0 0 213.333333 469.333333z m256 170.666667a170.666667 170.666667 0 0 1-166.528-208.170667 42.666667 42.666667 0 0 0-32.298666-50.944A128.085333 128.085333 0 0 1 298.666667 128h384a170.666667 170.666667 0 1 1-3.413334 341.333333 42.666667 42.666667 0 0 0-42.666666 34.133334A170.752 170.752 0 0 1 469.333333 640z"  horiz-adv-x="1024" />

    
    <glyph glyph-name="clipboard" unicode="&#58921;" d="M341.333333 768a42.666667 42.666667 0 0 0 42.666667 42.666667h256a42.666667 42.666667 0 0 0 42.666667-42.666667h85.333333a85.333333 85.333333 0 0 0 85.333333-85.333333v-640a85.333333 85.333333 0 0 0-85.333333-85.333334H256a85.333333 85.333333 0 0 0-85.333333 85.333334V682.666667a85.333333 85.333333 0 0 0 85.333333 85.333333h85.333333z m0-85.333333H256v-640h512V682.666667h-85.333333v-42.666667a42.666667 42.666667 0 0 0-42.666667-42.666667H384a42.666667 42.666667 0 0 0-42.666667 42.666667V682.666667z m256 42.666666h-170.666666v-42.666666h170.666666V725.333333z"  horiz-adv-x="1024" />

    
    <glyph glyph-name="circle-remove" unicode="&#58922;" d="M512 725.333333a341.333333 341.333333 0 1 1 0-682.666666 341.333333 341.333333 0 0 1 0 682.666666zM85.333333 384C85.333333 619.648 276.352 810.666667 512 810.666667s426.666667-191.018667 426.666667-426.666667-191.018667-426.666667-426.666667-426.666667S85.333333 148.352 85.333333 384z m213.333334 0a42.666667 42.666667 0 0 0 42.666666 42.666667h341.333334a42.666667 42.666667 0 1 0 0-85.333334H341.333333a42.666667 42.666667 0 0 0-42.666666 42.666667z"  horiz-adv-x="1024" />

    
    <glyph glyph-name="circle-help" unicode="&#58923;" d="M512 725.333333a341.333333 341.333333 0 1 1 0-682.666666 341.333333 341.333333 0 0 1 0 682.666666zM85.333333 384C85.333333 619.648 276.352 810.666667 512 810.666667s426.666667-191.018667 426.666667-426.666667-191.018667-426.666667-426.666667-426.666667S85.333333 148.352 85.333333 384zM512 298.666667a42.666667 42.666667 0 0 0-42.666667 42.666666v42.666667a42.666667 42.666667 0 1 0 85.333334 0v-42.666667a42.666667 42.666667 0 0 0-42.666667-42.666666zM448 192a64 64 0 1 0 128 0 64 64 0 0 0-128 0zM528.64 562.730667c-40.832 1.92-75.093333-20.906667-81.237333-57.728a42.666667 42.666667 0 0 0-84.138667 13.994666c15.189333 91.136 98.261333 132.352 169.429333 128.938667 36.437333-1.706667 73.941333-14.805333 102.784-41.770667C665.045333 578.56 682.666667 538.965333 682.666667 490.666667c0-55.082667-21.674667-95.957333-59.008-120.832-34.261333-22.826667-76.288-28.501333-111.658667-28.501334a42.666667 42.666667 0 1 0 0 85.333334c28.586667 0 50.602667 4.992 64.341333 14.165333 10.666667 7.125333 20.992 19.626667 20.992 49.834667 0 26.368-9.045333 42.794667-20.138666 53.162666-11.818667 11.050667-29.013333 17.92-48.554667 18.901334z"  horiz-adv-x="1024" />

    
    <glyph glyph-name="cloud-upload" unicode="&#58924;" d="M469.333333 725.333333a170.666667 170.666667 0 0 1-170.624-175.018666 42.666667 42.666667 0 0 0-32-42.325334A128.085333 128.085333 0 0 1 298.666667 256h42.666666a42.666667 42.666667 0 1 0 0-85.333333H298.666667a213.333333 213.333333 0 0 0-84.053334 409.429333 256 256 0 0 0 476.544 102.4A256 256 0 0 0 682.666667 170.666667a42.666667 42.666667 0 1 0 0 85.333333 170.666667 170.666667 0 1 1-13.994667 340.778667 42.666667 42.666667 0 0 0-42.624 25.6A170.709333 170.709333 0 0 1 469.333333 725.333333z m12.501334-225.834666a42.666667 42.666667 0 0 0 60.330666 0l85.333334-85.333334a42.666667 42.666667 0 0 0-60.330667-60.330666L554.666667 366.336V42.666667a42.666667 42.666667 0 1 0-85.333334 0v323.669333l-12.501333-12.501333a42.666667 42.666667 0 0 0-60.330667 60.330666l85.333334 85.333334z"  horiz-adv-x="1024" />

    
    <glyph glyph-name="computer" unicode="&#58925;" d="M85.333333 682.666667a85.333333 85.333333 0 0 0 85.333334 85.333333h682.666666a85.333333 85.333333 0 0 0 85.333334-85.333333v-469.333334a85.333333 85.333333 0 0 0-85.333334-85.333333h-298.666666v-85.333333h128a42.666667 42.666667 0 1 0 0-85.333334H341.333333a42.666667 42.666667 0 1 0 0 85.333334h128v85.333333H170.666667a85.333333 85.333333 0 0 0-85.333334 85.333333V682.666667z m768-469.333334V682.666667H170.666667v-469.333334h682.666666z"  horiz-adv-x="1024" />

    
    <glyph glyph-name="circle-information" unicode="&#58926;" d="M512 725.333333a341.333333 341.333333 0 1 1 0-682.666666 341.333333 341.333333 0 0 1 0 682.666666zM85.333333 384C85.333333 619.648 276.352 810.666667 512 810.666667s426.666667-191.018667 426.666667-426.666667-191.018667-426.666667-426.666667-426.666667S85.333333 148.352 85.333333 384zM512 469.333333a42.666667 42.666667 0 0 0 42.666667-42.666666v-256a42.666667 42.666667 0 1 0-85.333334 0v256a42.666667 42.666667 0 0 0 42.666667 42.666666zM576 576a64 64 0 1 0-128 0 64 64 0 0 0 128 0z"  horiz-adv-x="1024" />

    
    <glyph glyph-name="close" unicode="&#58927;" d="M225.834667 670.165333a42.666667 42.666667 0 0 0 60.330666 0L512 444.330667l225.834667 225.834666a42.666667 42.666667 0 1 0 60.330666-60.330666L572.330667 384l225.834666-225.834667a42.666667 42.666667 0 0 0-60.330666-60.330666L512 323.669333l-225.834667-225.834666a42.666667 42.666667 0 0 0-60.330666 60.330666L451.669333 384 225.834667 609.834667a42.666667 42.666667 0 0 0 0 60.330666z"  horiz-adv-x="1024" />

    
    <glyph glyph-name="document-check" unicode="&#58928;" d="M170.666667 725.333333a85.333333 85.333333 0 0 0 85.333333 85.333334h341.333333a42.666667 42.666667 0 0 0 30.165334-12.501334l213.333333-213.333333A42.666667 42.666667 0 0 0 853.333333 554.666667v-512a85.333333 85.333333 0 0 0-85.333333-85.333334H256a85.333333 85.333333 0 0 0-85.333333 85.333334V725.333333z m579.669333-170.666666L597.333333 707.669333V554.666667h153.002667zM512 725.333333H256v-682.666666h512V469.333333h-213.333333a42.666667 42.666667 0 0 0-42.666667 42.666667V725.333333z m158.165333-353.834666a42.666667 42.666667 0 0 0 0-60.330667l-170.666666-170.666667a42.666667 42.666667 0 0 0-60.330667 0l-85.333333 85.333334a42.666667 42.666667 0 1 0 60.330666 60.330666L469.333333 230.997333l140.501334 140.501334a42.666667 42.666667 0 0 0 60.330666 0z"  horiz-adv-x="1024" />

    
    <glyph glyph-name="document-download" unicode="&#58929;" d="M170.666667 725.333333a85.333333 85.333333 0 0 0 85.333333 85.333334h341.333333a42.666667 42.666667 0 0 0 30.165334-12.501334l213.333333-213.333333A42.666667 42.666667 0 0 0 853.333333 554.666667v-512a85.333333 85.333333 0 0 0-85.333333-85.333334H256a85.333333 85.333333 0 0 0-85.333333 85.333334V725.333333z m579.669333-170.666666L597.333333 707.669333V554.666667h153.002667zM512 725.333333H256v-682.666666h512V469.333333h-213.333333a42.666667 42.666667 0 0 0-42.666667 42.666667V725.333333z m0-320a42.666667 42.666667 0 0 0 42.666667-42.666666v-110.336l12.501333 12.501333a42.666667 42.666667 0 0 0 60.330667-60.330667l-85.333334-85.333333a42.666667 42.666667 0 0 0-60.330666 0l-85.333334 85.333333a42.666667 42.666667 0 1 0 60.330667 60.330667l12.501333-12.501333V362.666667a42.666667 42.666667 0 0 0 42.666667 42.666666z"  horiz-adv-x="1024" />

    
    <glyph glyph-name="delete" unicode="&#58930;" d="M298.666667 725.333333a85.333333 85.333333 0 0 0 85.333333 85.333334h256a85.333333 85.333333 0 0 0 85.333333-85.333334v-85.333333h170.666667a42.666667 42.666667 0 1 0 0-85.333333h-45.610667l-36.992-518.058667A85.333333 85.333333 0 0 0 728.277333-42.666667H295.68a85.333333 85.333333 0 0 0-85.12 79.274667L173.653333 554.666667H128a42.666667 42.666667 0 0 0 0 85.333333h170.666667V725.333333z m85.333333-85.333333h256V725.333333H384v-85.333333zM259.157333 554.666667l36.565334-512H728.32l36.565333 512H259.157333zM426.666667 469.333333a42.666667 42.666667 0 0 0 42.666666-42.666666v-256a42.666667 42.666667 0 1 0-85.333333 0v256a42.666667 42.666667 0 0 0 42.666667 42.666666z m170.666666 0a42.666667 42.666667 0 0 0 42.666667-42.666666v-256a42.666667 42.666667 0 1 0-85.333333 0v256a42.666667 42.666667 0 0 0 42.666666 42.666666z"  horiz-adv-x="1024" />

    
    <glyph glyph-name="credit-card" unicode="&#58931;" d="M938.666667 640a85.333333 85.333333 0 0 1-85.333334 85.333333H170.666667a85.333333 85.333333 0 0 1-85.333334-85.333333v-512a85.333333 85.333333 0 0 1 85.333334-85.333333h682.666666a85.333333 85.333333 0 0 1 85.333334 85.333333V640z m-85.333334-85.333333H170.666667V640h682.666666v-85.333333zM170.666667 426.666667h682.666666v-298.666667H170.666667v298.666667z"  horiz-adv-x="1024" />

    
    <glyph glyph-name="document" unicode="&#58932;" d="M170.666667 725.333333a85.333333 85.333333 0 0 0 85.333333 85.333334h341.333333a42.666667 42.666667 0 0 0 30.165334-12.501334l213.333333-213.333333A42.666667 42.666667 0 0 0 853.333333 554.666667v-512a85.333333 85.333333 0 0 0-85.333333-85.333334H256a85.333333 85.333333 0 0 0-85.333333 85.333334V725.333333z m579.669333-170.666666L597.333333 707.669333V554.666667h153.002667zM512 725.333333H256v-682.666666h512V469.333333h-213.333333a42.666667 42.666667 0 0 0-42.666667 42.666667V725.333333z m-170.666667-384a42.666667 42.666667 0 0 0 42.666667 42.666667h256a42.666667 42.666667 0 1 0 0-85.333333H384a42.666667 42.666667 0 0 0-42.666667 42.666666z m0-170.666666a42.666667 42.666667 0 0 0 42.666667 42.666666h256a42.666667 42.666667 0 1 0 0-85.333333H384a42.666667 42.666667 0 0 0-42.666667 42.666667z"  horiz-adv-x="1024" />

    
    <glyph glyph-name="drag" unicode="&#58933;" d="M170.666667 640a42.666667 42.666667 0 0 0 42.666666 42.666667h597.333334a42.666667 42.666667 0 1 0 0-85.333334H213.333333a42.666667 42.666667 0 0 0-42.666666 42.666667z m0-170.666667a42.666667 42.666667 0 0 0 42.666666 42.666667h597.333334a42.666667 42.666667 0 1 0 0-85.333333H213.333333a42.666667 42.666667 0 0 0-42.666666 42.666666z m0-170.666666a42.666667 42.666667 0 0 0 42.666666 42.666666h597.333334a42.666667 42.666667 0 1 0 0-85.333333H213.333333a42.666667 42.666667 0 0 0-42.666666 42.666667z m0-170.666667a42.666667 42.666667 0 0 0 42.666666 42.666667h597.333334a42.666667 42.666667 0 1 0 0-85.333334H213.333333a42.666667 42.666667 0 0 0-42.666666 42.666667z"  horiz-adv-x="1024" />

    
    <glyph glyph-name="clipboard-check" unicode="&#58934;" d="M341.333333 768a42.666667 42.666667 0 0 0 42.666667 42.666667h256a42.666667 42.666667 0 0 0 42.666667-42.666667h85.333333a85.333333 85.333333 0 0 0 85.333333-85.333333v-640a85.333333 85.333333 0 0 0-85.333333-85.333334H256a85.333333 85.333333 0 0 0-85.333333 85.333334V682.666667a85.333333 85.333333 0 0 0 85.333333 85.333333h85.333333z m0-85.333333H256v-640h512V682.666667h-85.333333v-42.666667a42.666667 42.666667 0 0 0-42.666667-42.666667H384a42.666667 42.666667 0 0 0-42.666667 42.666667V682.666667z m256 42.666666h-170.666666v-42.666666h170.666666V725.333333z m72.832-289.834666a42.666667 42.666667 0 0 0 0-60.330667l-170.666666-170.666667a42.666667 42.666667 0 0 0-60.330667 0l-85.333333 85.333334a42.666667 42.666667 0 1 0 60.330666 60.330666L469.333333 294.997333l140.501334 140.501334a42.666667 42.666667 0 0 0 60.330666 0z"  horiz-adv-x="1024" />

    
    <glyph glyph-name="email" unicode="&#58935;" d="M85.333333 640a85.333333 85.333333 0 0 0 85.333334 85.333333h682.666666a85.333333 85.333333 0 0 0 85.333334-85.333333v-512a85.333333 85.333333 0 0 0-85.333334-85.333333H170.666667a85.333333 85.333333 0 0 0-85.333334 85.333333V640z m150.144 0L512 398.037333 788.522667 640H235.52zM853.333333 583.296l-313.216-274.090667a42.666667 42.666667 0 0 0-56.234666 0L170.666667 583.296V128h682.666666V583.296z"  horiz-adv-x="1024" />

    
    <glyph glyph-name="delete-alt" unicode="&#58936;" d="M298.666667 725.333333a85.333333 85.333333 0 0 0 85.333333 85.333334h256a85.333333 85.333333 0 0 0 85.333333-85.333334v-85.333333h170.666667a42.666667 42.666667 0 1 0 0-85.333333h-45.610667l-36.992-518.058667A85.333333 85.333333 0 0 0 728.277333-42.666667H295.68a85.333333 85.333333 0 0 0-85.12 79.274667L173.653333 554.666667H128a42.666667 42.666667 0 0 0 0 85.333333h170.666667V725.333333z m85.333333-85.333333h256V725.333333H384v-85.333333zM259.157333 554.666667l36.565334-512H728.32l36.565333 512H259.157333z"  horiz-adv-x="1024" />

    
    <glyph glyph-name="chevron-double-right" unicode="&#58937;" d="M524.501333 670.165333a42.666667 42.666667 0 0 0 60.330667 0l256-256a42.666667 42.666667 0 0 0 0-60.330666l-256-256a42.666667 42.666667 0 0 0-60.330667 60.330666L750.336 384l-225.834667 225.834667a42.666667 42.666667 0 0 0 0 60.330666z m-256 0a42.666667 42.666667 0 0 0 60.330667 0l256-256a42.666667 42.666667 0 0 0 0-60.330666l-256-256a42.666667 42.666667 0 0 0-60.330667 60.330666L494.336 384 268.501333 609.834667a42.666667 42.666667 0 0 0 0 60.330666z"  horiz-adv-x="1024" />

    
    <glyph glyph-name="chevron-left" unicode="&#58938;" d="M627.498667 670.165333a42.666667 42.666667 0 0 0 0-60.330666L401.664 384l225.834667-225.834667a42.666667 42.666667 0 0 0-60.330667-60.330666l-256 256a42.666667 42.666667 0 0 0 0 60.330666l256 256a42.666667 42.666667 0 0 0 60.330667 0z"  horiz-adv-x="1024" />

    
    <glyph glyph-name="download" unicode="&#58939;" d="M512 810.666667a42.666667 42.666667 0 0 0 42.666667-42.666667v-451.669333l97.834666 97.834666a42.666667 42.666667 0 0 0 60.330667-60.330666l-170.666667-170.666667a42.666667 42.666667 0 0 0-60.330666 0l-170.666667 170.666667a42.666667 42.666667 0 1 0 60.330667 60.330666L469.333333 316.330667V768a42.666667 42.666667 0 0 0 42.666667 42.666667zM213.333333 170.666667a42.666667 42.666667 0 0 0 42.666667-42.666667v-85.333333h512v85.333333a42.666667 42.666667 0 1 0 85.333333 0v-85.333333a85.333333 85.333333 0 0 0-85.333333-85.333334H256a85.333333 85.333333 0 0 0-85.333333 85.333334v85.333333a42.666667 42.666667 0 0 0 42.666666 42.666667z"  horiz-adv-x="1024" />

    
    <glyph glyph-name="chevron-right" unicode="&#58940;" d="M396.501333 97.834667a42.666667 42.666667 0 0 0 0 60.330666L622.336 384 396.501333 609.834667a42.666667 42.666667 0 0 0 60.330667 60.330666l256-256a42.666667 42.666667 0 0 0 0-60.330666l-256-256a42.666667 42.666667 0 0 0-60.330667 0z"  horiz-adv-x="1024" />

    
    <glyph glyph-name="external-link" unicode="&#58941;" d="M597.333333 682.666667a42.666667 42.666667 0 1 0 0 85.333333h256a42.666667 42.666667 0 0 0 42.666667-42.666667v-256a42.666667 42.666667 0 1 0-85.333333 0V622.336l-396.501334-396.501333a42.666667 42.666667 0 0 0-60.330666 60.330666L750.336 682.666667H597.333333zM128 597.333333a85.333333 85.333333 0 0 0 85.333333 85.333334h213.333334a42.666667 42.666667 0 1 0 0-85.333334H213.333333v-512h512v213.333334a42.666667 42.666667 0 1 0 85.333334 0v-213.333334a85.333333 85.333333 0 0 0-85.333334-85.333333H213.333333a85.333333 85.333333 0 0 0-85.333333 85.333333V597.333333z"  horiz-adv-x="1024" />

    
    <glyph glyph-name="edit" unicode="&#58942;" d="M695.168 798.165333a42.666667 42.666667 0 0 0 60.330667 0l170.666666-170.666666a42.666667 42.666667 0 0 0 0-60.330667l-554.666666-554.666667A42.666667 42.666667 0 0 0 341.333333 0H170.666667a42.666667 42.666667 0 0 0-42.666667 42.666667v170.666666a42.666667 42.666667 0 0 0 12.501333 30.165334l426.666667 426.666666 128 128zM597.333333 579.669333l-384-384V85.333333h110.336l384 384L597.333333 579.669333z m170.666667-50.005333L835.669333 597.333333 725.333333 707.669333 657.664 640 768 529.664z"  horiz-adv-x="1024" />

    
    <glyph glyph-name="eye" unicode="&#58943;" d="M640 384a128 128 0 1 0-256 0 128 128 0 0 0 256 0zM934.144 403.072C842.069333 587.264 678.570667 682.666667 512 682.666667c-166.528 0-330.069333-95.402667-422.144-279.594667a42.666667 42.666667 0 0 1 0-38.144C181.930667 180.736 345.429333 85.333333 512 85.333333c166.528 0 330.069333 95.402667 422.144 279.594667a42.666667 42.666667 0 0 1 0 38.144zM512 170.666667c-126.677333 0-256.085333 69.12-335.786667 213.333333C255.914667 528.213333 385.28 597.333333 512 597.333333c126.677333 0 256.085333-69.12 335.786667-213.333333-79.701333-144.213333-209.109333-213.333333-335.786667-213.333333z"  horiz-adv-x="1024" />

    
    <glyph glyph-name="filter-alt" unicode="&#58944;" d="M170.666667 597.333333a42.666667 42.666667 0 0 0 42.666666 42.666667h597.333334a42.666667 42.666667 0 1 0 0-85.333333H213.333333a42.666667 42.666667 0 0 0-42.666666 42.666666z m85.333333-213.333333a42.666667 42.666667 0 0 0 42.666667 42.666667h426.666666a42.666667 42.666667 0 1 0 0-85.333334H298.666667a42.666667 42.666667 0 0 0-42.666667 42.666667z m85.333333-213.333333a42.666667 42.666667 0 0 0 42.666667 42.666666h256a42.666667 42.666667 0 1 0 0-85.333333H384a42.666667 42.666667 0 0 0-42.666667 42.666667z"  horiz-adv-x="1024" />

    
    <glyph glyph-name="cloud-download" unicode="&#58945;" d="M469.333333 725.333333a170.666667 170.666667 0 0 1-170.624-175.018666 42.666667 42.666667 0 0 0-32-42.325334A128.085333 128.085333 0 0 1 298.666667 256h42.666666a42.666667 42.666667 0 1 0 0-85.333333H298.666667a213.333333 213.333333 0 0 0-84.053334 409.429333 256 256 0 0 0 476.544 102.4A256 256 0 0 0 682.666667 170.666667a42.666667 42.666667 0 1 0 0 85.333333 170.666667 170.666667 0 1 1-13.994667 340.778667 42.666667 42.666667 0 0 0-42.624 25.6A170.709333 170.709333 0 0 1 469.333333 725.333333z m42.666667-256a42.666667 42.666667 0 0 0 42.666667-42.666666v-323.669334l12.501333 12.501334a42.666667 42.666667 0 0 0 60.330667-60.330667l-85.333334-85.333333a42.666667 42.666667 0 0 0-60.330666 0l-85.333334 85.333333a42.666667 42.666667 0 1 0 60.330667 60.330667l12.501333-12.501334V426.666667a42.666667 42.666667 0 0 0 42.666667 42.666666z"  horiz-adv-x="1024" />

    
    <glyph glyph-name="circle-check" unicode="&#58946;" d="M512 725.333333a341.333333 341.333333 0 1 1 0-682.666666 341.333333 341.333333 0 0 1 0 682.666666zM85.333333 384C85.333333 619.648 276.352 810.666667 512 810.666667s426.666667-191.018667 426.666667-426.666667-191.018667-426.666667-426.666667-426.666667S85.333333 148.352 85.333333 384z m625.664 138.538667a42.666667 42.666667 0 0 0 3.541334-60.202667l-227.541334-256a42.666667 42.666667 0 0 0-63.786666 0l-113.749334 128a42.666667 42.666667 0 0 0 63.744 56.661333l81.92-92.117333 195.669334 220.16a42.666667 42.666667 0 0 0 60.202666 3.498667z"  horiz-adv-x="1024" />

    
    <glyph glyph-name="filter" unicode="&#58947;" d="M384 682.666667a42.666667 42.666667 0 1 1 0-85.333334 42.666667 42.666667 0 0 1 0 85.333334zM263.253333 682.666667a128.042667 128.042667 0 0 0 241.493334 0H810.666667a42.666667 42.666667 0 1 0 0-85.333334h-305.92a128.042667 128.042667 0 0 0-241.493334 0H213.333333a42.666667 42.666667 0 0 0 0 85.333334h49.92zM640 426.666667a42.666667 42.666667 0 1 1 0-85.333334 42.666667 42.666667 0 0 1 0 85.333334z m-120.746667 0a128.042667 128.042667 0 0 0 241.493334 0H810.666667a42.666667 42.666667 0 1 0 0-85.333334h-49.92a128.042667 128.042667 0 0 0-241.493334 0H213.333333a42.666667 42.666667 0 1 0 0 85.333334h305.92zM384 170.666667a42.666667 42.666667 0 1 1 0-85.333334 42.666667 42.666667 0 0 1 0 85.333334z m-120.746667 0a128.042667 128.042667 0 0 0 241.493334 0H810.666667a42.666667 42.666667 0 1 0 0-85.333334h-305.92a128.042667 128.042667 0 0 0-241.493334 0H213.333333a42.666667 42.666667 0 1 0 0 85.333334h49.92z"  horiz-adv-x="1024" />

    
    <glyph glyph-name="folder-check" unicode="&#58948;" d="M85.333333 640a85.333333 85.333333 0 0 0 85.333334 85.333333h213.333333a42.666667 42.666667 0 0 0 30.165333-12.501333L486.997333 640H853.333333a85.333333 85.333333 0 0 0 85.333334-85.333333v-426.666667a85.333333 85.333333 0 0 0-85.333334-85.333333H170.666667a85.333333 85.333333 0 0 0-85.333334 85.333333V640z m281.002667 0H170.666667v-512h682.666666V554.666667h-384a42.666667 42.666667 0 0 0-30.165333 12.501333L366.336 640z m303.829333-183.168a42.666667 42.666667 0 0 0 0-60.330667l-170.666666-170.666666a42.666667 42.666667 0 0 0-60.330667 0l-85.333333 85.333333a42.666667 42.666667 0 1 0 60.330666 60.330667L469.333333 316.330667l140.501334 140.501333a42.666667 42.666667 0 0 0 60.330666 0z"  horiz-adv-x="1024" />

    
    <glyph glyph-name="document-remove" unicode="&#58949;" d="M170.666667 725.333333a85.333333 85.333333 0 0 0 85.333333 85.333334h341.333333a42.666667 42.666667 0 0 0 30.165334-12.501334l213.333333-213.333333A42.666667 42.666667 0 0 0 853.333333 554.666667v-512a85.333333 85.333333 0 0 0-85.333333-85.333334H256a85.333333 85.333333 0 0 0-85.333333 85.333334V725.333333z m579.669333-170.666666L597.333333 707.669333V554.666667h153.002667zM512 725.333333H256v-682.666666h512V469.333333h-213.333333a42.666667 42.666667 0 0 0-42.666667 42.666667V725.333333zM384 256a42.666667 42.666667 0 0 0 42.666667 42.666667h170.666666a42.666667 42.666667 0 1 0 0-85.333334h-170.666666a42.666667 42.666667 0 0 0-42.666667 42.666667z"  horiz-adv-x="1024" />

    
    <glyph glyph-name="folder" unicode="&#58950;" d="M85.333333 640a85.333333 85.333333 0 0 0 85.333334 85.333333h213.333333a42.666667 42.666667 0 0 0 30.165333-12.501333L486.997333 640H853.333333a85.333333 85.333333 0 0 0 85.333334-85.333333v-426.666667a85.333333 85.333333 0 0 0-85.333334-85.333333H170.666667a85.333333 85.333333 0 0 0-85.333334 85.333333V640z m281.002667 0H170.666667v-512h682.666666V554.666667h-384a42.666667 42.666667 0 0 0-30.165333 12.501333L366.336 640z"  horiz-adv-x="1024" />

    
    <glyph glyph-name="edit-alt" unicode="&#58951;" d="M695.168 755.498667a42.666667 42.666667 0 0 0 60.330667 0l128-128a42.666667 42.666667 0 0 0 0-60.330667l-384-384A42.666667 42.666667 0 0 0 469.333333 170.666667H341.333333a42.666667 42.666667 0 0 0-42.666666 42.666666v128a42.666667 42.666667 0 0 0 12.501333 30.165334l384 384zM384 323.669333V256h67.669333l341.333334 341.333333L725.333333 665.002667l-341.333333-341.333334zM128 597.333333a85.333333 85.333333 0 0 0 85.333333 85.333334h213.333334a42.666667 42.666667 0 1 0 0-85.333334H213.333333v-512h512v213.333334a42.666667 42.666667 0 1 0 85.333334 0v-213.333334a85.333333 85.333333 0 0 0-85.333334-85.333333H213.333333a85.333333 85.333333 0 0 0-85.333333 85.333333V597.333333z"  horiz-adv-x="1024" />

    
    <glyph glyph-name="expand" unicode="&#58952;" d="M256 579.669333V512a42.666667 42.666667 0 1 0-85.333333 0V682.666667a42.666667 42.666667 0 0 0 42.666666 42.666666h170.666667a42.666667 42.666667 0 1 0 0-85.333333H316.330667l97.834666-97.834667a42.666667 42.666667 0 0 0-60.330666-60.330666L256 579.669333zM640 640a42.666667 42.666667 0 1 0 0 85.333333h170.666667a42.666667 42.666667 0 0 0 42.666666-42.666666v-170.666667a42.666667 42.666667 0 1 0-85.333333 0V579.669333l-97.834667-97.834666a42.666667 42.666667 0 0 0-60.330666 60.330666L707.669333 640H640zM213.333333 298.666667a42.666667 42.666667 0 0 0 42.666667-42.666667v-67.669333l97.834667 97.834666a42.666667 42.666667 0 0 0 60.330666-60.330666L316.330667 128H384a42.666667 42.666667 0 1 0 0-85.333333H213.333333a42.666667 42.666667 0 0 0-42.666666 42.666666v170.666667a42.666667 42.666667 0 0 0 42.666666 42.666667z m396.501334-72.832a42.666667 42.666667 0 0 0 60.330666 60.330666L768 188.330667V256a42.666667 42.666667 0 1 0 85.333333 0v-170.666667a42.666667 42.666667 0 0 0-42.666666-42.666666h-170.666667a42.666667 42.666667 0 1 0 0 85.333333h67.669333l-97.834666 97.834667z"  horiz-adv-x="1024" />

    
    <glyph glyph-name="enter" unicode="&#58953;" d="M128 298.666667a42.666667 42.666667 0 0 0 42.666667 42.666666h512a128 128 0 0 1 128 128V640a42.666667 42.666667 0 1 0 85.333333 0v-170.666667a213.333333 213.333333 0 0 0-213.333333-213.333333H170.666667a42.666667 42.666667 0 0 0-42.666667 42.666667zM140.501333 268.501333a42.666667 42.666667 0 0 0 0 60.330667l170.666667 170.666667a42.666667 42.666667 0 0 0 60.330667-60.330667L230.997333 298.666667l140.501334-140.501334a42.666667 42.666667 0 1 0-60.330667-60.330666l-170.666667 170.666666z"  horiz-adv-x="1024" />

    
    <glyph glyph-name="copy" unicode="&#58954;" d="M85.333333 725.333333a85.333333 85.333333 0 0 0 85.333334 85.333334h426.666666a85.333333 85.333333 0 0 0 85.333334-85.333334v-170.666666h170.666666a85.333333 85.333333 0 0 0 85.333334-85.333334v-426.666666a85.333333 85.333333 0 0 0-85.333334-85.333334H426.666667a85.333333 85.333333 0 0 0-85.333334 85.333334v170.666666H170.666667a85.333333 85.333333 0 0 0-85.333334 85.333334V725.333333z m341.333334-512v-170.666666h426.666666V469.333333h-170.666666v-170.666666a85.333333 85.333333 0 0 0-85.333334-85.333334h-170.666666z m170.666666 85.333334V725.333333H170.666667v-426.666666h426.666666z"  horiz-adv-x="1024" />

    
    <glyph glyph-name="laptop" unicode="&#58955;" d="M85.333333 682.666667a85.333333 85.333333 0 0 0 85.333334 85.333333h682.666666a85.333333 85.333333 0 0 0 85.333334-85.333333v-469.333334a85.333333 85.333333 0 0 0-85.333334-85.333333H170.666667a85.333333 85.333333 0 0 0-85.333334 85.333333V682.666667z m768 0H170.666667v-469.333334h682.666666V682.666667zM938.666667 42.666667a42.666667 42.666667 0 0 0-42.666667-42.666667H128a42.666667 42.666667 0 1 0 0 85.333333h768a42.666667 42.666667 0 0 0 42.666667-42.666666z"  horiz-adv-x="1024" />

    
    <glyph glyph-name="document-empty" unicode="&#58956;" d="M170.666667 725.333333a85.333333 85.333333 0 0 0 85.333333 85.333334h341.333333a42.666667 42.666667 0 0 0 30.165334-12.501334l213.333333-213.333333A42.666667 42.666667 0 0 0 853.333333 554.666667v-512a85.333333 85.333333 0 0 0-85.333333-85.333334H256a85.333333 85.333333 0 0 0-85.333333 85.333334V725.333333z m579.669333-170.666666L597.333333 707.669333V554.666667h153.002667zM512 725.333333H256v-682.666666h512V469.333333h-213.333333a42.666667 42.666667 0 0 0-42.666667 42.666667V725.333333z"  horiz-adv-x="1024" />

    
    <glyph glyph-name="export" unicode="&#58957;" d="M481.834667 798.165333a42.666667 42.666667 0 0 0 60.330666 0l170.666667-170.666666a42.666667 42.666667 0 0 0-60.330667-60.330667L554.666667 665.002667V213.333333a42.666667 42.666667 0 1 0-85.333334 0V665.002667L371.498667 567.168a42.666667 42.666667 0 0 0-60.330667 60.330667l170.666667 170.666666zM213.333333 170.666667a42.666667 42.666667 0 0 0 42.666667-42.666667v-85.333333h512v85.333333a42.666667 42.666667 0 1 0 85.333333 0v-85.333333a85.333333 85.333333 0 0 0-85.333333-85.333334H256a85.333333 85.333333 0 0 0-85.333333 85.333334v85.333333a42.666667 42.666667 0 0 0 42.666666 42.666667z"  horiz-adv-x="1024" />

    
    <glyph glyph-name="heart" unicode="&#58958;" d="M512 702.805333a256 256 0 0 1-351.701333-371.84l291.370666-291.328a85.333333 85.333333 0 0 1 120.661334 0l291.370666 291.328A256 256 0 0 1 512 702.805333z m-50.005333-70.144l19.84-19.797333a42.666667 42.666667 0 0 1 60.330666 0l19.84 19.797333a170.666667 170.666667 0 1 0 241.322667-241.322666L512 99.968l-291.328 291.370667a170.666667 170.666667 0 0 0 241.322667 241.322666z"  horiz-adv-x="1024" />

    
    <glyph glyph-name="folder-download" unicode="&#58959;" d="M85.333333 640a85.333333 85.333333 0 0 0 85.333334 85.333333h213.333333a42.666667 42.666667 0 0 0 30.165333-12.501333L486.997333 640H853.333333a85.333333 85.333333 0 0 0 85.333334-85.333333v-426.666667a85.333333 85.333333 0 0 0-85.333334-85.333333H170.666667a85.333333 85.333333 0 0 0-85.333334 85.333333V640z m281.002667 0H170.666667v-512h682.666666V554.666667h-384a42.666667 42.666667 0 0 0-30.165333 12.501333L366.336 640zM512 490.666667a42.666667 42.666667 0 0 0 42.666667-42.666667v-110.336l12.501333 12.501333a42.666667 42.666667 0 0 0 60.330667-60.330666l-85.333334-85.333334a42.666667 42.666667 0 0 0-60.330666 0l-85.333334 85.333334a42.666667 42.666667 0 1 0 60.330667 60.330666l12.501333-12.501333V448a42.666667 42.666667 0 0 0 42.666667 42.666667z"  horiz-adv-x="1024" />

    
    <glyph glyph-name="folder-add" unicode="&#58960;" d="M85.333333 640a85.333333 85.333333 0 0 0 85.333334 85.333333h213.333333a42.666667 42.666667 0 0 0 30.165333-12.501333L486.997333 640H853.333333a85.333333 85.333333 0 0 0 85.333334-85.333333v-426.666667a85.333333 85.333333 0 0 0-85.333334-85.333333H170.666667a85.333333 85.333333 0 0 0-85.333334 85.333333V640z m281.002667 0H170.666667v-512h682.666666V554.666667h-384a42.666667 42.666667 0 0 0-30.165333 12.501333L366.336 640zM512 469.333333a42.666667 42.666667 0 0 0 42.666667-42.666666v-42.666667h42.666666a42.666667 42.666667 0 1 0 0-85.333333h-42.666666v-42.666667a42.666667 42.666667 0 1 0-85.333334 0v42.666667h-42.666666a42.666667 42.666667 0 1 0 0 85.333333h42.666666v42.666667a42.666667 42.666667 0 0 0 42.666667 42.666666z"  horiz-adv-x="1024" />

    
    <glyph glyph-name="image" unicode="&#58961;" d="M661.333333 469.333333a64 64 0 1 1 0 128 64 64 0 0 1 0-128zM128 682.666667a85.333333 85.333333 0 0 0 85.333333 85.333333h597.333334a85.333333 85.333333 0 0 0 85.333333-85.333333v-597.333334a85.333333 85.333333 0 0 0-85.333333-85.333333H213.333333a85.333333 85.333333 0 0 0-85.333333 85.333333V682.666667z m682.666667 0H213.333333v-337.92l144 115.2a42.666667 42.666667 0 0 0 53.333334 0l183.466666-146.773334 58.368 58.325334a42.666667 42.666667 0 0 0 60.330667 0L810.666667 273.664V682.666667zM213.333333 85.333333h597.333334v67.669334l-128 128-55.168-55.168a42.666667 42.666667 0 0 0-56.832-3.157334L384 372.053333l-170.666667-136.533333V85.333333z"  horiz-adv-x="1024" />

    
    <glyph glyph-name="link" unicode="&#58962;" d="M341.333333 554.666667c-95.914667 0-170.666667-74.752-170.666666-170.666667s74.752-170.666667 170.666666-170.666667h85.333334a42.666667 42.666667 0 1 0 0-85.333333H341.333333c-143.018667 0-256 112.981333-256 256s112.981333 256 256 256h85.333334a42.666667 42.666667 0 1 0 0-85.333333H341.333333z m213.333334 42.666666a42.666667 42.666667 0 0 0 42.666666 42.666667h85.333334c143.018667 0 256-112.981333 256-256s-112.981333-256-256-256h-85.333334a42.666667 42.666667 0 1 0 0 85.333333h85.333334c95.914667 0 170.666667 74.752 170.666666 170.666667s-74.752 170.666667-170.666666 170.666667h-85.333334a42.666667 42.666667 0 0 0-42.666666 42.666666z m-256-213.333333a42.666667 42.666667 0 0 0 42.666666 42.666667h341.333334a42.666667 42.666667 0 1 0 0-85.333334H341.333333a42.666667 42.666667 0 0 0-42.666666 42.666667z"  horiz-adv-x="1024" />

    
    <glyph glyph-name="home" unicode="&#58963;" d="M483.669333 799.872a42.666667 42.666667 0 0 0 56.661334 0l384-341.333333a42.666667 42.666667 0 0 0-56.661334-63.744L853.333333 407.466667V85.333333a85.333333 85.333333 0 0 0-85.333333-85.333333H256a85.333333 85.333333 0 0 0-85.333333 85.333333v322.133334l-14.336-12.672a42.666667 42.666667 0 0 0-56.661334 63.744l384 341.333333zM256 483.413333V85.333333h128v213.333334a42.666667 42.666667 0 0 0 42.666667 42.666666h170.666666a42.666667 42.666667 0 0 0 42.666667-42.666666v-213.333334h128V483.370667l-256 227.541333-256-227.541333zM554.666667 85.333333v170.666667h-85.333334v-170.666667h85.333334z"  horiz-adv-x="1024" />

    
    <glyph glyph-name="location" unicode="&#58964;" d="M512 810.666667c-187.733333 0-341.333333-153.6-341.333333-341.333334 0-230.4 298.666667-490.666667 311.466666-503.466666 8.533333-4.266667 21.333333-8.533333 29.866667-8.533334 8.533333 0 21.333333 4.266667 29.866667 8.533334 12.8 12.8 311.466667 273.066667 311.466666 503.466666 0 187.733333-153.6 341.333333-341.333333 341.333334z m0-755.2c-89.6 85.333333-256 268.8-256 413.866666 0 140.8 115.2 256 256 256s256-115.2 256-256-166.4-328.533333-256-413.866666zM512 640c-93.866667 0-170.666667-76.8-170.666667-170.666667s76.8-170.666667 170.666667-170.666666 170.666667 76.8 170.666667 170.666666-76.8 170.666667-170.666667 170.666667z m0-256c-46.933333 0-85.333333 38.4-85.333333 85.333333s38.4 85.333333 85.333333 85.333334 85.333333-38.4 85.333333-85.333334-38.4-85.333333-85.333333-85.333333z"  horiz-adv-x="1024" />

    
    <glyph glyph-name="inbox" unicode="&#58965;" d="M128 682.666667a85.333333 85.333333 0 0 0 85.333333 85.333333h597.333334a85.333333 85.333333 0 0 0 85.333333-85.333333v-597.333334a85.333333 85.333333 0 0 0-85.333333-85.333333H213.333333a85.333333 85.333333 0 0 0-85.333333 85.333333V682.666667z m85.333333-384v-213.333334h597.333334v213.333334h-97.28l-32.896-98.816A42.666667 42.666667 0 0 0 640 170.666667H384a42.666667 42.666667 0 0 0-40.490667 29.184L310.613333 298.666667H213.333333z m597.333334 85.333333V682.666667H213.333333v-298.666667h97.28a85.333333 85.333333 0 0 0 80.938667-58.325333L414.72 256h194.474667l23.210666 69.674667A85.333333 85.333333 0 0 0 713.429333 384H810.666667z"  horiz-adv-x="1024" />

    
    <glyph glyph-name="megaphone" unicode="&#58966;" d="M746.752 804.906667A42.666667 42.666667 0 0 0 768 768v-170.666667c50.56 0 96-22.016 127.189333-56.874666A170.197333 170.197333 0 0 0 938.666667 426.666667c0-43.690667-16.469333-83.626667-43.477334-113.792A170.368 170.368 0 0 0 768 256v-170.666667a42.666667 42.666667 0 0 0-63.829333-37.034666L426.666667 206.848V0a42.666667 42.666667 0 0 0-42.666667-42.666667H213.333333a42.666667 42.666667 0 0 0-42.666666 42.666667v213.333333a85.333333 85.333333 0 0 0-85.333334 85.333334V554.666667a85.333333 85.333333 0 0 0 85.333334 85.333333h244.650666l288.853334 165.034667a42.666667 42.666667 0 0 0 42.581333-0.128zM426.666667 298.666667a42.666667 42.666667 0 0 0 21.162666-5.632L682.666667 158.848V694.485333l-234.837334-134.186666A42.666667 42.666667 0 0 0 426.666667 554.666667H170.666667v-256h256z m-170.666667-85.333334v-170.666666h85.333333v170.666666H256z m512 128c25.258667 0 47.914667 10.922667 63.616 28.458667 13.525333 15.104 21.717333 34.986667 21.717333 56.874667s-8.192 41.770667-21.717333 56.874666A85.034667 85.034667 0 0 1 768 512v-170.666667z"  horiz-adv-x="1024" />

    
    <glyph glyph-name="menu" unicode="&#58967;" d="M170.666667 597.333333a42.666667 42.666667 0 0 0 42.666666 42.666667h597.333334a42.666667 42.666667 0 1 0 0-85.333333H213.333333a42.666667 42.666667 0 0 0-42.666666 42.666666z m0-213.333333a42.666667 42.666667 0 0 0 42.666666 42.666667h597.333334a42.666667 42.666667 0 1 0 0-85.333334H213.333333a42.666667 42.666667 0 0 0-42.666666 42.666667z m0-213.333333a42.666667 42.666667 0 0 0 42.666666 42.666666h597.333334a42.666667 42.666667 0 1 0 0-85.333333H213.333333a42.666667 42.666667 0 0 0-42.666666 42.666667z"  horiz-adv-x="1024" />

    
    <glyph glyph-name="folder-remove" unicode="&#58968;" d="M85.333333 640a85.333333 85.333333 0 0 0 85.333334 85.333333h213.333333a42.666667 42.666667 0 0 0 30.165333-12.501333L486.997333 640H853.333333a85.333333 85.333333 0 0 0 85.333334-85.333333v-426.666667a85.333333 85.333333 0 0 0-85.333334-85.333333H170.666667a85.333333 85.333333 0 0 0-85.333334 85.333333V640z m281.002667 0H170.666667v-512h682.666666V554.666667h-384a42.666667 42.666667 0 0 0-30.165333 12.501333L366.336 640zM384 341.333333a42.666667 42.666667 0 0 0 42.666667 42.666667h170.666666a42.666667 42.666667 0 1 0 0-85.333333h-170.666666a42.666667 42.666667 0 0 0-42.666667 42.666666z"  horiz-adv-x="1024" />

    
    <glyph glyph-name="eye-off" unicode="&#58969;" d="M200.832 755.498667a42.666667 42.666667 0 0 1-60.330667-60.330667l103.424-103.424c-61.013333-45.909333-114.261333-108.970667-154.069333-188.672a42.666667 42.666667 0 0 1 0-38.144C181.930667 180.736 345.429333 85.333333 512 85.333333c66.346667 0 132.266667 15.146667 193.28 45.013334l117.888-117.845334a42.666667 42.666667 0 0 1 60.330667 60.330667l-682.666667 682.666667z m439.765333-560.426667c-41.813333-16.341333-85.333333-24.405333-128.597333-24.405333-126.677333 0-256.085333 69.12-335.786667 213.333333 34.858667 63.104 79.274667 111.786667 128.768 146.645333l91.477334-91.477333a128 128 0 0 1 170.709333-170.709333l73.386667-73.386667zM791.552 303.104c20.608 23.722667 39.509333 50.645333 56.234667 80.896C768.085333 528.213333 638.72 597.333333 512 597.333333c-4.778667 0-9.557333-0.085333-14.336-0.298666L421.504 673.152A435.84 435.84 0 0 0 512 682.666667c166.528 0 330.069333-95.402667 422.144-279.594667a42.666667 42.666667 0 0 0 0-38.144 559.189333 559.189333 0 0 0-82.133333-122.24l-60.458667 60.416z"  horiz-adv-x="1024" />

    
    <glyph glyph-name="moon" unicode="&#58970;" d="M399.36 755.498667a42.666667 42.666667 0 0 0 7.978667-49.365334A317.866667 317.866667 0 0 1 834.133333 279.338667a42.666667 42.666667 0 0 0 57.301334-57.301334 403.2 403.2 0 1 0-541.44 541.44 42.666667 42.666667 0 0 0 49.408-7.978666zM291.114667 611.413333A317.866667 317.866667 0 0 1 739.413333 163.029333 403.2 403.2 0 0 0 291.029333 611.413333z"  horiz-adv-x="1024" />

    
    <glyph glyph-name="mobile" unicode="&#58971;" d="M256 682.666667a85.333333 85.333333 0 0 0 85.333333 85.333333h341.333334a85.333333 85.333333 0 0 0 85.333333-85.333333v-597.333334a85.333333 85.333333 0 0 0-85.333333-85.333333H341.333333a85.333333 85.333333 0 0 0-85.333333 85.333333V682.666667z m426.666667 0H341.333333v-597.333334h341.333334V682.666667zM554.666667 170.666667a42.666667 42.666667 0 1 0-85.333334 0 42.666667 42.666667 0 0 0 85.333334 0z"  horiz-adv-x="1024" />

    
    <glyph glyph-name="lock" unicode="&#58972;" d="M512 725.333333c70.314667 0 128-57.685333 128-128v-128H384V597.333333c0 70.314667 57.685333 128 128 128z m213.333333-256V597.333333c0 117.418667-95.914667 213.333333-213.333333 213.333334S298.666667 714.752 298.666667 597.333333v-128H256a85.333333 85.333333 0 0 1-85.333333-85.333333v-341.333333a85.333333 85.333333 0 0 1 85.333333-85.333334h512a85.333333 85.333333 0 0 1 85.333333 85.333334v341.333333a85.333333 85.333333 0 0 1-85.333333 85.333333h-42.666667zM256 384h512v-341.333333H256v341.333333z"  horiz-adv-x="1024" />

    
    <glyph glyph-name="list" unicode="&#58973;" d="M170.666667 597.333333a42.666667 42.666667 0 0 0 42.666666 42.666667h42.666667a42.666667 42.666667 0 0 0 0-85.333333H213.333333a42.666667 42.666667 0 0 0-42.666666 42.666666z m213.333333 0a42.666667 42.666667 0 0 0 42.666667 42.666667h384a42.666667 42.666667 0 1 0 0-85.333333h-384a42.666667 42.666667 0 0 0-42.666667 42.666666z m-213.333333-213.333333a42.666667 42.666667 0 0 0 42.666666 42.666667h42.666667a42.666667 42.666667 0 1 0 0-85.333334H213.333333a42.666667 42.666667 0 0 0-42.666666 42.666667z m213.333333 0a42.666667 42.666667 0 0 0 42.666667 42.666667h384a42.666667 42.666667 0 1 0 0-85.333334h-384a42.666667 42.666667 0 0 0-42.666667 42.666667z m-213.333333-213.333333a42.666667 42.666667 0 0 0 42.666666 42.666666h42.666667a42.666667 42.666667 0 1 0 0-85.333333H213.333333a42.666667 42.666667 0 0 0-42.666666 42.666667z m213.333333 0a42.666667 42.666667 0 0 0 42.666667 42.666666h384a42.666667 42.666667 0 1 0 0-85.333333h-384a42.666667 42.666667 0 0 0-42.666667 42.666667z"  horiz-adv-x="1024" />

    
    <glyph glyph-name="log-out" unicode="&#58974;" d="M85.333333 640a85.333333 85.333333 0 0 0 85.333334 85.333333h384a85.333333 85.333333 0 0 0 85.333333-85.333333v-85.333333a42.666667 42.666667 0 1 0-85.333333 0V640H170.666667v-512h384v85.333333a42.666667 42.666667 0 1 0 85.333333 0v-85.333333a85.333333 85.333333 0 0 0-85.333333-85.333333H170.666667a85.333333 85.333333 0 0 0-85.333334 85.333333V640z m652.501334-97.834667a42.666667 42.666667 0 0 0 60.330666 0l128-128a42.666667 42.666667 0 0 0 0-60.330666l-128-128a42.666667 42.666667 0 0 0-60.330666 60.330666L793.002667 341.333333H384a42.666667 42.666667 0 1 0 0 85.333334h409.002667l-55.168 55.168a42.666667 42.666667 0 0 0 0 60.330666z"  horiz-adv-x="1024" />

    
    <glyph glyph-name="message-alt" unicode="&#58975;" d="M85.333333 640a85.333333 85.333333 0 0 0 85.333334 85.333333h682.666666a85.333333 85.333333 0 0 0 85.333334-85.333333v-469.333333a85.333333 85.333333 0 0 0-85.333334-85.333334h-195.669333l-115.498667-115.498666a42.666667 42.666667 0 0 0-60.330666 0L366.336 85.333333H170.666667a85.333333 85.333333 0 0 0-85.333334 85.333334V640z m768 0H170.666667v-469.333333h213.333333a42.666667 42.666667 0 0 0 30.165333-12.501334L512 60.330667l97.834667 97.834666A42.666667 42.666667 0 0 0 640 170.666667h213.333333V640zM576 405.333333a64 64 0 1 0-128 0 64 64 0 0 0 128 0zM746.666667 405.333333a64 64 0 1 0-128 0 64 64 0 0 0 128 0zM405.333333 405.333333a64 64 0 1 0-128 0 64 64 0 0 0 128 0z"  horiz-adv-x="1024" />

    
    <glyph glyph-name="notification-off" unicode="&#58976;" d="M810.666667 469.333333c0 137.557333-93.013333 253.44-219.562667 288.085334a85.333333 85.333333 0 0 1-158.208 0 296.832 296.832 0 0 1-67.712-27.946667l63.658667-63.616A213.333333 213.333333 0 0 0 725.333333 469.333333v-99.968l85.333334-85.333333V469.333333zM135.466667 152.149333L213.333333 268.928V469.333333c0 44.8 9.856 87.296 27.562667 125.44L140.501333 695.168a42.666667 42.666667 0 0 0 60.330667 60.330667l682.666667-682.666667a42.666667 42.666667 0 0 0-60.330667-60.330667L750.336 85.333333h-90.496a149.376 149.376 0 0 0-295.68 0H171.221333a42.410667 42.410667 0 0 0-27.008 9.173334 42.624 42.624 0 0 0-8.746666 57.6zM250.453333 170.666667h414.592l-357.973333 357.973333A213.461333 213.461333 0 0 1 298.666667 469.333333v-213.333333a42.666667 42.666667 0 0 0-7.168-23.68L250.410667 170.666667z m201.216-85.333334a64 64 0 0 1 120.746667 0h-120.746667z"  horiz-adv-x="1024" />

    
    <glyph glyph-name="options-horizontal" unicode="&#58977;" d="M512 298.666667a85.333333 85.333333 0 1 1 0 170.666666 85.333333 85.333333 0 0 1 0-170.666666zM256 298.666667a85.333333 85.333333 0 1 1 0 170.666666 85.333333 85.333333 0 0 1 0-170.666666zM768 298.666667a85.333333 85.333333 0 1 1 0 170.666666 85.333333 85.333333 0 0 1 0-170.666666z"  horiz-adv-x="1024" />

    
    <glyph glyph-name="percentage" unicode="&#58978;" d="M798.165333 670.165333a42.666667 42.666667 0 0 0 0-60.330666l-512-512a42.666667 42.666667 0 0 0-60.330666 60.330666l512 512a42.666667 42.666667 0 0 0 60.330666 0zM725.333333 85.333333a85.333333 85.333333 0 1 1 0 170.666667 85.333333 85.333333 0 0 1 0-170.666667zM298.666667 512a85.333333 85.333333 0 1 1 0 170.666667 85.333333 85.333333 0 0 1 0-170.666667z"  horiz-adv-x="1024" />

    
    <glyph glyph-name="next" unicode="&#58979;" d="M213.333333 564.650667c0 66.304 72.362667 107.306667 129.237334 73.173333l301.056-180.650667c55.253333-33.152 55.253333-113.194667 0-146.346666L342.613333 130.176c-56.874667-34.133333-129.237333 6.826667-129.237333 73.173333V564.650667zM599.722667 384L298.666667 564.650667v-361.301334L599.722667 384zM768 640a42.666667 42.666667 0 0 0 42.666667-42.666667v-426.666666a42.666667 42.666667 0 1 0-85.333334 0V597.333333a42.666667 42.666667 0 0 0 42.666667 42.666667z"  horiz-adv-x="1024" />

    
    <glyph glyph-name="pin" unicode="&#58980;" d="M256 443.733333V725.333333a42.666667 42.666667 0 0 0 0 85.333334h512a42.666667 42.666667 0 1 0 0-85.333334v-281.6c39.765333-43.52 61.098667-86.784 72.490667-120.917333 6.229333-18.688 9.386667-34.56 11.093333-46.08a189.013333 189.013333 0 0 0 1.706667-18.346667v-1.450666l0.042666-0.554667v-0.341333s-0.213333 5.589333 0-0.042667a42.666667 42.666667 0 0 0-42.666666-42.666667h-256v-213.333333a42.666667 42.666667 0 1 0-85.333334 0v213.333333H213.333333a42.666667 42.666667 0 0 0-42.666666 42.666667v0.938667a85.888 85.888 0 0 0 0.256 5.717333c0.256 3.498667 0.682667 8.234667 1.493333 14.08 1.706667 11.52 4.864 27.392 11.093333 46.08 11.392 34.133333 32.725333 77.397333 72.490667 120.96zM682.666667 725.333333H341.333333v-298.666666a42.666667 42.666667 0 0 0-12.501333-30.165334c-36.138667-36.138667-54.229333-71.594667-63.402667-97.834666H758.613333c-9.173333 26.24-27.306667 61.696-63.402666 97.834666A42.666667 42.666667 0 0 0 682.666667 426.666667V725.333333z"  horiz-adv-x="1024" />

    
    <glyph glyph-name="favorite" unicode="&#58981;" d="M512 789.333333a42.666667 42.666667 0 0 0 38.144-23.594666l110.08-220.074667 241.92-35.157333a42.666667 42.666667 0 0 0 23.637333-72.789334l-176.085333-171.690666 39.594667-242.090667a42.666667 42.666667 0 0 0-62.08-44.544L512 93.568l-215.210667-114.176a42.666667 42.666667 0 0 0-62.08 44.544l39.594667 242.090667-176.085333 171.690666a42.666667 42.666667 0 0 0 23.637333 72.789334l241.92 35.157333 110.08 220.074667A42.666667 42.666667 0 0 0 512 789.333333z m0-138.069333l-81.834667-163.669333a42.666667 42.666667 0 0 0-32-23.168l-178.517333-25.941334 130.133333-126.848a42.666667 42.666667 0 0 0 12.330667-37.461333L332.8 95.104l159.189333 84.48a42.666667 42.666667 0 0 0 40.021334 0l159.189333-84.48-29.312 179.072a42.666667 42.666667 0 0 0 12.330667 37.418667l130.133333 126.890666-178.474667 25.941334a42.666667 42.666667 0 0 0-32 23.168L512 651.264z"  horiz-adv-x="1024" />

    
    <glyph glyph-name="remove" unicode="&#58982;" d="M170.666667 384a42.666667 42.666667 0 0 0 42.666666 42.666667h597.333334a42.666667 42.666667 0 1 0 0-85.333334H213.333333a42.666667 42.666667 0 0 0-42.666666 42.666667z"  horiz-adv-x="1024" />

    
    <glyph glyph-name="link-alt" unicode="&#58983;" d="M691.2 640a42.666667 42.666667 0 0 0 42.666667 42.666667c27.178667 0 53.845333-5.461333 79.829333-15.872 28.288-11.306667 50.048-28.074667 69.802667-47.786667 19.754667-19.797333 36.522667-41.557333 47.829333-69.845333 10.410667-25.984 15.872-52.650667 15.872-79.829334s-5.461333-53.845333-15.872-79.829333c-11.136-27.946667-27.648-49.493333-47.104-69.077333l-41.984-46.208a41.258667 41.258667 0 0 0-1.408-1.450667l-136.533333-136.533333c-19.754667-19.754667-41.514667-36.522667-69.802667-47.872A213.845333 213.845333 0 0 0 554.666667 72.533333a213.845333 213.845333 0 0 0-79.829334 15.872c-28.288 11.306667-50.048 28.074667-69.802666 47.786667-19.754667 19.797333-36.522667 41.557333-47.829334 69.845333A219.52 219.52 0 0 0 341.333333 290.133333c0 27.178667 5.461333 53.845333 15.872 79.829334 11.306667 28.288 28.074667 50.048 47.786667 69.802666l46.933333 46.933334a42.666667 42.666667 0 1 0 60.373334-60.330667l-46.933334-46.933333c-14.378667-14.378667-23.210667-26.752-28.928-41.130667A128.597333 128.597333 0 0 1 426.666667 290.133333c0-20.309333 3.285333-36.266667 9.770666-52.437333 5.717333-14.378667 14.549333-26.752 28.928-41.130667 14.378667-14.378667 26.752-23.210667 41.130667-28.928 16.682667-6.698667 32.682667-9.770667 48.170667-9.770666s31.488 3.072 48.170666 9.770666c14.378667 5.717333 26.752 14.549333 41.130667 28.928l135.808 135.808 41.984 46.208a41.258667 41.258667 0 0 0 1.408 1.450667c14.378667 14.378667 23.210667 26.752 28.928 41.130667 6.698667 16.682667 9.770667 32.682667 9.770667 48.170666s-3.072 31.488-9.770667 48.170667c-5.717333 14.378667-14.549333 26.752-28.928 41.130667-14.378667 14.378667-26.752 23.210667-41.130667 28.970666A128.597333 128.597333 0 0 1 733.866667 597.333333a42.666667 42.666667 0 0 0-42.666667 42.666667z m-209.066667-64c-15.488 0-31.488-3.072-48.170666-9.728-14.378667-5.76-26.752-14.592-41.130667-29.013333L252.757333 397.226667l-41.984-46.208-1.408-1.450667c-14.378667-14.378667-23.210667-26.752-28.970666-41.130667A128.597333 128.597333 0 0 1 170.666667 260.266667c0-15.488 3.072-31.488 9.728-48.170667 5.76-14.378667 14.592-26.752 29.013333-41.130667 14.336-14.378667 26.709333-23.210667 41.088-28.970666 16.682667-6.656 32.682667-9.728 48.170667-9.728a42.666667 42.666667 0 1 0 0-85.333334 213.802667 213.802667 0 0 0-79.829334 15.829334c-28.288 11.349333-50.048 28.117333-69.802666 47.872-19.754667 19.754667-36.522667 41.514667-47.829334 69.802666A213.845333 213.845333 0 0 0 85.333333 260.266667c0 27.178667 5.461333 53.845333 15.872 79.829333 11.136 27.946667 27.648 49.493333 47.104 69.077333l41.984 46.208 1.408 1.450667 140.8 140.8c19.754667 19.754667 41.514667 36.522667 69.802667 47.829333A213.845333 213.845333 0 0 0 482.133333 661.333333c27.178667 0 53.845333-5.461333 79.829334-15.872 28.288-11.306667 50.048-28.074667 69.802666-47.786666 19.754667-19.797333 36.522667-41.557333 47.829334-69.845334 10.410667-25.984 15.872-52.650667 15.872-79.829333s-5.461333-53.845333-15.872-79.829333c-11.178667-27.946667-27.690667-49.578667-47.146667-69.12l-46.336-50.56a42.666667 42.666667 0 0 0-62.890667 57.685333l46.933334 51.2 1.28 1.322667c14.378667 14.378667 23.210667 26.752 28.928 41.130666 6.698667 16.682667 9.770667 32.682667 9.770666 48.170667s-3.072 31.488-9.770666 48.170667c-5.717333 14.378667-14.549333 26.752-28.928 41.130666-14.378667 14.378667-26.752 23.210667-41.130667 28.970667A128.597333 128.597333 0 0 1 482.133333 576z"  horiz-adv-x="1024" />

    
    <glyph glyph-name="refresh" unicode="&#58984;" d="M545.834667 798.165333a42.666667 42.666667 0 0 0 60.330666 0l128-128a42.666667 42.666667 0 0 0 0-60.330666l-128-128a42.666667 42.666667 0 0 0-60.330666 60.330666L601.002667 597.333333H533.333333C381.952 597.333333 256 471.381333 256 320S381.952 42.666667 533.333333 42.666667s277.333333 125.952 277.333334 277.333333a42.666667 42.666667 0 1 0 85.333333 0c0-198.485333-164.181333-362.666667-362.666667-362.666667S170.666667 121.514667 170.666667 320 334.848 682.666667 533.333333 682.666667h67.669334l-55.168 55.168a42.666667 42.666667 0 0 0 0 60.330666z"  horiz-adv-x="1024" />

    
    <glyph glyph-name="play" unicode="&#58985;" d="M256 608.384c0 65.877333 71.424 106.88 128.341333 73.728l384.64-224.426667c56.448-32.896 56.448-114.474667 0-147.413333l-384.64-224.341333C327.424 52.736 256 93.738667 256 159.573333V608.384zM725.973333 384L341.333333 608.384V159.573333L725.973333 384z"  horiz-adv-x="1024" />

    
    <glyph glyph-name="search" unicode="&#58986;" d="M426.666667 725.333333a256 256 0 1 1 0-512 256 256 0 0 1 0 512z m-341.333334-256a341.333333 341.333333 0 1 0 610.986667-209.322666l229.845333-229.845334a42.666667 42.666667 0 0 0-60.330666-60.330666l-229.845334 229.845333A341.333333 341.333333 0 0 0 85.333333 469.333333z"  horiz-adv-x="1024" />

    
    <glyph glyph-name="send" unicode="&#58987;" d="M512 810.666667a42.666667 42.666667 0 0 0 38.144-23.594667l384-768a42.666667 42.666667 0 0 0-47.36-60.714667L512 41.642667l-374.741333-83.285334a42.666667 42.666667 0 0 0-47.402667 60.714667l384 768A42.666667 42.666667 0 0 0 512 810.666667z m42.666667-691.114667l263.082666-58.453333L554.666667 587.264v-467.712zM469.333333 587.264L206.250667 61.098667 469.333333 119.552V587.264z"  horiz-adv-x="1024" />

    
    <glyph glyph-name="settings" unicode="&#58988;" d="M512 725.333333a42.666667 42.666667 0 0 1-42.666667-42.666666c0-72.192-87.296-108.373333-138.368-57.301334a42.666667 42.666667 0 1 1-60.330666-60.330666C321.706667 513.962667 285.568 426.666667 213.333333 426.666667a42.666667 42.666667 0 1 1 0-85.333334c72.192 0 108.373333-87.296 57.301334-138.368a42.666667 42.666667 0 0 1 60.330666-60.330666C382.037333 193.706667 469.333333 157.568 469.333333 85.333333a42.666667 42.666667 0 1 1 85.333334 0c0 72.192 87.296 108.373333 138.368 57.301334a42.666667 42.666667 0 1 1 60.330666 60.330666C702.293333 254.037333 738.432 341.333333 810.666667 341.333333a42.666667 42.666667 0 1 1 0 85.333334c-72.192 0-108.373333 87.296-57.301334 138.368a42.666667 42.666667 0 0 1-60.330666 60.330666C641.962667 574.293333 554.666667 610.432 554.666667 682.666667a42.666667 42.666667 0 0 1-42.666667 42.666666z m-127.658667-33.152a128 128 0 0 0 255.317334 0 128 128 0 0 0 180.48-180.522666 128 128 0 0 0 0.042666-255.317334 128 128 0 0 0-180.522666-180.48 128 128 0 0 0-255.317334 0 128 128 0 0 0-180.522666 180.48 128 128 0 0 0 0 255.317334 128 128 0 0 0 180.522666 180.522666zM512 469.333333a85.333333 85.333333 0 1 1 0-170.666666 85.333333 85.333333 0 0 1 0 170.666666z m-120.661333 35.328a170.666667 170.666667 0 1 0 241.322666-241.322666 170.666667 170.666667 0 0 0-241.322666 241.322666z"  horiz-adv-x="1024" />

    
    <glyph glyph-name="notification" unicode="&#58989;" d="M432.896 757.418667a85.333333 85.333333 0 0 0 158.208 0A298.794667 298.794667 0 0 0 810.666667 469.333333v-200.405333l78.165333-117.248A42.666667 42.666667 0 0 0 853.333333 85.333333h-193.493333a149.376 149.376 0 0 0-295.68 0H170.666667a42.666667 42.666667 0 0 0-35.498667 66.346667L213.333333 268.928V469.333333c0 137.557333 93.013333 253.44 219.562667 288.085334zM451.669333 85.333333a64 64 0 0 1 120.704 0h-120.746666zM512 682.666667a213.333333 213.333333 0 0 1-213.333333-213.333334v-213.333333a42.666667 42.666667 0 0 0-7.168-23.68L250.410667 170.666667H773.546667l-41.088 61.653333A42.666667 42.666667 0 0 0 725.333333 256v213.333333a213.333333 213.333333 0 0 1-213.333333 213.333334z"  horiz-adv-x="1024" />

    
    <glyph glyph-name="select" unicode="&#58990;" d="M512 725.333333a42.666667 42.666667 0 0 0 30.165333-12.501333l170.666667-170.666667a42.666667 42.666667 0 0 0-60.330667-60.330666L512 622.336 371.498667 481.834667a42.666667 42.666667 0 0 0-60.330667 60.330666l170.666667 170.666667A42.666667 42.666667 0 0 0 512 725.333333zM311.168 286.165333a42.666667 42.666667 0 0 0 60.330667 0L512 145.664l140.501333 140.501333a42.666667 42.666667 0 0 0 60.330667-60.330666l-170.666667-170.666667a42.666667 42.666667 0 0 0-60.330666 0l-170.666667 170.666667a42.666667 42.666667 0 0 0 0 60.330666z"  horiz-adv-x="1024" />

    
    <glyph glyph-name="message" unicode="&#58991;" d="M85.333333 640a85.333333 85.333333 0 0 0 85.333334 85.333333h682.666666a85.333333 85.333333 0 0 0 85.333334-85.333333v-469.333333a85.333333 85.333333 0 0 0-85.333334-85.333334h-195.669333l-115.498667-115.498666a42.666667 42.666667 0 0 0-60.330666 0L366.336 85.333333H170.666667a85.333333 85.333333 0 0 0-85.333334 85.333334V640z m768 0H170.666667v-469.333333h213.333333a42.666667 42.666667 0 0 0 30.165333-12.501334L512 60.330667l97.834667 97.834666A42.666667 42.666667 0 0 0 640 170.666667h213.333333V640zM256 490.666667a42.666667 42.666667 0 0 0 42.666667 42.666666h426.666666a42.666667 42.666667 0 1 0 0-85.333333H298.666667a42.666667 42.666667 0 0 0-42.666667 42.666667z m0-170.666667a42.666667 42.666667 0 0 0 42.666667 42.666667h256a42.666667 42.666667 0 1 0 0-85.333334H298.666667a42.666667 42.666667 0 0 0-42.666667 42.666667z"  horiz-adv-x="1024" />

    
    <glyph glyph-name="options-vertical" unicode="&#58992;" d="M426.666667 384a85.333333 85.333333 0 1 1 170.666666 0 85.333333 85.333333 0 0 1-170.666666 0zM426.666667 640a85.333333 85.333333 0 1 1 170.666666 0 85.333333 85.333333 0 0 1-170.666666 0zM426.666667 128a85.333333 85.333333 0 1 1 170.666666 0 85.333333 85.333333 0 0 1-170.666666 0z"  horiz-adv-x="1024" />

    
    <glyph glyph-name="shopping-cart" unicode="&#58993;" d="M177.194667 725.333333L256.426667 249.770667a42.368 42.368 0 0 1 13.952-25.728 42.538667 42.538667 0 0 1 28.970666-10.709334H768a42.666667 42.666667 0 0 1 40.490667 29.184l128 384A42.666667 42.666667 0 0 1 896 682.666667H270.805333L255.573333 774.4a42.368 42.368 0 0 1-15.232 26.666667A42.581333 42.581333 0 0 1 212.650667 810.666667H128a42.666667 42.666667 0 0 1 0-85.333334h49.194667z m157.610666-426.666666L285.013333 597.333333h551.808l-99.584-298.666666H334.805333zM426.666667 42.666667a85.333333 85.333333 0 1 0-170.666667 0 85.333333 85.333333 0 0 0 170.666667 0zM810.666667 42.666667a85.333333 85.333333 0 1 0-170.666667 0 85.333333 85.333333 0 0 0 170.666667 0z"  horiz-adv-x="1024" />

    
    <glyph glyph-name="shopping-cart-add" unicode="&#58994;" d="M256.426667 207.530667L176.682667 725.333333H128a42.666667 42.666667 0 0 0 0 85.333334h84.693333a42.368 42.368 0 0 0 28.16-10.026667 42.538667 42.538667 0 0 0 14.762667-26.752L269.610667 682.666667H597.333333v-85.333334H282.752l52.48-341.333333h401.024l64 213.333333h89.088l-80.469333-268.245333A42.666667 42.666667 0 0 0 768 170.666667H299.349333a42.368 42.368 0 0 0-28.8 10.581333 42.624 42.624 0 0 0-14.165333 26.282667zM426.666667 42.666667a85.333333 85.333333 0 1 0-170.666667 0 85.333333 85.333333 0 0 0 170.666667 0zM810.666667 42.666667a85.333333 85.333333 0 1 0-170.666667 0 85.333333 85.333333 0 0 0 170.666667 0zM810.666667 810.666667a42.666667 42.666667 0 0 0 42.666666-42.666667v-42.666667h42.666667a42.666667 42.666667 0 1 0 0-85.333333h-42.666667v-42.666667a42.666667 42.666667 0 1 0-85.333333 0V640h-42.666667a42.666667 42.666667 0 1 0 0 85.333333h42.666667V768a42.666667 42.666667 0 0 0 42.666667 42.666667z"  horiz-adv-x="1024" />

    
    <glyph glyph-name="grid" unicode="&#58995;" d="M128 682.666667a85.333333 85.333333 0 0 0 85.333333 85.333333h170.666667a85.333333 85.333333 0 0 0 85.333333-85.333333v-170.666667a85.333333 85.333333 0 0 0-85.333333-85.333333H213.333333a85.333333 85.333333 0 0 0-85.333333 85.333333V682.666667z m256 0H213.333333v-170.666667h170.666667V682.666667z m170.666667 0a85.333333 85.333333 0 0 0 85.333333 85.333333h170.666667a85.333333 85.333333 0 0 0 85.333333-85.333333v-170.666667a85.333333 85.333333 0 0 0-85.333333-85.333333h-170.666667a85.333333 85.333333 0 0 0-85.333333 85.333333V682.666667z m256 0h-170.666667v-170.666667h170.666667V682.666667zM128 256a85.333333 85.333333 0 0 0 85.333333 85.333333h170.666667a85.333333 85.333333 0 0 0 85.333333-85.333333v-170.666667a85.333333 85.333333 0 0 0-85.333333-85.333333H213.333333a85.333333 85.333333 0 0 0-85.333333 85.333333v170.666667z m256 0H213.333333v-170.666667h170.666667v170.666667z m170.666667 0a85.333333 85.333333 0 0 0 85.333333 85.333333h170.666667a85.333333 85.333333 0 0 0 85.333333-85.333333v-170.666667a85.333333 85.333333 0 0 0-85.333333-85.333333h-170.666667a85.333333 85.333333 0 0 0-85.333333 85.333333v170.666667z m256 0h-170.666667v-170.666667h170.666667v170.666667z"  horiz-adv-x="1024" />

    
    <glyph glyph-name="stop" unicode="&#58996;" d="M213.333333 597.333333a85.333333 85.333333 0 0 0 85.333334 85.333334h426.666666a85.333333 85.333333 0 0 0 85.333334-85.333334v-426.666666a85.333333 85.333333 0 0 0-85.333334-85.333334H298.666667a85.333333 85.333333 0 0 0-85.333334 85.333334V597.333333z m512 0H298.666667v-426.666666h426.666666V597.333333z"  horiz-adv-x="1024" />

    
    <glyph glyph-name="speakers" unicode="&#58997;" d="M170.666667 725.333333a85.333333 85.333333 0 0 0 85.333333 85.333334h512a85.333333 85.333333 0 0 0 85.333333-85.333334v-682.666666a85.333333 85.333333 0 0 0-85.333333-85.333334H256a85.333333 85.333333 0 0 0-85.333333 85.333334V725.333333z m597.333333 0H256v-682.666666h512V725.333333zM512 384a85.333333 85.333333 0 1 1 0-170.666667 85.333333 85.333333 0 0 1 0 170.666667z m-170.666667-85.333333a170.666667 170.666667 0 1 0 341.333334 0 170.666667 170.666667 0 0 0-341.333334 0zM576 576a64 64 0 1 0-128 0 64 64 0 0 0 128 0z"  horiz-adv-x="1024" />

    
    <glyph glyph-name="previous" unicode="&#58998;" d="M810.666667 564.650667c0 66.304-72.362667 107.306667-129.237334 73.173333l-301.056-180.650667c-55.253333-33.152-55.253333-113.194667 0-146.346666l301.056-180.650667c56.874667-34.133333 129.237333 6.826667 129.237334 73.173333V564.650667zM424.277333 384L725.333333 564.650667v-361.301334L424.277333 384zM256 640a42.666667 42.666667 0 0 0 42.666667-42.666667v-426.666666a42.666667 42.666667 0 1 0-85.333334 0V597.333333a42.666667 42.666667 0 0 0 42.666667 42.666667z"  horiz-adv-x="1024" />

    
    <glyph glyph-name="table" unicode="&#58999;" d="M85.333333 661.333333a85.333333 85.333333 0 0 0 85.333334 85.333334h682.666666a85.333333 85.333333 0 0 0 85.333334-85.333334v-554.666666a85.333333 85.333333 0 0 0-85.333334-85.333334H170.666667a85.333333 85.333333 0 0 0-85.333334 85.333334v554.666666z m384 0H170.666667v-128h298.666666v128z m85.333334 0v-128h298.666666v128h-298.666666z m298.666666-213.333333h-298.666666v-128h298.666666v128z m0-213.333333h-298.666666v-128h298.666666v128z m-384-128v128H170.666667v-128h298.666666z m-298.666666 213.333333h298.666666v128H170.666667v-128z"  horiz-adv-x="1024" />

    
    <glyph glyph-name="repeat" unicode="&#59000;" d="M892.757333 656.341333a42.538667 42.538667 0 0 1-9.258666 13.824l-128 128a42.666667 42.666667 0 1 1-60.330667-60.330666L750.336 682.666667H341.333333a213.333333 213.333333 0 0 1-213.333333-213.333334v-85.333333a42.666667 42.666667 0 1 1 85.333333 0v85.333333a128 128 0 0 0 128 128h409.002667l-55.168-55.168a42.666667 42.666667 0 0 1 60.330667-60.330666l128 128A42.538667 42.538667 0 0 1 896 640M892.757333 656.341333a42.496 42.496 0 0 0 3.242667-16.213333l-3.242667 16.213333zM131.242667 144.341333a42.538667 42.538667 0 0 1 9.258666-46.506666l128-128a42.666667 42.666667 0 0 1 60.330667 60.330666L273.664 85.333333H682.666667a213.333333 213.333333 0 0 1 213.333333 213.333334v85.333333a42.666667 42.666667 0 1 1-85.333333 0v-85.333333a128 128 0 0 0-128-128H273.664l55.168 55.168a42.666667 42.666667 0 1 1-60.330667 60.330666l-128-128M131.242667 144.341333a42.538667 42.538667 0 0 0 9.173333 13.738667l-9.173333-13.738667z"  horiz-adv-x="1024" />

    
    <glyph glyph-name="switch" unicode="&#59001;" d="M609.834667 798.165333a42.666667 42.666667 0 0 0 60.330666 0l170.666667-170.666666a42.666667 42.666667 0 0 0 0-60.330667l-170.666667-170.666667a42.666667 42.666667 0 0 0-60.330666 60.330667L707.669333 554.666667H213.333333a42.666667 42.666667 0 0 0 0 85.333333h494.336l-97.834666 97.834667a42.666667 42.666667 0 0 0 0 60.330666z m-195.669334-426.666666a42.666667 42.666667 0 0 0 0-60.330667L316.330667 213.333333H810.666667a42.666667 42.666667 0 1 0 0-85.333333H316.330667l97.834666-97.834667a42.666667 42.666667 0 0 0-60.330666-60.330666l-170.666667 170.666666a42.666667 42.666667 0 0 0 0 60.330667l170.666667 170.666667a42.666667 42.666667 0 0 0 60.330666 0z"  horiz-adv-x="1024" />

    
    <glyph glyph-name="map" unicode="&#59002;" d="M370.517333 765.824a42.666667 42.666667 0 0 0 26.965334 0L640 684.970667l186.325333 62.122666A85.333333 85.333333 0 0 0 938.666667 666.154667V158.72a85.333333 85.333333 0 0 0-58.325334-80.981333l-226.858666-75.605334a42.666667 42.666667 0 0 0-26.965334 0L384 83.029333 197.632 20.906667A85.333333 85.333333 0 0 0 85.333333 101.845333V609.28a85.333333 85.333333 0 0 0 58.368 80.981333l226.816 75.605334zM426.666667 158.72l170.666666-56.917333V609.28l-170.666666 56.917333V158.72zM341.333333 666.154667L170.666667 609.237333v-507.392l170.666666 56.917334V666.154667z m341.333334-56.917334v-507.392l170.666666 56.917334V666.154667l-170.666666-56.917334z"  horiz-adv-x="1024" />

    
    <glyph glyph-name="undo" unicode="&#59003;" d="M520.832 798.165333a42.666667 42.666667 0 0 0 0-60.330666L465.664 682.666667H533.333333c198.485333 0 362.666667-164.181333 362.666667-362.666667S731.818667-42.666667 533.333333-42.666667 170.666667 121.514667 170.666667 320a42.666667 42.666667 0 1 0 85.333333 0c0-151.381333 125.952-277.333333 277.333333-277.333333s277.333333 125.952 277.333334 277.333333S684.714667 597.333333 533.333333 597.333333h-67.669333l55.168-55.168a42.666667 42.666667 0 0 0-60.330667-60.330666l-128 128a42.666667 42.666667 0 0 0 0 60.330666l128 128a42.666667 42.666667 0 0 0 60.330667 0z"  horiz-adv-x="1024" />

    
    <glyph glyph-name="user" unicode="&#59004;" d="M512 725.333333a170.666667 170.666667 0 1 1 0-341.333333 170.666667 170.666667 0 0 1 0 341.333333zM256 554.666667a256 256 0 1 0 512 0A256 256 0 0 0 256 554.666667z m85.333333-426.666667a128 128 0 0 1-128-128 42.666667 42.666667 0 1 0-85.333333 0 213.333333 213.333333 0 0 0 213.333333 213.333333h341.333334a213.333333 213.333333 0 0 0 213.333333-213.333333 42.666667 42.666667 0 1 0-85.333333 0 128 128 0 0 1-128 128H341.333333z"  horiz-adv-x="1024" />

    
    <glyph glyph-name="unlock" unicode="&#59005;" d="M512 725.333333c-70.314667 0-128-57.685333-128-128v-128h384a85.333333 85.333333 0 0 0 85.333333-85.333333v-341.333333a85.333333 85.333333 0 0 0-85.333333-85.333334H256a85.333333 85.333333 0 0 0-85.333333 85.333334v341.333333a85.333333 85.333333 0 0 0 85.333333 85.333333h42.666667V597.333333c0 117.418667 95.914667 213.333333 213.333333 213.333334s213.333333-95.914667 213.333333-213.333334a42.666667 42.666667 0 1 0-85.333333 0c0 70.314667-57.685333 128-128 128z m-256-341.333333v-341.333333h512v341.333333H256z"  horiz-adv-x="1024" />

    
    <glyph glyph-name="tablet" unicode="&#59006;" d="M170.666667 725.333333a85.333333 85.333333 0 0 0 85.333333 85.333334h512a85.333333 85.333333 0 0 0 85.333333-85.333334v-682.666666a85.333333 85.333333 0 0 0-85.333333-85.333334H256a85.333333 85.333333 0 0 0-85.333333 85.333334V725.333333z m597.333333 0H256v-682.666666h512V725.333333zM554.666667 128a42.666667 42.666667 0 1 0-85.333334 0 42.666667 42.666667 0 0 0 85.333334 0z"  horiz-adv-x="1024" />

    
    <glyph glyph-name="share" unicode="&#59007;" d="M481.834667 798.165333a42.666667 42.666667 0 0 0 60.330666 0l128-128a42.666667 42.666667 0 0 0-60.330666-60.330666L554.666667 665.002667V256a42.666667 42.666667 0 1 0-85.333334 0V665.002667L414.165333 609.834667a42.666667 42.666667 0 0 0-60.330666 60.330666l128 128zM170.666667 426.666667a85.333333 85.333333 0 0 0 85.333333 85.333333h85.333333a42.666667 42.666667 0 0 0 0-85.333333H256v-384h512v384h-85.333333a42.666667 42.666667 0 1 0 0 85.333333h85.333333a85.333333 85.333333 0 0 0 85.333333-85.333333v-384a85.333333 85.333333 0 0 0-85.333333-85.333334H256a85.333333 85.333333 0 0 0-85.333333 85.333334v384z"  horiz-adv-x="1024" />

    
    <glyph glyph-name="user-remove" unicode="&#59008;" d="M426.666667 725.333333a170.666667 170.666667 0 1 1 0-341.333333 170.666667 170.666667 0 0 1 0 341.333333zM170.666667 554.666667a256 256 0 1 0 512 0A256 256 0 0 0 170.666667 554.666667z m512-256a42.666667 42.666667 0 0 0 42.666666 42.666666h170.666667a42.666667 42.666667 0 1 0 0-85.333333h-170.666667a42.666667 42.666667 0 0 0-42.666666 42.666667z m-405.333334-170.666667C223.573333 128 170.666667 76.245333 170.666667 0a42.666667 42.666667 0 1 0-85.333334 0c0 112.298667 80.768 213.333333 192 213.333333h298.666667c111.232 0 192-101.034667 192-213.333333a42.666667 42.666667 0 1 0-85.333333 0c0 76.245333-52.906667 128-106.666667 128h-298.666667z"  horiz-adv-x="1024" />

    
    <glyph glyph-name="user-add" unicode="&#59009;" d="M426.666667 725.333333a170.666667 170.666667 0 1 1 0-341.333333 170.666667 170.666667 0 0 1 0 341.333333zM170.666667 554.666667a256 256 0 1 0 512 0A256 256 0 0 0 170.666667 554.666667z m640-128a42.666667 42.666667 0 0 0 42.666666-42.666667v-42.666667h42.666667a42.666667 42.666667 0 1 0 0-85.333333h-42.666667v-42.666667a42.666667 42.666667 0 1 0-85.333333 0v42.666667h-42.666667a42.666667 42.666667 0 1 0 0 85.333333h42.666667v42.666667a42.666667 42.666667 0 0 0 42.666667 42.666667zM277.333333 128C223.573333 128 170.666667 76.245333 170.666667 0a42.666667 42.666667 0 1 0-85.333334 0c0 112.298667 80.768 213.333333 192 213.333333h298.666667c111.232 0 192-101.034667 192-213.333333a42.666667 42.666667 0 1 0-85.333333 0c0 76.245333-52.906667 128-106.666667 128h-298.666667z"  horiz-adv-x="1024" />

    
    <glyph glyph-name="sunrise" unicode="&#59010;" d="M554.666667 682.666667a42.666667 42.666667 0 1 1-85.333334 0v-42.666667a42.666667 42.666667 0 1 1 85.333334 0V682.666667zM385.194667 85.333333H128a42.666667 42.666667 0 1 0 0 85.333334h162.261333a256 256 0 1 0 443.477334 0H896a42.666667 42.666667 0 1 0 0-85.333334H385.194667zM512 469.333333a170.666667 170.666667 0 0 1-112.896-298.666666h225.792A170.666667 170.666667 0 0 1 512 469.333333zM813.696 540.032l-30.165333-30.165333a42.666667 42.666667 0 1 0-60.330667 60.330666l30.165333 30.165334a42.666667 42.666667 0 1 0 60.330667-60.330667zM170.666667 256a42.666667 42.666667 0 1 1 0 85.333333H128a42.666667 42.666667 0 1 1 0-85.333333h42.666667zM938.666667 298.666667a42.666667 42.666667 0 0 0-42.666667-42.666667h-42.666667a42.666667 42.666667 0 1 0 0 85.333333h42.666667a42.666667 42.666667 0 0 0 42.666667-42.666666zM240.469333 509.866667A42.666667 42.666667 0 0 1 300.8 570.197333l-30.165333 30.165334A42.666667 42.666667 0 1 1 210.346667 540.032l30.165333-30.165333z"  horiz-adv-x="1024" />

    
    <glyph glyph-name="sun" unicode="&#59011;" d="M512 810.666667a42.666667 42.666667 0 0 0 42.666667-42.666667v-42.666667a42.666667 42.666667 0 1 0-85.333334 0V768a42.666667 42.666667 0 0 0 42.666667 42.666667z m301.696-124.970667a42.666667 42.666667 0 0 0 0-60.330667l-30.165333-30.165333a42.666667 42.666667 0 1 0-60.330667 60.330667l30.165333 30.165333a42.666667 42.666667 0 0 0 60.330667 0z m-603.392 0a42.666667 42.666667 0 0 0 60.330667 0l30.165333-30.165333A42.666667 42.666667 0 0 0 240.469333 595.2l-30.165333 30.165333a42.666667 42.666667 0 0 0 0 60.330667zM512 554.666667a170.666667 170.666667 0 1 1 0-341.333334 170.666667 170.666667 0 0 1 0 341.333334z m-256-170.666667a256 256 0 1 0 512 0 256 256 0 0 0-512 0z m-170.666667 0a42.666667 42.666667 0 0 0 42.666667 42.666667h42.666667a42.666667 42.666667 0 1 0 0-85.333334H128a42.666667 42.666667 0 0 0-42.666667 42.666667z m725.333334 0a42.666667 42.666667 0 0 0 42.666666 42.666667h42.666667a42.666667 42.666667 0 1 0 0-85.333334h-42.666667a42.666667 42.666667 0 0 0-42.666666 42.666667zM240.469333 172.8a42.666667 42.666667 0 0 0 60.330667-60.330667l-30.165333-30.165333a42.666667 42.666667 0 0 0-60.330667 60.330667l30.165333 30.165333z m482.730667-60.330667a42.666667 42.666667 0 0 0 60.330667 60.330667l30.165333-30.165333a42.666667 42.666667 0 0 0-60.330667-60.330667l-30.165333 30.165333zM512 85.333333a42.666667 42.666667 0 0 0 42.666667-42.666666v-42.666667a42.666667 42.666667 0 1 0-85.333334 0v42.666667a42.666667 42.666667 0 0 0 42.666667 42.666666z"  horiz-adv-x="1024" />

    
    <glyph glyph-name="sort" unicode="&#59012;" d="M268.501333 712.832a42.666667 42.666667 0 0 0 60.330667 0l170.666667-170.666667a42.666667 42.666667 0 0 0-60.330667-60.330666L341.333333 579.669333V85.333333a42.666667 42.666667 0 1 0-85.333333 0V579.669333L158.165333 481.834667a42.666667 42.666667 0 0 0-60.330666 60.330666l170.666666 170.666667zM682.666667 188.330667V682.666667a42.666667 42.666667 0 1 0 85.333333 0v-494.336l97.834667 97.834666a42.666667 42.666667 0 0 0 60.330666-60.330666l-170.666666-170.666667a42.666667 42.666667 0 0 0-60.330667 0l-170.666667 170.666667a42.666667 42.666667 0 0 0 60.330667 60.330666L682.666667 188.330667z"  horiz-adv-x="1024" />

    
    <glyph glyph-name="user-check" unicode="&#59013;" d="M426.666667 725.333333a170.666667 170.666667 0 1 1 0-341.333333 170.666667 170.666667 0 0 1 0 341.333333zM170.666667 554.666667a256 256 0 1 0 512 0A256 256 0 0 0 170.666667 554.666667z m753.664-138.794667a42.666667 42.666667 0 0 0 3.541333-60.202667l-113.749333-128a42.666667 42.666667 0 0 0-63.786667 0l-56.874667 64a42.666667 42.666667 0 0 0 63.744 56.661334l25.002667-28.117334 81.92 92.16a42.666667 42.666667 0 0 0 60.202667 3.498667zM277.333333 128C223.573333 128 170.666667 76.245333 170.666667 0a42.666667 42.666667 0 1 0-85.333334 0c0 112.298667 80.768 213.333333 192 213.333333h298.666667c111.232 0 192-101.034667 192-213.333333a42.666667 42.666667 0 1 0-85.333333 0c0 76.245333-52.906667 128-106.666667 128h-298.666667z"  horiz-adv-x="1024" />

    
    <glyph glyph-name="warning" unicode="&#59014;" d="M512 298.666667a42.666667 42.666667 0 0 0-42.666667 42.666666v128a42.666667 42.666667 0 1 0 85.333334 0v-128a42.666667 42.666667 0 0 0-42.666667-42.666666zM448 192a64 64 0 1 0 128 0 64 64 0 0 0-128 0zM436.48 758.784c32 60.8 119.04 60.8 151.04 0l355.968-676.352C973.397333 25.6 932.266667-42.666667 867.968-42.666667H156.032c-64.213333 0-105.386667 68.266667-75.52 125.056L436.48 758.784zM868.010667 42.666667L512 719.061333 155.989333 42.666667h712.021334z"  horiz-adv-x="1024" />

    
    <glyph glyph-name="volume-off" unicode="&#59015;" d="M572.501333 806.784A42.666667 42.666667 0 0 0 597.333333 768v-768a42.666667 42.666667 0 0 0-70.4-32.426667L240.213333 213.333333H128a42.666667 42.666667 0 0 0-42.666667 42.666667V512a42.666667 42.666667 0 0 0 42.666667 42.666667h112.213333l286.72 245.76a42.666667 42.666667 0 0 0 45.568 6.357333zM512 675.2L283.733333 479.573333A42.666667 42.666667 0 0 0 256 469.333333H170.666667v-170.666666h85.333333a42.666667 42.666667 0 0 0 27.733333-10.24L512 92.714667V675.242667z m183.168-175.744a42.666667 42.666667 0 0 0 60.330667 0L810.666667 444.330667l55.168 55.168a42.666667 42.666667 0 1 0 60.330666-60.330667L870.997333 384l55.168-55.168a42.666667 42.666667 0 0 0-60.330666-60.330667L810.666667 323.669333l-55.168-55.168a42.666667 42.666667 0 0 0-60.330667 60.330667L750.336 384l-55.168 55.168a42.666667 42.666667 0 0 0 0 60.330667z"  horiz-adv-x="1024" />

    
    <glyph glyph-name="tag" unicode="&#59016;" d="M85.333333 768a42.666667 42.666667 0 0 0 42.666667 42.666667h341.333333a42.666667 42.666667 0 0 0 30.165334-12.501334l426.666666-426.666666a42.666667 42.666667 0 0 0 0-60.330667l-341.333333-341.333333a42.666667 42.666667 0 0 0-60.330667 0l-426.666666 426.666666A42.666667 42.666667 0 0 0 85.333333 426.666667V768z m85.333334-42.666667v-281.002666l384-384L835.669333 341.333333l-384 384H170.666667zM384 576a64 64 0 1 0-128 0 64 64 0 0 0 128 0z"  horiz-adv-x="1024" />

    
    <glyph glyph-name="shuffle" unicode="&#59017;" d="M935.424 613.674667a42.538667 42.538667 0 0 1-9.258667 13.824l-128 128a42.666667 42.666667 0 1 1-60.330666-60.330667L793.002667 640h-141.696a213.333333 213.333333 0 0 1-182.954667-103.594667l-156.586667-260.906666A128 128 0 0 0 202.069333 213.333333H128a42.666667 42.666667 0 1 1 0-85.333333h74.026667a213.333333 213.333333 0 0 1 182.954666 103.594667l156.586667 260.906666A128 128 0 0 0 651.264 554.666667h141.653333l-55.125333-55.168a42.666667 42.666667 0 0 1 60.330667-60.330667l128 128A42.538667 42.538667 0 0 1 938.666667 597.333333M935.424 613.674667a42.496 42.496 0 0 0 3.242667-16.213334l-3.242667 16.213334zM926.122667 140.458667l-127.957334-128a42.666667 42.666667 0 0 0-60.330666 60.373333L793.002667 128h-141.696a213.333333 213.333333 0 0 0-182.954667 103.594667l-156.586667 260.906666A128 128 0 0 1 202.069333 554.666667H128a42.666667 42.666667 0 0 0 0 85.333333h74.026667a213.333333 213.333333 0 0 0 182.954666-103.594667l156.586667-260.906666A128 128 0 0 1 651.264 213.333333h141.653333l-55.125333 55.168a42.666667 42.666667 0 0 0 60.330667 60.330667l128-128c8.32-8.277333 12.458667-19.2 12.501333-30.037333V170.666667a42.538667 42.538667 0 0 0-12.544-30.208z"  horiz-adv-x="1024" />

    
    <glyph glyph-name="users" unicode="&#59018;" d="M426.666667 725.333333a170.666667 170.666667 0 1 1 0-341.333333 170.666667 170.666667 0 0 1 0 341.333333zM170.666667 554.666667a256 256 0 1 0 512 0A256 256 0 0 0 170.666667 554.666667z m547.328 181.034666a42.666667 42.666667 0 0 0 60.373333 0 256 256 0 0 0 0-362.069333 42.666667 42.666667 0 1 0-60.373333 60.373333 170.666667 170.666667 0 0 1 0 241.322667 42.666667 42.666667 0 0 0 0 60.373333z m29.952-554.666666a42.666667 42.666667 0 0 0 51.712 31.018666c56.661333-14.165333 92.544-50.346667 113.152-91.648 19.968-39.893333 25.856-84.48 25.856-120.405333a42.666667 42.666667 0 1 0-85.333334 0c0 28.032-4.778667 58.154667-16.810666 82.261333-11.392 22.741333-28.885333 39.850667-57.557334 47.018667a42.666667 42.666667 0 0 0-31.018666 51.712zM277.333333 128C223.573333 128 170.666667 76.245333 170.666667 0a42.666667 42.666667 0 1 0-85.333334 0c0 112.298667 80.768 213.333333 192 213.333333h298.666667c111.232 0 192-101.034667 192-213.333333a42.666667 42.666667 0 1 0-85.333333 0c0 76.245333-52.906667 128-106.666667 128h-298.666667z"  horiz-adv-x="1024" />

    
    <glyph glyph-name="webcam" unicode="&#59019;" d="M917.333333 635.733333c-12.8 8.533333-29.866667 8.533333-42.666666 0l-187.733334-128V597.333333c0 46.933333-38.4 85.333333-85.333333 85.333334H170.666667c-46.933333 0-85.333333-38.4-85.333334-85.333334v-426.666666c0-46.933333 38.4-85.333333 85.333334-85.333334h426.666666c46.933333 0 85.333333 38.4 85.333334 85.333334v89.6l187.733333-128c8.533333-4.266667 17.066667-8.533333 25.6-8.533334 8.533333 0 12.8 0 21.333333 4.266667 12.8 8.533333 21.333333 21.333333 21.333334 38.4V597.333333c0 17.066667-8.533333 29.866667-21.333334 38.4zM597.333333 170.666667H170.666667V597.333333h426.666666v-426.666666z m256 81.066666l-170.666666 115.2v38.4l170.666666 115.2v-268.8z"  horiz-adv-x="1024" />

    
    </font>
</defs>
</svg>
