<svg xmlns="http://www.w3.org/2000/svg" viewBox="0 0 264.3 284.13"><defs><style>.cls-1{fill:#fff;}</style></defs><title>资源 1</title><g id="图层_2" data-name="图层 2"><g id="图层_1-2" data-name="图层 1"><path class="cls-1" d="M264.25,231c-.34-1.56-1.73.85-2.71.08-4.6,1.29-9.21,2.52-13.79,3.87-7.26,2.15-14.51,4.39-21.76,6.59-2.48.64-5.05,1-7.37,2.17a.55.55,0,0,1-.34.34l.34-.34a9.79,9.79,0,0,0-5.21,1.49h0c-11.66,3.14-23.28,6.39-34.72,10.25h0c-5.28.52-10.1,2.73-15.16,4.06-10.5,2.74-20.71,6.5-31.35,8.74-5.45,2.34-11.27,3.46-16.91,5.19a6.46,6.46,0,0,0-5.24,1.46h0c-3-.41-6.41,2-9.43-1.27l4.1-1.07c0-.26,0-.52,0-.78.92-.73,2.33-.23,3.14-1.25h0c2.8-.58,5.73-.68,8.25-2.25h0c.58.1,1.11.07,1.39-.56h0a.89.89,0,0,0,.61-.19c3.22.13,6.09-1.22,9-2.23,1.51-.28,3.08-.36,4.35-1.38a158.5,158.5,0,0,0,23.8-6.73h0c3.24-.12,6.24-1.34,9.26-2.26,5.72-1.75,11.7-2.61,17.19-5.12a21,21,0,0,0,5-1c9.06-2.54,18-5.44,27.24-7.41,1.25-1.56,3.5-.68,4.84-2h0c5.92-1.58,11.85-3.13,17.76-4.76,1.78-.5,4.26-5,3.33-6.26-1.39-1.86-3.11-.23-4.63.13-4.29,1-8.3,3.08-12.76,3.5-.77.91-1.93,1-3,1.28l-14.21,4.51h0l-1.51,0-31.93,10.09a2.11,2.11,0,0,0-.71.23c-.94.24-1.88.45-2.81.72-9.62,2.74-19,6.23-28.8,8.41l-2.31,1.24a29.38,29.38,0,0,0-11.93,3.66h0a3.91,3.91,0,0,0-2.84.75h0c-3.06.75-6.23,1.14-8.93,2.95h.05a7.59,7.59,0,0,0-5.19,1.46h0c-2.13,0-4,1.12-6,1.41-3,.43-5.87,3.71-9.17.81-.1-.16-.2-.33-.28-.49a3.23,3.23,0,0,1-.42-1.38c0-.72.7-1.21,2.14-1.53a21.81,21.81,0,0,0,5.91-1.73c.4-.13.79-.25,1.18-.39a1.37,1.37,0,0,0,.18-.24,2.59,2.59,0,0,0,2.1-.2,11.52,11.52,0,0,1,1.48-.56,14,14,0,0,0,4-1.16c.9-.29,1.8-.54,2.7-.76l2-.42a27.45,27.45,0,0,1,3.53-.43c14.65-3.49,29-8.24,43.5-12.16,13.74-3.7,27.3-8.06,41.06-11.73,4-1.46,8.09-2.65,12.19-3.78a1.9,1.9,0,0,0,.84-.82,14.31,14.31,0,0,0,.78-2c.19-1.3.89-2.69-.36-3.78s-2.23.19-3.36.43c-6.2,1.33-12,4-18.26,5.16-.74.22-1.49.4-2.23.63-1.37,1.3-3.6.75-4.85,2.3-.37.65-.94.66-1.58.5-3.6.26-6.82,2.28-10.47,2.32-7,2.28-14.06,4.59-21.19,6.54-4,1.22-8.05,2.52-12.13,3.6a7.35,7.35,0,0,0-1,.38c-2.2,1.1-4.64,1.41-7,2.07-.67.24-1.33.51-2,.78-4.76,1.31-9.37,3.15-14.19,4.3-2.17.89-4.58,1.07-6.64,2.31-.26.23-.52.46-.79.68a3.83,3.83,0,0,0-1.88,1,2.76,2.76,0,0,1-.77.12c-1.54.23-3,.69-4.53,1a7.82,7.82,0,0,0-2.39,1.08,1.68,1.68,0,0,0-.2.34h-2c-.57.73-2-.22-2.36,1l-.33.14c-.21.11-.43.2-.64.3l-1.8.21c-.05.15-.11.29-.16.44l-.27.05a3.31,3.31,0,0,0-.53.06,5.78,5.78,0,0,1-2.74-.53,3.11,3.11,0,0,1-.26-.87,4,4,0,0,1-.58-1.09,7,7,0,0,1,.38-1.54A3.79,3.79,0,0,1,90.6,259a7,7,0,0,0,3.43-1.1h0l2-1a.72.72,0,0,0-.11.37c1.24-.34,2.64-.08,3.75-1l-.11-.17,0,0,.06.2,4.46-1.37h0c1.77.28,3.28-.81,5-1,1.58-1.28,3.9-.63,5.41-2.09h0c2.11-.52,4.37-.55,6.23-1.83a2.07,2.07,0,0,0,.55,0c1.07-.31,2.21-.33,3.28-.64a5,5,0,0,0,.81-.46,6.33,6.33,0,0,0,1.13-.32c.71-.2,1.42-.41,2.13-.65a3.26,3.26,0,0,1,1.2,0l2.65-1.32c.54-.16,1.07-.33,1.61-.46l.46-.08a13.42,13.42,0,0,0,3.22-.74l.28-.08a6.24,6.24,0,0,1,1.43-.2,1.75,1.75,0,0,0,.12-.32l.38-.17a6.13,6.13,0,0,0,4.76-.82l1.31-.15c1.08-1,3-.2,3.84-1.75l.37-.1a1,1,0,0,0,.43.1c2-.08,3.89-.85,5.86-1.1l.85-.76c1.35-1.09,3.62,0,4.8-1.47l.49,0A40,40,0,0,0,167.6,237v.05c3.53-.56,6.83-2,10.36-2.61,1-1.22,2.58-.28,3.74-1l1.47-.89a4.46,4.46,0,0,0,4.32-1.57l-.08,0c1.06-3.89.58-4.52-2.95-3.69a39.93,39.93,0,0,0-4.54,1.2c-2.83.75-5.55,1.8-8.33,2.68l-.8.32c-2.44-.14-4.48,1.52-6.79,2-3.67,2.25-8.19,2.08-11.91,4.2l-7.17,1.65a2.3,2.3,0,0,1-1.14.73l-1.41.31a11.36,11.36,0,0,0-2.06.54,11.16,11.16,0,0,1-2.39.9c-.3.06-.59.12-.88.2-.56.12-1.11.22-1.67.31a4.9,4.9,0,0,0-1,.46,22.15,22.15,0,0,1-2.17.85c-1.87.5-3.74,1-5.59,1.51a30,30,0,0,0-4.78,1.57,3.4,3.4,0,0,1-.64.43.91.91,0,0,0-.32.17l-14,3.74c-1.28,1.71-3.66.87-5.11,2.2-2.69,0-5,1.13-7.42,2.19h0A6.55,6.55,0,0,0,90,257l0,0c-2.13.23-3.92,0-3.71-2.84-.44-1-.89-2.07-1.33-3.11h0c-.3-4.17-1.59-8.16-1.66-12.4a87.62,87.62,0,0,1,5.28-30.35l1.35-1.69c.56-1.38,1.11-2.77,1.66-4.15h0v0L102,187a56.74,56.74,0,0,0,7.45-8.19c2.4-2,4.89-4,6.67-6.65h0l.59-.65a4.35,4.35,0,0,0,3-2.25,5.32,5.32,0,0,0,2.86-2.34h0c5.47-3.6,10.12-8.38,16.09-11.26l.72-.67a66.13,66.13,0,0,1,14.15-9l.8-1.29.17-.13,0-.2c.35-.25.72-.47,1.1-.7a5.84,5.84,0,0,1-1.1.7c4.91-1.34,9-4.26,13.26-6.87h0c3.79-1.57,7.72-2.86,10.9-5.61-.28-13.74,1.87-27.17,5.19-40.44-.42-2.08,1-3.85,1-5.86,1.36-5.16,3.78-10,4.36-15.41,1.24-1.41,1.58-3.26,2.35-4.89,1.7-3.6,2.4-7.63,4.86-10.88.22-3,2.34-5.24,3.27-8h0a1.71,1.71,0,0,0,.55-.09V44.84A14.22,14.22,0,0,0,203.25,39h0c4.88-7,8.39-14.9,13.87-21.55,3.66-4.45,7-9.15,10.5-13.74h0c1.32-.67,3-2,2.32-3.06-.92-1.53-2.58,0-3.86.52-3.94,1.55-7.86,3.15-11.78,4.73-.91,1.27-2.44,1.41-3.68,2.09-2.07.38-4,1-5.27,2.87-1.08.58-2.31.93-3,2.06h0c-2.05.07-3.32,1.84-5.15,2.37-4,1.34-7.39,3.82-10.86,6.06-2.93,1.9-6,3.77-8.34,6.44a.58.58,0,0,1-.56.15c-1.63,1.09-3.38,2-4.5,3.73-1.19.72-2.63,1.21-2.72,3h0l-8.41,6.57-4.58,5.06A3.88,3.88,0,0,0,155,48.56h0a1.13,1.13,0,0,1,0,.18c-3.05.27-3.85,3.42-6,4.83-1.41,2.27-3.5,4-5,6.2q-4.5,6.85-9,13.7c-1.76,1.13-1.86,3.49-3.51,4.71,0,.47-.09.94-.14,1.41h0a17.06,17.06,0,0,0-3.69,6.67h0a61.47,61.47,0,0,0-6,13.85,5.6,5.6,0,0,0-1.23,3.18.72.72,0,0,0-.16.66L119,106.39c.24.83-.84,2.27.44,2.42s1.71-1.26,1.66-2.52h0c2.31-6.18,6.63-11.22,9.61-17a1.59,1.59,0,0,0,.65-.11l3.06-5h0l0-.13c1.35.39,1.59-.76,2-1.63.19-.21.38-.41.56-.62,5.85-5.73,11.74-11.43,18.09-16.62,2-1.6,4.62-2.28,6.29-4.35l.18-.48,2.38-2h0c1.76.13,3-3.07,5.07-.87-1.5,2-1.89,4.31-2.21,6.68h0a.31.31,0,0,0-.05.47h0a26,26,0,0,0-3,9.62h0c-2.79,6.74-4,13.91-5.59,21-1.25,5.38-2.13,10.84-3.17,16.27q-.47,4-.91,7.91h0l-2.52,1.08a34.45,34.45,0,0,1-8.2,6L138,131.15h0l-6.48,4.14a8,8,0,0,1-3.64,2.9l-2.48,2.7h0v0l0,0a0,0,0,0,1,0,0c-2.7-.32-3.44,2.76-5.66,3.26l.07-.1c-1.54,1.95-3.66,3.3-5.34,5.11l-2.29,2.18c-1.49,1.68-4,2.55-4.3,5.15l-.22,0-5,4.49A45.48,45.48,0,0,1,96,168.39c-.52.92-1,1.83-1.57,2.74a29.93,29.93,0,0,0-5.13,6.76,24.57,24.57,0,0,0-3.76,5.89l-1.2,1-1.11,2.71h0C81.27,191.29,79.08,195,77.5,199c-2,5-3.48,10.19-5.19,15.29a30.31,30.31,0,0,1-.25,4.38,57.83,57.83,0,0,0-.64,18.3V237a15.6,15.6,0,0,0,.71,4.78q.66,3.63,1.61,7.26c.65,1.13.44,2.62,1.49,3.59h0c.75,1.39.06,3.28,1.54,4.41v0c.94,1.51,0,4.05,2.54,4.67l.16-.09.06.06c-.72,2.15.68,3.69,1.58,5.36,1.32,1,1.89,2.78,3.58,3.34a2.42,2.42,0,0,0-.85,1.37,1.56,1.56,0,0,0-.68-.37h0l-2-2.45c-.07-.45-.14-.9-.2-1.35-1.31-.61-1.21-2.51-2.72-2.95h0l-1.47-2.34h0c-.32-.94-.64-1.89-1-2.83l-1.26-2.28a.41.41,0,0,0-.38-.3c-.14-1.83-1.19-3.3-2-4.88l0,.06c-.58-1-.83-2.1-1.46-3v0c-2-4.27-3.91-8.57-4.42-13.34a54.33,54.33,0,0,1-2.76-12.89c-1.47-15.68-.47-31.11,5.36-46,3.6-9.17,7.92-17.9,14.27-25.51a9.06,9.06,0,0,0,2.34-3c1.12-1.17,2.39-2.25,2.92-3.87L89.84,143a37.46,37.46,0,0,1,9.36-9.71c4.29-3.19,6.82-6.68,5.49-12.18h0c-.9-2.65.38-5.52-.8-8.15,0-.09-.07-.19-.11-.29a10,10,0,0,0,0-1.54,231.38,231.38,0,0,1,.94-31,58.7,58.7,0,0,1,1.24-11,258.25,258.25,0,0,1,7.82-28.4h0c2.46-4.7,3.39-10.08,6.43-14.53.09-.66.18-1.33.26-2h0l.69-1.33h0l3.7-6.84.44-.83c.87-.6.78-1.34.33-2.14l-.11.06,0-.05.66-.8c.85-.42,1.44-1.28,1.19-2-.35-1-1.2.2-1.84,0a1.77,1.77,0,0,0-.08.6,6.63,6.63,0,0,0-4,2.11h0l-1.93,1.51c-1.15-.36-1.82.88-2.86.87-.82,1.25-2.61,1.38-3.25,2.83h0c-4.88,2.31-8.54,6.34-13,9.2-.56.61-1.12,1.23-1.69,1.84h0L96.05,31l-.86,1.35h0c-.8.22-.92.94-1.19,1.56h0c-1.83,1.45-3.75,2.82-4.85,5a19.58,19.58,0,0,0-5,5.37s-.1,0-.15.13A16,16,0,0,0,79.56,50h0l-2.79,2.49q-2.31,3.91-4.63,7.81h0c-2,1.62-2.54,4.25-4.22,6.09-.81,1.31-2.13,2.42-1.73,4.18l-.13.12c-.6.26-.64.76-.59,1.31l-1.27,1.16c-.76,1.67-1.51,3.35-2.27,5h0c0,.4-.11.8-.17,1.2-.69,1-1.5,1.86-1.47,3.16h0A16.51,16.51,0,0,0,57.46,90a5.3,5.3,0,0,0-.78,1.21C52,105.4,48.44,119.86,48.56,135c-.57,3-1.11,5.94.07,8.89h0l0,.07h0c0,.92.7.63,1.22.63,0-.5.11-1,.16-1.5a11.29,11.29,0,0,0,.32-1.77c.45-2,.56-4,1.37-5.92.7-4.15,1.84-8.2,2.86-12.27.29-1.13,1-2.28.17-3.48h0v0c2.1-3.88,2.83-8.4,5.61-11.95v0c1.39-1.69,2.78-3.38,3.14-5.64v-.24c.84-.31,1.23-1.22,1.64-1.88,3-4.81,6.34-9.35,9.18-14.22a2.83,2.83,0,0,0,0-.5A3.37,3.37,0,0,0,76,82.83a1.69,1.69,0,0,0,.62-.17c1.25-.49,1.65-2.12,3.12-2.39,1.1,1.67,1.12,3.48,1.11,5.32-.09,9.56-.2,19.15,1.68,28.56.81,4.06,1.14,7.65-2.21,10.68a1.9,1.9,0,0,0-.28.87,3.83,3.83,0,0,0-1.88,2.62c-.91,1-1.82,2.09-2.74,3.13-1,1.28-2.43,2.21-3,3.83l-1,1.26a39.47,39.47,0,0,0-6.25,10.28,1.55,1.55,0,0,0,.14.32h0l-1.71,2.1-5.88,13.24c-.27.93-.5,1.87-.82,2.78-3.45,9.67-6.57,19.41-7.58,29.7h0l-.08,1.42h0c-1,4.89,0,9.83-.44,14.73q1.48,7.38,3,14.75c1.32,3.11,2.14,6.43,3.55,9.52.18.5.36,1,.56,1.5a5.09,5.09,0,0,0,.42,1.06c.27.47.55,1,.81,1.42a15.14,15.14,0,0,0,1.42,3,11.27,11.27,0,0,1,.49,1.72c2.62,4.83,5.36,9.57,9.29,13.5a.88.88,0,0,0,.36.93l.67.77a7.77,7.77,0,0,0,1.89,2,.72.72,0,0,0,.51.82h0l2,2.42.35-.06.35.08a41.46,41.46,0,0,0,7.33,7.35h0c.27.48.54,1,.82,1.44l1.41.82h0l1.69,2.07a1.48,1.48,0,0,1,.62.11h0a4.44,4.44,0,0,0,0,.63c1.23,0,2.51-.36,3.69.35a.53.53,0,0,0,0-.46h0a49.12,49.12,0,0,0,4.31,2.76c5.35,2.72,10.6,5.83,17.08,3.92,7.76-2.29,15.6-4.31,23.36-6.6,10.71-3.16,21.64-5.53,32.16-9.32h0a3.11,3.11,0,0,0,2.87-.17c1.26-.46,2.5-1,3.79-1.39,16.54-4.7,33.08-9.43,49.64-14,8.76-2.44,17.57-4.67,26.36-7,2.07-1.4,5.7-.43,6.28-4.12l.25.06.19-.18a28.52,28.52,0,0,1,3.76-4.38,2.12,2.12,0,0,0,1.43-1.51h0C263.1,234,264.6,232.61,264.25,231Zm-71.12,13.51c-.62.2-1.24.4-1.85.62.06-.11.13-.2.19-.31.17-.32,1-.66,1.22-.52Zm-19.56,3.74v0ZM113.7,37.65l0,0,0-.13h0ZM75.25,82.56l0,0h0ZM58.25,90Zm0,0v0l-.09,0ZM60,102l.07,0a.26.26,0,0,0,0,.08ZM49.68,194a3.25,3.25,0,0,1-.39,1A6.69,6.69,0,0,1,49.68,194Zm167.51,51.18-.09,0h0l.07-.07ZM110,274.86Zm-7.13,1.19-.85.13-.16-.14h1Zm28.62-12.19,0,0h0Zm-.1-125.27a4.5,4.5,0,0,1-.06,1.48A10.53,10.53,0,0,1,131.42,138.59Zm34-65.61h.08l-.05.19ZM90.76,202.36ZM217.91,6.42h0a1,1,0,0,0-.08.11s0-.08,0-.12ZM135.15,74.47Zm19.26,45.11v0l0,0Zm-66,154.61v-.06l0,0h0l-.07,0Z"/><path class="cls-1" d="M76.63,270.1l-.12,0c-.71-1.73-1.59-3.22-3.82-2.85-.27-1.7-1.66-2.6-2.69-3.75a5.35,5.35,0,0,0-.87-.63,1.87,1.87,0,0,0-1.61-.21,6.76,6.76,0,0,0-.8-1c-.27-.29-.55-.57-.84-.85a15.87,15.87,0,0,0-1.64-1.64,8.47,8.47,0,0,1-.67-.79,2.43,2.43,0,0,1-.28-.53l-.16-.1a6,6,0,0,1-.61-1.15c-.47-.76-1-1.41-2-1.25a1.13,1.13,0,0,0-.1.13L59,254.09h0a4.79,4.79,0,0,0-2.18-3.15h0l-.27-1.21-1.3-.78h0l-.66-.76c.07-1.59-.9-2.6-1.9-3.59a4.69,4.69,0,0,0-.6-2.53,105.77,105.77,0,0,1-4.95-11.16,8.26,8.26,0,0,0-.4-.92,15.89,15.89,0,0,1-1.34-4.19c-.26-.83-.49-1.66-.75-2.49a22.83,22.83,0,0,1-1.44-6c-.93-4.07-1.29-8.23-2-12.33a62.14,62.14,0,0,1,0-17.6c.65-5.35,1.09-10.69,2.68-15.95s3.32-10.74,3.83-16.38c-2.21-5.23-2.57-11-4.31-16.31,0-1.4-.07-2.81-.11-4.21a2.34,2.34,0,0,1-.49-.33h0c-.39-3.21-.48-6.48-1.55-9.58h0a20.83,20.83,0,0,0-.68-6.62,179,179,0,0,1,0-31.66c.22-1.18.5-2.35.66-3.54.95-6.85,1.57-13.78,4.32-20.25.06-1.61-.27-2.63-2.12-1.44-1,1-2.06,2.08-3.12,3.09-4.52,4.32-9.12,8.56-12.52,13.89-6.29,6.48-10.36,14.43-14.68,22.21L13,101.65c-1.06,0-.8,1.17-1.35,1.63a136,136,0,0,0-11,39.65C-.76,155.4.24,167.71,2.14,180c1.43,2.09.75,4.82,2.07,6.94h0c-.06.78-.21,1.58.46,2.21h0c1,5.27,3.35,10.15,4.93,15.25l0,0a37.06,37.06,0,0,0,3.75,8.2l2.6,3.91c.33.87.67,1.75,1,2.63,1.27.82,1.3,2.67,2.75,3.35-.06.55-.09,1.08.53,1.37h0l5,7.92L28.38,235h0a23.7,23.7,0,0,0,4.49,5.19c.07.25.13.5.19.75,1.32.17,1.42,2.69,3.45,1.84a7.92,7.92,0,0,0-2.64-3.53h0c0-.22-.11-.43-.15-.65l-.6-.85c-1.18-1.06-1.4-2.91-3-3.66-.12-.24-.25-.48-.38-.72-1.83-4.07-4.74-7.56-6.28-11.78-.73-.52-1-1.69-2.13-1.64h0c.44-1.13-.64-1.86-.73-2.85L14,197.7c-.31-2.37-.63-4.74-.94-7.1-1.1-1.33-.47-3.15-1.27-4.56-.39-10.33-.68-20.67.74-31h0l.59-.8c-.46-2.25,1.06-4.25.85-6.47h0a1.89,1.89,0,0,1,.63-.22c.82-2.54,1.17-5.25,2.82-7.48-.05-1.88,1.84-3.12,1.67-5h0l.7-1.48c3.15-2.86,3.16-2.87,4.53,1.32.93,2.84.94,6,2.79,8.53h0c-.34,2,1.11,3.66,1.08,5.6a22.49,22.49,0,0,1,2,15.94,80,80,0,0,0-1.43,12.77c-1,14.79.16,29.38,4.48,43.63l2,4,0,0c.11.65.22,1.3.32,2,.48,1,1,2,1.42,3l2.62,4h0a39,39,0,0,0,6.83,10.25,16.17,16.17,0,0,0,4.26,5.18h0c.13.41.27.82.4,1.23,1,.9,2,1.77,2.94,2.72,3.84,3.89,7.47,8,12.25,10.84l2.33,2.25c1.27.42,2.22,1.59,3.69,1.51,0,1.95,2,1.84,3,2.82.07.21.14.41.22.62l1.25,1c2-.23,1.56-1.19.68-2.28A.77.77,0,0,0,76.63,270.1ZM52.29,245.27h0v0Zm-14.74-57a1.54,1.54,0,0,1-.22-.39v-.09a1.44,1.44,0,0,0,.29.42ZM37,184.55l.09.22,0,0C37.07,184.73,37.05,184.64,37,184.55Zm-4.54-23.49-.12,0c0-.05,0-.09,0-.14Zm6.29,54.51v0Zm1,4.3v.22s0-.06,0-.09S39.75,219.91,39.76,219.87Zm1.53-89.28v0h0v0l-.13,0,.13,0Zm1.19,3.93v0h0l.37-.27A1.53,1.53,0,0,0,42.48,134.52Z"/></g></g></svg>