<?xml version="1.0" encoding="utf-8"?>
<!-- Generator: Adobe Illustrator 23.0.6, SVG Export Plug-In . SVG Version: 6.00 Build 0)  -->
<svg version="1.1" id="图层_1" xmlns="http://www.w3.org/2000/svg" xmlns:xlink="http://www.w3.org/1999/xlink" x="0px" y="0px"
	 viewBox="0 0 200 200" style="enable-background:new 0 0 200 200;" xml:space="preserve">
<style type="text/css">
	.st0{fill:#FFFFFF;fill-opacity:1.000000e-02;}
	.st1{fill:#FFFFFF;}
	.st2{fill:#020204;}
	.st3{fill:#D99A03;}
	.st4{fill:#604405;}
	.st5{fill:#F5BD0C;}
	.st6{fill:#CD8907;}
</style>
<path class="st0" d="M16.3,16.3h167.5v167.5H16.3V16.3z"/>
<path class="st1" d="M102.3,41.3c-1.6,1.1-2.8,2.6-3.5,4.4c-0.7,2.3-0.6,4.8,0.3,7c0.7,2.4,2.2,4.4,4.2,5.9c1,0.7,2.2,1.2,3.4,1.3
	c1.2,0.2,2.5-0.1,3.6-0.6c1.3-0.7,2.4-1.9,3-3.2c0.6-1.4,0.9-2.9,1-4.3c0.1-1.9-0.1-3.8-0.7-5.6c-0.6-2-1.9-3.7-3.6-4.9
	c-0.9-0.6-1.9-0.9-2.9-1.1c-1-0.1-2.1,0-3.1,0.3C103.3,40.7,102.7,41,102.3,41.3"/>
<path class="st2" d="M155.5,117.6c-1-5.3-2.4-10.5-4.4-15.4c-1.4-3.7-3.2-7.2-5.5-10.4c-2.3-3.1-5.2-5.7-7.5-8.8
	c-1.2-1.6-2.2-3.4-3.5-5c-0.5-1-1-2.1-1.5-3.1c-1.5-3.3-2.9-6.6-4.6-9.7c-0.3-0.5-0.6-1-0.9-1.4c-0.2-3-0.5-6-0.7-9
	c0.1-6-0.4-12-1.5-17.9c-0.8-2.8-2-5.5-3.6-8c-1.8-2.9-4.2-5.5-7-7.5c-4.5-3.2-9.9-4.9-15.4-4.9c-4.1-0.1-8.1,0.8-11.7,2.7
	C84,21,80.9,24.2,79,28.1c-1.8,3.9-2.8,8.1-2.8,12.4c-0.1,4.2,0.3,8.4,0.4,12.6c0.2,4.4,0.1,8.8,0.4,13.1c0.1,1.4,0.3,2.8,0.3,4.2
	c0,0.7,0,1.4-0.1,2.1l-0.1,0.2c-1.9,3.2-4,6.3-6.3,9.3c-1.6,2-3.2,4.1-4.9,6.1c-2.1,2.4-3.9,5-5.3,7.8c-1,2.5-1.7,5-2.3,7.6
	l-0.1,0.2c-0.9,3-2,5.8-3.4,8.6c-0.1,0.3-0.3,0.5-0.4,0.8c-0.8,1.7-1.7,3.3-2.5,5l-1,1.9c-0.6,1.1-1.2,2.3-1.7,3.5
	c-0.3,0.7-0.5,1.5-0.6,2.2c-0.2,1.6-0.1,3.3,0.3,4.9c0.1,0.4,0.2,0.8,0.4,1.2c0.4,1.2,0.9,2.3,1.5,3.4c0.3,0.5,0.5,1,0.8,1.5
	l0.2,0.4c0.3,0.5,0.5,0.9,0.8,1.4l0,0.1c0.3,0.5,0.7,1,1,1.5l0,0.1c0.4,0.5,0.7,1,1.1,1.5c1.4,5.4,3.9,10.4,7.4,14.8
	c-0.5,0.9-1,1.9-1.6,2.8c-1.9,2.8-3.5,5.7-4.7,8.9c-0.5,1.6-0.6,3.3-0.4,5c0.3,1.7,1.2,3.2,2.4,4.3c0.9,0.7,1.9,1.1,3,1.4
	c1.1,0.2,2.2,0.3,3.3,0.3c4.2-0.3,8.3-1.1,12.2-2.4c2.4-0.6,4.8-1.2,7.2-1.7c2.5-0.6,5.1-0.9,7.7-1c0.6,0,1.3,0,1.9-0.1
	c1.8,0.2,3.5,0.3,5.3,0.2l0.6,0c0.5,0.1,0.9,0.1,1.4,0.1c3.1,0.2,6.2,0.5,9.3,0.9c2.7,0.4,5.4,0.9,8,1.6c4.1,1.2,8.3,2,12.6,2.4
	c1.1,0.1,2.3,0,3.4-0.3c1.1-0.2,2.1-0.7,3-1.4c1.3-1.1,2.2-2.6,2.5-4.3c0.3-1.7,0.1-3.4-0.4-5c-1.2-3.1-2.8-6.1-4.8-8.8
	c-0.7-1.1-1.3-2.3-2-3.5c2.9-3.2,5.4-6.8,7.6-10.6c1.3,0.1,2.6-0.1,3.8-0.5c3.3-1.1,6.1-3.2,8.1-6.1c0.6-0.8,1.1-1.8,1.4-2.8
	c1.3-2,2.2-4.2,2.6-6.6C156.4,125.4,156.3,121.5,155.5,117.6L155.5,117.6z"/>
<path class="st1" d="M83.6,64.7c-0.6,0.8-1,1.6-1.2,2.5c-0.2,0.9-0.3,1.9-0.4,2.8c0.1,1.9-0.1,3.8-0.5,5.6c-0.7,1.9-1.6,3.7-2.9,5.3
	c-2.2,2.7-3.9,5.8-5.1,9.1c-0.6,2-0.8,4.2-0.6,6.3c-2.3,3.3-4.2,6.9-5.9,10.6c-2.5,5.6-4.1,11.6-4.8,17.7c-0.8,7.5,0.3,15.1,3.2,22
	c2.1,5,5.3,9.5,9.4,13.1c2.1,1.8,4.4,3.3,6.9,4.6c8.7,4.3,18.9,4.2,27.6-0.3c4.3-2.5,8.3-5.6,11.7-9.3c2.2-2,4.2-4.3,5.9-6.7
	c2.9-5,4.6-10.7,5-16.5c1.8-10,0.7-20.3-3.2-29.8c-1.5-3.1-3.5-6-5.9-8.5c-0.6-4.4-1.9-8.7-3.8-12.7c-1.3-2.9-3-5.7-4.2-8.6
	c-0.5-1.2-0.9-2.5-1.5-3.6c-0.5-1.2-1.3-2.3-2.2-3.2c-1-0.9-2.2-1.6-3.5-2c-1.3-0.4-2.6-0.6-4-0.7c-2.7-0.1-5.4,0.2-8.1,0.1
	c-2.2-0.1-4.3-0.5-6.4-0.3c-1.1,0-2.1,0.3-3.1,0.7C85.2,63.1,84.3,63.8,83.6,64.7 M84.5,41.3c-1,0.1-2,0.5-2.7,1.2
	c-0.7,0.7-1.3,1.6-1.6,2.5c-0.5,2-0.6,4-0.4,6c0,1.8,0.4,3.6,0.9,5.4c0.3,0.8,0.8,1.6,1.5,2.3c0.6,0.7,1.4,1.1,2.3,1.4
	c0.8,0.2,1.7,0.2,2.5-0.1c0.8-0.3,1.6-0.7,2.2-1.3c0.9-0.9,1.5-2,1.8-3.2c0.3-1.2,0.5-2.5,0.4-3.7c0-1.6-0.2-3.1-0.7-4.6
	c-0.5-1.5-1.3-2.9-2.4-4c-0.5-0.5-1.1-1-1.8-1.3C86,41.4,85.3,41.3,84.5,41.3 M102.3,41.3c-1.6,1.1-2.8,2.6-3.5,4.4
	c-0.7,2.3-0.6,4.8,0.3,7c0.7,2.4,2.2,4.4,4.2,5.9c1,0.7,2.2,1.2,3.4,1.3c1.2,0.2,2.5-0.1,3.6-0.6c1.3-0.7,2.4-1.9,3-3.2
	c0.6-1.4,0.9-2.9,1-4.3c0.1-1.9-0.1-3.8-0.7-5.6c-0.6-2-1.9-3.7-3.6-4.9c-0.9-0.6-1.9-0.9-2.9-1.1c-1-0.1-2.1,0-3.1,0.3
	C103.3,40.7,102.7,41,102.3,41.3"/>
<path class="st2" d="M105.9,46c-0.6,0-1.2,0.2-1.7,0.5c-0.5,0.3-0.9,0.7-1.3,1.2c-0.6,1-1,2.2-1,3.3c0,0.9,0.1,1.8,0.4,2.6
	c0.3,0.8,0.8,1.6,1.5,2.2c0.7,0.6,1.6,0.9,2.5,1c0.9,0,1.8-0.2,2.6-0.7c0.6-0.4,1.1-1,1.4-1.6c0.3-0.6,0.6-1.3,0.6-2.1
	c0.2-1.3,0-2.6-0.6-3.7c-0.6-1.2-1.6-2-2.8-2.5C107,46,106.4,46,105.9,46"/>
<path class="st1" d="M84.5,41.3c-1,0.1-2,0.5-2.7,1.2c-0.7,0.7-1.3,1.6-1.6,2.5c-0.5,2-0.6,4-0.4,6c0,1.8,0.4,3.6,0.9,5.4
	c0.3,0.8,0.8,1.6,1.5,2.3c0.6,0.7,1.4,1.1,2.3,1.4c0.8,0.2,1.7,0.2,2.5-0.1c0.8-0.3,1.6-0.7,2.2-1.3c0.9-0.9,1.5-2,1.8-3.2
	c0.3-1.2,0.5-2.5,0.4-3.7c0-1.6-0.2-3.1-0.7-4.6c-0.5-1.5-1.3-2.9-2.4-4c-0.5-0.5-1.1-1-1.8-1.3C86,41.4,85.3,41.3,84.5,41.3"/>
<path class="st2" d="M82.1,49.6c-0.2,1.3-0.2,2.6,0.2,3.8c0.3,0.8,0.8,1.5,1.3,2.2c0.4,0.4,0.8,0.8,1.3,1c0.5,0.3,1.1,0.3,1.6,0.2
	c0.5-0.1,0.9-0.4,1.3-0.8c0.3-0.4,0.5-0.9,0.7-1.4c0.4-1.5,0.4-3-0.1-4.5c-0.3-1.1-0.9-2-1.7-2.8c-0.4-0.3-0.9-0.6-1.4-0.7
	c-0.5-0.1-1.1-0.1-1.6,0.1c-0.5,0.3-1,0.7-1.2,1.2C82.3,48.5,82.2,49,82.1,49.6"/>
<path class="st3" d="M79.7,65.3c0,0.2,0.1,0.3,0.2,0.5c0.2,0.3,0.4,0.5,0.6,0.6c0.2,0.2,0.5,0.3,0.7,0.5c1.3,0.9,2.4,2,3.3,3.2
	c1.1,1.8,2.5,3.3,4.1,4.7c1.2,0.8,2.6,1.3,4.1,1.5c1.7,0.1,3.5-0.1,5.1-0.6c1.5-0.4,3-1.1,4.4-1.9c2.4-1.9,4.9-3.6,7.6-5
	c0.6-0.2,1.3-0.4,1.9-0.7c0.6-0.3,1.1-0.7,1.5-1.3c0.2-0.6,0.3-1.2,0.4-1.9c0.1-0.7,0.3-1.3,0.4-2c0.2-0.7,0.1-1.4-0.2-2
	c-0.3-0.5-0.7-0.9-1.2-1.2c-0.5-0.2-1.1-0.4-1.6-0.4c-1.1,0-2.3,0.1-3.4,0.3c-1.5,0.1-3-0.1-4.5,0c-1.9,0.1-3.7,0.5-5.6,0.5
	c-2.1,0.1-4.2-0.2-6.4-0.3c-0.9-0.1-1.8,0-2.8,0.1c-0.9,0.1-1.8,0.5-2.6,1c-0.7,0.6-1.4,1.2-2,1.8c-0.3,0.3-0.7,0.6-1.1,0.8
	c-0.4,0.2-0.8,0.3-1.3,0.3c-0.2,0-0.5,0-0.7,0c-0.1,0-0.3,0.1-0.4,0.2c-0.1,0.1-0.2,0.2-0.3,0.3C80.1,64.7,79.9,65,79.7,65.3"/>
<path class="st4" d="M84.4,60.6c-0.8,0.5-1.5,0.9-2.2,1.4c-0.4,0.2-0.7,0.6-0.9,1c-0.1,0.3-0.2,0.6-0.2,0.9c0,0.3,0,0.6,0,1
	c0,0.2-0.1,0.4-0.1,0.7c0,0.1,0,0.2,0,0.3c0,0.1,0.1,0.2,0.2,0.3c0.1,0.1,0.2,0.2,0.4,0.2c0.1,0,0.3,0.1,0.4,0.1
	c0.7,0.2,1.3,0.5,1.7,1c0.5,0.5,1,1,1.5,1.4c1.5,1.1,3.3,1.7,5.2,1.7c1.8,0,3.7-0.3,5.5-0.8c1.4-0.3,2.8-0.7,4.1-1.1
	c2.1-0.8,4-1.9,5.7-3.4c0.7-0.7,1.5-1.3,2.3-1.9c0.8-0.5,1.6-0.8,2.4-1.2c0.1,0,0.1-0.1,0.2-0.1c0.1-0.1,0.1-0.1,0.2-0.2
	c0.1-0.1,0.1-0.3,0-0.4c0-0.1-0.1-0.2-0.2-0.3c-0.1-0.1-0.2-0.2-0.3-0.3c-0.9-0.6-1.9-1-2.9-1c-1.1-0.1-2.1,0-3.2-0.2
	c-1-0.2-1.9-0.5-2.9-0.8c-1-0.3-2-0.6-3-0.7c-2.4-0.4-4.9-0.3-7.3,0.2C88.6,58.6,86.4,59.5,84.4,60.6"/>
<path class="st5" d="M84.2,58.1c-1.1,0.7-2.1,1.6-2.9,2.6c-0.5,0.6-0.9,1.2-1.1,1.9c-0.2,0.6-0.3,1.1-0.4,1.7
	c-0.1,0.2-0.1,0.4-0.1,0.7c0,0.1,0,0.2,0.1,0.3c0,0.1,0.1,0.2,0.2,0.3c0.1,0.1,0.3,0.2,0.5,0.2c0.2,0,0.4,0,0.5,0.1
	c0.8,0.1,1.6,0.5,2.3,1c0.7,0.5,1.3,1,2,1.5c1.6,0.9,3.4,1.4,5.2,1.5c1.8,0,3.6-0.1,5.4-0.5c1.4-0.3,2.8-0.7,4.2-1.2
	c2-0.9,4-2,5.7-3.4c0.8-0.6,1.6-1.2,2.3-1.9c0.2-0.2,0.5-0.5,0.8-0.7c0.3-0.2,0.6-0.4,0.9-0.5c0.5-0.1,1-0.1,1.5,0
	c0.4,0.1,0.8,0.1,1.2,0.1c0.2,0,0.4,0,0.6-0.1c0.2-0.1,0.3-0.2,0.5-0.3c0.2-0.2,0.2-0.5,0.2-0.7c0-0.3-0.1-0.5-0.2-0.7
	c-0.3-0.4-0.7-0.8-1.2-1c-0.7-0.3-1.3-0.5-2-0.6c-2.1-0.5-4.2-1.3-6.1-2.2c-1-0.5-1.9-1-2.9-1.5c-1-0.5-2-1-3-1.3
	c-2.4-0.7-5-0.5-7.3,0.3C88.3,54.4,86,56,84.2,58.1"/>
<path class="st6" d="M96.3,55.1c0.1,0.4,0.8,0.4,1.2,0.5c0.4,0.2,0.6,0.5,1,0.6c0.4,0,0.9-0.1,1-0.5c0.1-0.5-0.6-0.8-1.1-1
	c-0.6-0.3-1.3-0.3-1.9,0C96.4,54.8,96.3,55,96.3,55.1L96.3,55.1z M89.9,54.9c-0.5-0.2-1.3,0.7-1.1,1.2c0.1,0.1,0.3,0.3,0.5,0.2
	c0.2-0.1,0.4-0.6,0.7-0.8C90.1,55.4,90.1,54.9,89.9,54.9z"/>
<path class="st5" d="M170,159.3c-0.4,1-0.9,1.9-1.6,2.7c-1.6,1.7-3.5,3-5.6,4c-3.6,1.6-7,3.5-10.4,5.5c-2.2,1.5-4.2,3.1-6.1,4.9
	c-1.6,1.6-3.2,3.1-5,4.5c-1.8,1.4-3.9,2.3-6.2,2.6c-2.7,0.4-5.5-0.1-8.1-1.2c-1.8-0.7-3.4-1.9-4.5-3.5c-0.9-1.7-1.4-3.6-1.3-5.6
	c0.1-3.4,0.5-6.8,1.2-10.2c0.5-2.8,1-5.6,1.3-8.4c0.5-5.2,0.6-10.3,0.2-15.5c-0.1-0.9-0.1-1.7,0-2.6c0.1-1.8,1.6-3.1,3.4-3.1
	c0.8,0,1.6,0.1,2.4,0.2c1.9,0.2,3.7,0.5,5.6,1c1.1,0.3,2.3,0.7,3.4,1c1.9,0.6,3.9,0.7,5.9,0.5c2.1-0.5,4.2-0.8,6.3-1
	c0.9,0,1.7,0.2,2.6,0.5c0.9,0.2,1.7,0.7,2.3,1.3c0.5,0.5,0.8,1.1,1.1,1.7c0.4,0.9,0.6,1.9,0.7,3c0,0.9,0.1,1.8,0.2,2.7
	c0.3,1.4,1,2.8,2,3.9c1,1.1,2.1,2.1,3.2,3c1.1,1,2.3,1.9,3.5,2.7c0.6,0.4,1.2,0.8,1.7,1.2c0.6,0.4,1,0.9,1.4,1.5
	C170.1,157.4,170.2,158.3,170,159.3"/>
<path class="st5" d="M170,159.3c-0.4,1-0.9,1.9-1.6,2.7c-1.6,1.7-3.5,3-5.6,4c-3.6,1.6-7,3.5-10.4,5.5c-2.2,1.5-4.2,3.1-6.1,4.9
	c-1.6,1.6-3.2,3.1-5,4.5c-1.8,1.4-3.9,2.3-6.2,2.6c-2.7,0.4-5.5-0.1-8.1-1.2c-1.8-0.7-3.4-1.9-4.5-3.5c-0.9-1.7-1.4-3.6-1.3-5.6
	c0.1-3.4,0.5-6.8,1.2-10.2c0.5-2.8,1-5.6,1.3-8.4c0.5-5.2,0.6-10.3,0.2-15.5c-0.1-0.9-0.1-1.7,0-2.6c0.1-1.8,1.6-3.1,3.4-3.1
	c0.8,0,1.6,0.1,2.4,0.2c1.9,0.2,3.7,0.5,5.6,1c1.1,0.3,2.3,0.7,3.4,1c1.9,0.6,3.9,0.7,5.9,0.5c2.1-0.5,4.2-0.8,6.3-1
	c0.9,0,1.7,0.2,2.6,0.5c0.9,0.2,1.7,0.7,2.3,1.3c0.5,0.5,0.8,1.1,1.1,1.7c0.4,0.9,0.6,1.9,0.7,3c0,0.9,0.1,1.8,0.2,2.7
	c0.3,1.4,1,2.8,2,3.9c1,1.1,2.1,2.1,3.2,3c1.1,1,2.3,1.9,3.5,2.7c0.6,0.4,1.2,0.8,1.7,1.2c0.6,0.4,1,0.9,1.4,1.5
	C170.1,157.4,170.2,158.3,170,159.3 M52.6,130.7c0.9-0.4,1.9-0.5,2.9-0.3c1,0.2,1.9,0.6,2.7,1.1c1.6,1.2,2.9,2.6,4,4.3
	c2.6,3.6,5.2,7.3,7.5,11.2c1.9,3.1,3.6,6.3,5.7,9.3c1.4,1.9,3,3.7,4.4,5.6c1.5,1.9,2.6,4,3.3,6.3c0.8,3,0.5,6.2-0.9,9
	c-1,1.9-2.5,3.6-4.4,4.7c-1.9,1.1-4,1.7-6.2,1.6c-3.4-0.5-6.8-1.5-9.8-3.1c-6.5-2.6-13.6-3.4-20.3-5.4c-2.1-0.6-4.1-1.4-6.2-1.9
	c-0.9-0.2-1.8-0.5-2.7-0.9c-0.9-0.4-1.6-1-2.2-1.8c-0.4-0.7-0.6-1.4-0.5-2.2c0-0.7,0.2-1.5,0.4-2.2c0.5-1.4,1.3-2.7,1.9-4
	c0.8-2.3,1.1-4.7,0.9-7.1c-0.1-2.4-0.5-4.8-0.7-7.2c-0.1-1.1-0.1-2.2,0.1-3.2c0.3-2.1,2-3.8,4.1-4.2c1-0.2,2-0.2,3-0.2
	c1,0.1,2,0.1,3,0c1-0.1,2-0.3,2.9-0.8c0.8-0.5,1.5-1.2,2-1.9c0.5-0.8,1-1.6,1.5-2.4c0.4-0.8,1-1.6,1.5-2.4
	C50.9,131.6,51.7,131,52.6,130.7"/>
<path class="st5" d="M52.6,130.7c0.9-0.4,1.9-0.5,2.9-0.3c1,0.2,1.9,0.6,2.7,1.1c1.6,1.2,2.9,2.6,4,4.3c2.6,3.6,5.2,7.3,7.5,11.2
	c1.9,3.1,3.6,6.3,5.7,9.3c1.4,1.9,3,3.7,4.4,5.6c1.5,1.9,2.6,4,3.3,6.3c0.8,3,0.5,6.2-0.9,9c-1,1.9-2.5,3.6-4.4,4.7
	c-1.9,1.1-4,1.7-6.2,1.6c-3.4-0.5-6.8-1.5-9.8-3.1c-6.5-2.6-13.6-3.4-20.3-5.4c-2.1-0.6-4.1-1.4-6.2-1.9c-0.9-0.2-1.8-0.5-2.7-0.9
	c-0.9-0.4-1.6-1-2.2-1.8c-0.4-0.7-0.6-1.4-0.5-2.2c0-0.7,0.2-1.5,0.4-2.2c0.5-1.4,1.3-2.7,1.9-4c0.8-2.3,1.1-4.7,0.9-7.1
	c-0.1-2.4-0.5-4.8-0.7-7.2c-0.1-1.1-0.1-2.2,0.1-3.2c0.3-2.1,2-3.8,4.1-4.2c1-0.2,2-0.2,3-0.2c1,0.1,2,0.1,3,0c1-0.1,2-0.3,2.9-0.8
	c0.8-0.5,1.5-1.2,2-1.9c0.5-0.8,1-1.6,1.5-2.4c0.4-0.8,1-1.6,1.5-2.4C50.9,131.6,51.7,131,52.6,130.7"/>
<path class="st5" d="M54,132.2c0.8-0.3,1.7-0.4,2.6-0.2c0.9,0.2,1.7,0.6,2.4,1.2c1.3,1.2,2.4,2.5,3.3,4.1c2.2,3.6,4.4,7.3,6.5,11
	c1.5,2.9,3.1,5.6,5,8.3c1.3,1.7,2.7,3.3,4,5c1.4,1.7,2.4,3.6,3,5.6c0.7,2.7,0.4,5.5-0.8,8c-0.9,1.8-2.3,3.2-4,4.2
	c-1.7,1-3.7,1.5-5.7,1.4c-3.1-0.5-6.2-1.4-9-2.8c-5.7-2.1-11.9-2.3-17.7-4c-2.1-0.6-4.1-1.3-6.2-1.9c-0.9-0.2-1.9-0.5-2.8-0.8
	c-0.9-0.3-1.7-1-2.2-1.8c-0.3-0.6-0.5-1.3-0.5-2.1c0-0.7,0.2-1.4,0.5-2.1c0.5-1.3,1.3-2.5,1.8-3.9c0.7-2,1-4.2,0.7-6.4
	c-0.1-2.2-0.5-4.3-0.6-6.4c-0.1-1,0-1.9,0.1-2.9c0.2-1,0.6-1.8,1.3-2.5c0.8-0.7,1.8-1.2,2.8-1.3c1-0.1,2.1-0.1,3.1,0
	c1,0.1,2.1,0.2,3.1,0.1c1.1,0,2.1-0.3,3-0.9c0.8-0.6,1.4-1.3,1.8-2.2c0.4-0.8,0.8-1.7,1.1-2.6c0.3-0.9,0.7-1.7,1.3-2.5
	C52.4,133.2,53.1,132.6,54,132.2"/>
</svg>
